<?xml version="1.0" encoding="UTF-8"?>
<svg id="Layer_1" data-name="Layer 1" xmlns="http://www.w3.org/2000/svg" viewBox="0 0 100 100">
  <defs>
    <style>
      .cls-1 {
        fill: #512d70;
        stroke-width: 0px;
      }
    </style>
  </defs>
  <path class="cls-1" d="M79.1,54.7c-1.9,10.2-7.4,17.6-16.8,21.9-13.7,6.3-29.5,1.3-37.3-11.5-3.5-5.9-4.7-12.2-3.9-19,1.5-11.9,10.7-21.9,22.7-24.7,11.4-2.6,23.9,2.3,30.5,12.2,2.4,3.6,4,7.5,4.7,11.8,0,.2.1.5.1.7-.2.1-.3.1-.3.1-5.6.2-11.2,0-16.5-1.5-2.1-.6-3.6-2.5-3.6-4.7v-2.4c0-1.3-1.4-2.1-2.5-1.4l-3.4,2-3.8,2.1-6.6,3.8-5.5,3.2-2.2,1.3c-1.1.6-1.1,2.2,0,2.9l2.2,1.3,5.6,3.2,6.5,3.7,3.9,2.2,3.4,2c1.1.6,2.5-.2,2.5-1.4v-2.3c0-2.1,1.4-4,3.4-4.7,3.7-1.2,7.6-1.7,11.6-1.6h4.5c.7-.2.9.1.8.8Z"/>
</svg>