<?xml version="1.0" encoding="utf-8"?>
<!-- Generator: Adobe Illustrator 28.2.0, SVG Export Plug-In . SVG Version: 6.00 Build 0)  -->
<svg version="1.1" id="Layer_1" xmlns="http://www.w3.org/2000/svg" xmlns:xlink="http://www.w3.org/1999/xlink" x="0px" y="0px"
	 viewBox="0 0 595.28 531.28" style="enable-background:new 0 0 595.28 531.28;" xml:space="preserve">
<style type="text/css">
	.st0{fill:#512D70;}
</style>
<path class="st0" d="M571.6,306.4c-17.83,87.96-69.54,152.68-156.55,189.85c-126.95,54.43-274.58,11.29-346.62-100.24
	c-32.81-50.78-44.22-105.88-36.37-164.63C46.33,127.83,131.56,41.2,243.53,17.3C349.8-4.94,465.69,37.21,527.74,123.18
	c22.82,30.87,37.09,64.72,43.51,101.9c0.35,1.99,0.71,3.98,1.07,6.31c-1.78,0.66-2.5,1.33-3.57,1.33
	c-36.01,1.01-71.82,0.49-106.96-4.18c-20.03-2.66-38.73-10.93-53.03-24.24l-27.58-25.67c-33.09-30.8-86.73-30.8-119.82,0
	l-53.14,49.46c-22.46,20.58-22.46,54.43,0,75.34l53.14,49.12c33.23,30.72,86.9,30.64,120.02-0.19l27.78-25.86
	c13.63-12.68,31.22-20.99,50.24-23.92c20.39-3.13,41.2-4.58,62.64-4.14c13.91,0,27.81,0,42.08-0.33
	C570.89,298.1,572.67,300.09,571.6,306.4z"/>
</svg>
