<?xml version="1.0" encoding="UTF-8"?>
<svg id="Layer_1" data-name="Layer 1" xmlns="http://www.w3.org/2000/svg" viewBox="0 0 600 600">
  <defs>
    <style>
      .cls-1 {
        fill: #fff;
      }

      .cls-2 {
        fill: #a53223;
      }
    </style>
  </defs>
  <circle class="cls-2" cx="295.34" cy="300" r="289.96"/>
  <g>
    <g>
      <path class="cls-1" d="M345.86,512.91c2.38-.07,7.26,2.33,9.1,2.26,1.96-.08,3.27-1.58,6.75-.86,2,.42,9.42,4.38,9.7,6.54l-1.24,2.31c-5.16-.28-8.47,3.25-13.44,3.31-2.18.02-4.54-.92-6.77-1.03-4.6-.23-12.35,2.03-15.99-.32-4.63-2.99.16-8.53.6-12.51,1.1-10.03-1.15-23.64-.66-34.51.32-7.06,1.3-15.89,2.96-22.74.62-2.55,3.23-8.24,3.33-9.88.18-2.75-8.62-17.39-10.64-20.65-6.38-10.28-13.8-20.05-21.29-29.54,2.63-3.85,5.46-7.83,5.59-12.76l-3.77,5.94c-4.78,5.91-9.28,4.74-16.29,4.71,1.37-5.28-.33-13.64-5.01-16.92.99,2.98,2.55,5.83,2.55,9.09.03,17.13-22.2,44.42-32.96,57.36-1.78,16.85-7.61,32.88-15.67,47.65-3.82,7-12.7,18.36-13.46,26.07-.27,2.69,1.42,5.33-.39,7.73-2.48,3.31-9.53,0-12.45.09-3.13.1-7.57,2.32-11.35,2.32-2.18,0-9.4-1.33-11.78-1.88-.84-.19-2.76-1.35-2.92-2.13-.3-1.41,10.31-7.49,11.99-7.98,4.17-1.2,5.06,1.49,7,1.32,1.08-.09,8.51-3.12,9.13-4,5.71-17.44,13.74-35.16,18.71-52.76,2.67-9.47,2.19-17.51,6.54-26.69,8.11-17.15,12.51-33.53,20.07-50.15,3.91-8.6,8.91-17.24,15.4-24.15,13.77,5.95,28.67,8.65,42.01,0l.82.2c8.12,12.54,15.29,25.79,21.43,39.43,4.57,10.16,10.19,23.11,13.35,33.67,2.58,8.62,2.3,11.37.76,20.15-3.58,20.44-9.07,40.66-11.72,61.31Z"/>
      <path class="cls-1" d="M352.14,203.24c.52.45,6.43-.93,5.64.93l-16.21,11.06v1.36c7.4,10.72,18.15,22.23,23.85,33.87,1.3,2.65,3.17,6.97.97,9.64-1.76,2.15-14.17,6.15-17.51,7.25-12.75,4.19-25.97,7.18-38.96,10.52-6.44-9.83-15.12-22.08-.49-29.58.32-.55.05-1.27-.24-1.8-1.79-3.31-10.69-9.55-14.39-10.7-11.6-3.61-20.94,2.35-17.61,15.1,1.28,4.91,6.77,6.15,10.31,8.5,9.01,5.97,14.24,16.73,3.77,24.35-4.29,3.12-10.46,3.66-14.28,7.67-8.95,13.99-15.46,29.61-25.31,43.03-10.36,14.12-41.82,33.1-57.78,41.29-6.64,3.41-12.72,3.12-19.2-.46-5.1-2.82-9.42-9.15-15.71-9.06,2.05-5.48,9.86-.6,13.77.34.91.22,6.06,1.14,6.29.92.37-1.45-1.08-2.32-1.25-3.49-.54-3.66,4.95-8.26,4.39-9.04-2.22-.96-6.22-.36-8.12-1.6-.85-.56-1.74-2.43-.3-2.78.36-.09,6.53.6,7.33.76,6.43,1.28,14.05,5.61,16.79,11.75.59.41,2.84-1.44,3.41-1.88,12.28-9.54,23.31-21.38,36.7-29.76,10.82-14.51,18.18-40.98,31.35-52.66,3.02-2.68,5.08-1.55,4.24-6.74-.92-5.69-4.8-8.75-7.49-13.19-1.01-1.67-2.62-6.52-3.32-7.34s-5.19-.55-8.17-3.74c-3.3-3.53-3.05-9.66-3.44-10.04-.47-.47-3.77,1.4-5.34-2.49-.43-1.07-.01-2.58-.9-3.48-.27-.27-6.53-3.07-6.9-3.15-2.84-.59-6.84,1.9-7.55-4.04-2.81,1.47-6.91,2.32-9.08-.64-.89-1.22-.71-3.57-2.51-3.76-.28,2.75,1.12,5.08-.39,7.77-1.89,3.37-5.83,1.06-7.77,4.13-1.61-.88-.15-1.92-.62-3.1-.26-.66-1.54-1.32-1.93-2.5-1.27-3.81,1.45-7.35,5.34-7.59.15-1.26.25-2.33-.91-3.09-3.91,4.07-8.22,1.01-9.12-3.77-5.2,2.32-8.51.75-9.39-5.02-.29-.23-3.57,3.24-6.57-.65-.53-.69-.89-2.37-1-2.46-.61-.46-4.47,2.12-7.22-1.24-.69-.84-.82-2.31-.99-2.45-.37-.31-2.11-.04-3.06-.38-.84-.3-1.55-1.32-2.25-1.44s-1.6.49-2.39.42c-3.94-.32-4.59-5.05-5.36-8.12,3.04.64,6.43-3.5,9.44.3,2.9,3.67,1.47,1.29,4.34,3.19.49.32.52,1.49,1.05,1.57.78.12,2.24-.79,3.61-.68,2.42.2,4.24,2.67,4.14,5.02,3.97-1.35,7.3-1.06,7.53,3.76,4.58-2.33,9.46-1.52,9.4,4.39,4.39-2.25,9.59-1.39,9.41,4.39l2.46-1.02c-.47-2.63-1.38-5.18.66-7.46,2.19-2.44,5.44-.51,7.23-3.42l2.71,6.1c.34,1.69-.24,3.94-1.4,5.22-1.7,1.87-4.75.84-4.12,3.71,4.87-2.51,9.78-.91,10.03,5.02,6.51-2.51,5.53,1.88,7.96,3.8,2.93,2.31,10.22,3.83,13.63,6.27,3.33-6.11,10.1-7.68,15.63-3.22,9.47-8.73,21.87-9.18,33.44-4.45,10.16,4.15,30.76,21.61,19.98,33.37-1.53,1.67-4.24,2.25-5.36,4.35l32.61-8.15-19.25-36.23c-1.58-4.39-.66-5.69,2.32-8.89-5.21-.54-10.56-4.99-8.48-10.67.67-1.83,1.45,1.46,2.65,1.81,2.56.74,5.57-3.22,7.8-4.53,2.43-1.43,5.57-2.62,8.38-2.9,2.38-.24,8.85,1.07,9.64-1.71.41-1.43-1.41-2.92.38-2.68,3.41,2.58,4.39,6.28,2.77,10.28-.43,1.06-4.33,5.46-3.7,6.01ZM220.83,203.94c-2.86,1.46-4.78,4.26-1.96,6.82l3.43-5.95-1.47-.87ZM221.07,212.02c3.29.99,6.13-5.01,3.44-6.26-.99-.46-1.38,1.3-1.77,1.96-.35.6-1.96,4.03-1.67,4.3ZM229.84,220.8c1.25-3.48-5.71-6.01-6.26-3.44-.34,1.59,4.98,3.04,6.26,3.44ZM228.59,222.06l-6.89-2.51c-.48,3.98,5.65,7.19,6.89,2.51ZM214.16,220.8c-3.82-.45-5.15,3.11-3.75,6.26,1.37,1.05,3.54-5.32,3.75-6.26ZM212.91,228.32c3.6.42,6.36-3.47,3.44-6.26l-3.44,6.26Z"/>
      <path class="cls-1" d="M256.19,377.52c.84-2.44,3-4.42,4.27-6.69,1.75-3.13,2.76-6.75,4.61-9.81,3.65-6.02,10.72-9.43,13.09-16.38,1.11-3.26,1-7.28.6-10.7-.1-.89-.36-1.79-1.25-.92-.66,2.66-.89,5.38-1.72,8.01-2.75,8.71-8.93,11.84-13.87,18.74-5.57,7.79-6.87,14.83-14.84,21.52-.7.59-1.02,1.52-2.2,1.25,2.38-3.33,5.62-5.93,7.79-9.45,2.57-4.17,4.08-9.18,6.53-13.53,4.03-7.16,11.44-13.83,10.46-22.77-1.49,3.58-4.61,6.05-6.3,9.38-1.45,2.85-1.83,6.35-3.53,9.01-1.68,2.62-4.68,3.88-6.69,6.48-2.51,3.25-2.9,6.49-4.61,9.81-3.52,6.81-9.29,12.02-14.63,17.35-.47.1-.43-.66-.31-.93.51-1.14,6.69-6.93,8.13-8.8,5.43-7.08,4.79-10.72,8.06-17.65,1.8-3.82,6.49-5.83,6.38-10.23-4.06,2.79-8.35,5.82-10.67,10.32-1.58,3.06-2.02,6.75-3.43,9.73-2.65,5.6-8.6,8.8-12.55,13.16-3.6,3.98-5.75,8.92-8.55,13.39-.4.64-1.3,1.93-1.15.1,2.63-4.32,4.76-9.46,7.88-13.44,2.7-3.43,7.38-6.69,9.58-10.48,4.47-7.72,1.92-15.28,9.56-23.04,2.21-2.25,10.1-6.98,11.26-8.96,1.15-1.97,1.98-9.16,3.61-12.53,3.75-7.73,12.72-13.57,13.66-23.33l4.63-8.21c-.1,17.96,14.47,34.65,1.25,51.07-3.64,4.52-9.56,7.92-13.48,12.23-4.66,5.13-5.79,12.23-11.59,16.3Z"/>
      <path class="cls-1" d="M321.47,315.5c-8.28,19.5-36.82,10.86-33.92-10.08l10.29,1.81c1.56,12.07,15.73,10.46,14.27-1.71l8.65-4.23c3.69,2.96,7.28,5.72,12.41,3.65,1.81-.73,4.7-4.5,4.3-6.46-.44-2.16-7.56-5.27-7.83-5.68-1.14-1.79,3.84-7.71,4.39-9.88l1.34.04c8.77,5.32,16.38,10.46,12.05,21.81-3.91,10.26-15.92,14.2-25.96,10.71Z"/>
      <path class="cls-1" d="M458.56,332.83c-2.62,3.25-7.36,1-8.15-2.78-35.51-17.14-71.39-33.59-106.84-50.85-.59-.29-4.23-1.7-3.35-2.6l6.41-1.11,105.67,50.49c4.55-2.25,9.39,2.95,6.25,6.84Z"/>
    </g>
    <path class="cls-1" d="M332.77,88.94c-1.67,5.51.03,11.55,3.15,16.17,5.76,8.51,16.59,12.52,21.05,22.05,5.92,12.67-1.13,30.33,8.13,40.05,5.79,6.09,17.05,5.04,12.79-5.81-4.68-11.91-20.32-24.13-8-38.21.63-.72,4.27-4.05,4.1-1.62-1.48,20.59,7.91,21.51,18.99,34.88,16.82,20.32-1.8,34.46,1.44,53.71,1.04,6.21,7.51,9.3,12.24,4.3,6.6-6.98-2.39-25.25-2.2-34.48.12-5.88,3.23-14.75,9.46-16.26-5.42,12.14,5.95,20.85,9.36,31.52,2.07,6.48,2.53,11.48.61,18.05-2.79,9.53-12.38,12.93-15.33,22.07-2.11,6.54-1.3,17.44,7.59,17.15,10.14-.33,7.33-13.51,8-19.95.99-9.49,5.87-16.01,15.77-16.87.32.32-3.38,5.5-3.82,6.63-5.22,13.2,1.89,27.56.65,41.22-1.35,14.85-19.17,20.77-20.28,35.83-6.95-1.02-4.59-6.48-5.07-11.73-5.99-64.86-43.44-125.69-103.1-153.64-2.89-1.35-12.46-5.96-14.95-5.68-3.32.38-15.06,6.17-18.67,8.01-27.5,14.03-49.81,34.94-67.19,60.28l-1.03-.02c-4.7-4.4-11.66-4.1-16.6-8.18-1.08-5.61-2.73-10.91-2.15-16.71,2.03-20.35,32.25-27.51,25.92-51.1,8.22,2.91,9.65,14.19,7.27,21.53-2.06,6.35-12.67,18.36-12.33,23.75.39,6.18,8.59,5.59,12.61,2.52,10.62-8.11,4.26-26.97,8.62-38.92,5.72-15.68,29.42-20.05,25.67-40.58,1.41-1.62,5.07,7.25,5.29,8.33,1.29,6.28-.59,14.38-4.39,19.52-1.95,2.64-5.07,4.68-6.74,7.84-7.67,14.52,9.97,18.85,16.86,7.35,4.07-6.78.91-9.55.39-16.11-.92-11.51,5.4-16.35,7.81-26.4,1.3-5.43,1.54-10.9.42-16.38,8.14,2.89,10.19,12.73,9.43,20.52-.77,7.92-8.17,23.44,2.17,27.78,9.51,3.98,14.62-6.35,15.04-14.36.75-14.06-11.55-23.12-2.19-37.69,1.61-2.51,3.27-4.36,5.96-5.76-.79,6.09-1.02,11.31.82,17.25,2.15,6.94,8.09,11.24,9.79,18.1,3,12.13-5.51,21.61,5.56,33.75,3.95,4.33,12.94,9.02,16,1.41,5.14-12.79-11.02-17.58-12.46-28.41-.86-6.49.66-14.71,7.55-16.74ZM410.74,319.04c-3.6,51.18-23.59,99.59-48.18,143.89,14.8,5.86,31.54,8.24,44.67-2.54,12.39-10.18,15.89-29.88,33.3-33.59-4.08-5.17-12.71-4.33-18.18-2.01-10.74,4.53-17.84,21.55-29.22,22.79-8.75.96-14.07-6.77-8.64-14.38,6.95-9.74,25.14-9.86,35.48-13.97,11.61-4.61,11.6-13.53,15.82-23.48,3.65-8.6,7.62-15.32,15.52-20.61-7.44-4.69-16.79,1.83-21.19,7.97-5.21,7.26-6.87,18.49-16.38,21.65-8.58,2.85-17.28-3.02-12.85-12.21,4.77-9.88,18.31-9.47,26.28-15.56,13.3-10.17,6.92-30.45,17.79-42.42l-11.3-5.3c-4.68,5.15-5.81,24.42-15.78,20.35-8.98-3.66-1.23-22.68,7.69-23.56l.39-1.3c-2.49-.41-13.66-7.22-15.21-5.72ZM190.34,215.84c-1.3-.06-2.35,1.94-5.94.85-4.74-1.44-4.51-6.36-6.7-7.88-.97-.67-2.58-.72-3.64-1.43-1.65-1.09-2.6-3.02-4.48-3.76-1.93-.76-4.62-.73-6.7-1.21-.1,4.06-.18,7.96,1.13,11.86,3.94,11.76,17.58,13.54,15.97,29.65-1.23,12.31-15.14,11.23-16.47-.62-.4-3.58.31-7.64-.08-11.33-.88-8.39-5.03-15.02-14-15.82-3.37-.3.4,2.52,1.52,4.84,7.79,16.21-6.06,37.47,3.17,51.98,5.67,8.92,18.9,16.97,16.95,29.24-.93,5.85-8.2,8.78-12.64,4.48-9.37-9.07-1.29-39.39-23.45-37.72l5.57,6.78c8.3,12.1-.98,24.61,5.31,37.16,5.93,11.82,21.15,11.48,26,21.55,1.17,2.42,1.92,5.32,1.82,8.01l6.3.66c-8.72-42.5-3.16-86.65,15.85-125.5-1.62.17-4.43-1.73-5.5-1.79ZM178.41,405.53c-12.18-.02-14.77-12.81-19.95-20.89-4.66-7.28-13.34-14.33-22.2-9.49,7.3,4.58,11.49,10.96,14.88,18.71,2.79,6.38,4.4,15.54,9.19,20.61,9.65,10.21,33.6,6.04,43.12,19.01,3.37,4.59,2.37,11.23-3.18,13.3-14.09,5.24-22.73-15.69-33.25-21.25-5.68-3-15.48-4.04-19.99,1.28,17.58,3.51,20.91,23.5,33.3,33.59,12.01,9.78,31.76,10.46,44.62,2.17-14.13-25.06-26.25-51.37-35.14-78.87l-.61-.55c-2.96,1.8-6.27,1.03-9.54,1.19-.71.04-1.74-.41-1.57.63,11.2,3.19,15,20.59.31,20.57ZM162.73,348.04c-.63-2.41-6.68-15.61-8.2-17.79-5.26-7.52-15.05-8.79-23.34-6.13-.25,1.13.33,1.25,1.05,1.8,1.66,1.25,3.96,1.99,5.93,3.58,8.81,7.09,11.14,18.05,13.3,28.54l8.02-2.83,4.66.59c-1.3-2.48-.82-5.5-1.42-7.77ZM433.37,298.25c-.77,2.82-1.98,5.04-2.95,7.71.16.57,9.79,5.26,10.57,5.38,2.32.35,3.07-4.72,3.28-6.63,1.31-12.16-4.69-19.35,4.61-31.52l3.69-4.23c-17.65-.68-15.95,17.43-19.2,29.29ZM176.2,164.68c-.64-.49-.8-1.23-1.9-.94,1.2,5.89,1.51,11.2-1.9,16.46,3.78,1.12,5.66,6.01,10.09,5.03,1.92-7.06-.38-16.03-6.28-20.55Z"/>
  </g>
</svg>