<?xml version="1.0" encoding="UTF-8"?>
<svg id="Layer_1" data-name="Layer 1" xmlns="http://www.w3.org/2000/svg" viewBox="0 0 2267.72 5669.29">
  <defs>
    <style>
      .cls-1 {
        stroke-width: 0px;
      }
    </style>
  </defs>
  <path class="cls-1" d="M799.93,972.44c0-53.63-.05-107.26.03-160.89.05-31.52,20.3-51.59,52.04-51.6,107.74-.04,215.48-.04,323.22,0,31.59.01,51.93,20.24,51.94,51.65.03,107.75.02,215.49-.01,323.24,0,32.49-19.99,52.32-52.73,52.33-107.25.03-214.5.03-321.75.01-32.55,0-52.7-20.04-52.72-52.39-.03-54.12,0-108.23,0-162.35ZM902.22,1043.53c23.15-25.72,50.62-10.98,76.29-13.65-7.38-29.74.84-54.09,21.62-73.83,20.51-19.48,46.13-27.24,77.07-27.3-5.23-11.38-8.08-21.34-13.73-29.3-38.45-54.11-122.44-60.76-169.73-13.93-29.76,29.47-33.62,75.79-7.57,105.88,12.46,14.39,31.37,25.29,16.05,52.13ZM1130.72,1092.4c-10.27-21.67,4.64-31.44,14.74-44.11,17.21-21.6,17.31-51.95,2.18-75.06-28.04-42.81-99.46-49.97-139.58-14-31.29,28.05-32.12,69.69-1.85,98.76,16.53,15.87,36.54,23.29,59.29,24.31,21.49.97,44.52-10.01,65.22,10.09Z"/>
  <path class="cls-1" d="M300.62,95.3c42.91,0,85.82-.03,128.73,0,24.1.02,38.75,13.53,38.84,37.37.31,86.8.28,173.6.06,260.4-.05,20.03-15.18,35.05-35.23,35.11-87.28.23-174.57.29-261.85.03-21.6-.06-35.8-15.46-35.82-37.48-.07-86.31-.07-172.63,0-258.94.02-21.45,15.08-36.43,36.53-36.47,42.91-.09,85.82-.03,128.73-.03ZM419.85,262.57c0-32.69.07-65.38-.03-98.07-.05-16.98-4.93-21.98-21.34-22-64.4-.06-128.8-.07-193.2,0-16.76.02-22.74,6.06-22.76,22.78-.05,64.4-.07,128.81-.03,193.21,0,15.74,5.09,21.21,20.61,21.25,65.86.15,131.73-.08,197.59.2,13.69.06,19.42-5.62,19.26-19.29-.39-32.69-.12-65.38-.11-98.07Z"/>
  <path class="cls-1" d="M1891.75,262.13c0,42.43.04,84.85-.01,127.28-.03,24.45-14.56,39.04-38.79,39.02-84.36-.05-168.72-.12-253.08-.22-27.63-.03-41.1-13.53-41.11-41.2-.03-83.88-.03-167.76-.02-251.64,0-26.29,13.99-40.07,40.64-40.08,84.36-.01,168.72-.02,253.09,0,25.27,0,39.27,14.11,39.29,39.55.02,42.43,0,84.85,0,127.28ZM1844.63,263.38h-.08c0-32.2,0-64.4,0-96.61,0-18.58-5.56-24.24-24.19-24.26-63.91-.07-127.82-.09-191.74-.11-15.67,0-21.25,5.1-21.29,20.62-.17,65.87.03,131.74-.25,197.6-.06,13.66,5.69,19.3,19.34,19.25,65.86-.26,131.73-.04,197.59-.15,15.56-.03,20.6-5.46,20.61-21.2.03-31.71,0-63.43,0-95.14Z"/>
  <path class="cls-1" d="M301.3,1851.83c-42.91,0-85.82.05-128.73-.02-22.52-.04-37.2-14.72-37.21-37.26-.06-85.83-.05-171.65,0-257.48.01-23.61,14.3-38.22,38.06-38.26,85.82-.11,171.64-.05,257.46.12,22.85.04,37.37,14.65,37.4,37.4.12,85.34.16,170.68.07,256.02-.03,25.67-14.15,39.47-39.77,39.49-42.42.03-84.85,0-127.27,0ZM419.83,1686.47h-.07c0-33.17.1-66.35-.04-99.52-.07-16.06-3.72-19.58-20.09-19.61-64.88-.1-129.76-.14-194.63-.1-17.48.01-22.47,5.12-22.48,22.48-.03,63.42-.04,126.84,0,190.26,0,19.51,5.24,24.6,25.29,24.62,63.41.06,126.83.06,190.24.08,16.55,0,21.69-4.94,21.76-21.61.13-32.2.04-64.39.04-96.59Z"/>
  <path class="cls-1" d="M638.7,1281.52c-18.81-.02-19.58-.74-19.53-18.2.06-18.23,1.73-18.98,20.28-19.96,14.99-.79,18.3,6.03,17.78,19.24-.74,18.9-.19,18.95-18.54,18.93Z"/>
  <path class="cls-1" d="M1113.89,1281.53c-18.92.13-18.18.09-19.28-19.64-.79-14.16,4.19-19.27,18.35-18.57,17.54.87,19.77,2.2,19.84,19.09.08,17.96-.94,18.99-18.91,19.12Z"/>
  <path class="cls-1" d="M419.71,649.66c3.15,14.94-6.76,16.51-19.74,16-16.36-.64-17.46-2.67-18.48-21.66-.94-17.61,9.76-16.73,21.5-16.48,16.74.36,16.86.32,16.72,22.15Z"/>
  <path class="cls-1" d="M1321.33,1073.98c0,18.35-.48,18.82-19.01,18.85-16.91.03-18.03-2-19.04-19.78-.81-14.17,4.2-19.16,18.41-18.41,19.6,1.03,19.64.28,19.64,19.34Z"/>
  <path class="cls-1" d="M1347.47,332.47c-15.52,3.8-15.87-7.14-15.49-19.72.54-17.7.83-18.31,19.4-18.25,17.55.06,18.69,1.34,18.62,20.92-.06,16.53-.8,17.14-22.52,17.04Z"/>
  <path class="cls-1" d="M210.42,1054.8c19.82.17,19.88,1.09,20.68,19.57.61,14.26-4.99,19.13-18.78,18.49-18.93-.88-18.26-.89-19.51-21.77-1-16.65,8.04-17.26,17.61-16.29Z"/>
  <path class="cls-1" d="M1255.99,616.47c-14.36,2.79-20.88-1.9-19.99-17.45,1.09-19.25.88-19,21.24-20.18,15.55-.9,16.91,7.05,17.31,19.41.46,14.19-3.19,21.8-18.56,18.22Z"/>
  <path class="cls-1" d="M372.49,598.63q-.02,18.42-19.08,18.42c-18.27-.03-18.92-.69-18.89-19.02.02-16.98,2.08-18.98,19.59-19.01,17.47-.03,18.4.96,18.38,19.6Z"/>
  <path class="cls-1" d="M925.44,379.63q-20.76-.15-20.55-19.93c.18-17.19,1.2-18.1,19.84-17.9,17.47.19,17.29,1.1,18.35,21.37.83,15.82-7.13,18.09-17.64,16.46Z"/>
  <path class="cls-1" d="M1254.95,142.45c-18.21-.15-18.94-.95-18.73-20.69.17-15.75,2.32-16.79,21.09-17.64,15.51-.7,17.62,7.49,17.09,20.05-.77,18.07-.7,18.43-19.45,18.28Z"/>
  <path class="cls-1" d="M419.66,601.68c3.25,14.43-6.26,15.9-18.78,15.45-18.3-.65-19.1-1.02-19.06-19.07.04-18.01,1.27-19.13,20.79-18.97,16.32.13,17.16,1.16,17.04,22.59Z"/>
  <path class="cls-1" d="M1094.84,406.5c-2.63-12.66,3.62-17.16,17.86-16.3,19.66,1.19,20.08.74,20.02,19.61-.05,16.57-2.32,18.69-19.91,18.57-17.04-.11-18.07-1.26-17.97-21.89Z"/>
  <path class="cls-1" d="M656.89,881.26c.02,20.7-.81,21.56-18.58,21.56-17.91,0-19.26-1.35-19.24-19.11.02-18.03.81-18.12,19.14-19,14.15-.67,22.19,2.82,18.68,16.55Z"/>
  <path class="cls-1" d="M683.08,1234.22c-15.23,3.99-15.94-6.61-15.55-19.43.56-18.35.37-18.57,19.04-18.54,17.81.03,18.97,1.19,18.94,19.08-.03,18.44-.55,18.93-22.43,18.88Z"/>
  <path class="cls-1" d="M904.89,315.97c-.06-20.59.65-21.35,18.07-21.45,17.96-.1,19.83,1.6,19.96,18.21.15,18.55-1.05,19.02-19.45,19.98-14.25.74-21.75-3.13-18.58-16.73Z"/>
  <path class="cls-1" d="M657,1217.81c2.22,11.44-2.27,17.49-17.14,16.7-20.15-1.07-20.82-.78-20.89-20-.06-16.36,2.01-18.25,19.98-18.21,17.19.04,18,.92,18.05,21.51Z"/>
  <path class="cls-1" d="M1084.2,316.94c3.7,14.73-6.17,16.19-19.31,15.7-17.96-.67-18.68-.87-18.64-19.1.04-17.28,2.09-19.17,20.59-19.05,16.68.11,17.41.97,17.36,22.45Z"/>
  <path class="cls-1" d="M828.19,627.63q18.77-.03,18.77,18.64c0,18.41-.79,19.2-18.79,19.22-17.88.02-19.13-1.24-19.12-19.26,0-18.11.49-18.58,19.15-18.61Z"/>
  <path class="cls-1" d="M923.23,665.5c-17.55-.03-18.32-.86-18.31-19.64q0-18.16,19.2-18.15c18.21.01,18.8.62,18.73,19.14-.07,17.22-1.6,18.67-19.62,18.64Z"/>
  <path class="cls-1" d="M1806.61,647.48c.02-19.8.24-19.1,20.72-20.13,15.48-.78,17.91,6.73,17.35,19.59-.75,17.31-1.79,17.99-21.36,18.91-15.66.73-18.16-7.55-16.71-18.37Z"/>
  <path class="cls-1" d="M1558.68,881.66c-.08,20.21-1.14,20.62-20.29,21.33-13.58.51-18.12-5.27-17.69-18.18.63-19.09,1.02-19.12,19.56-20.1,14.62-.77,21.53,3.68,18.43,16.95Z"/>
  <path class="cls-1" d="M1569.37,880.38c-3.17-14.29,6.04-16.09,18.73-15.63,18.52.67,19.14.85,19.15,20.42,0,16.68-1.18,17.69-20.6,17.61-16.28-.07-17.37-1.38-17.28-22.39Z"/>
  <path class="cls-1" d="M656.47,1027.23c4.57,16.69-5.97,17.55-18.82,17.14-17.8-.57-18.59-1.04-18.54-20.79.04-16.25,1.54-16.53,20.65-17.6,16.5-.93,19.01,7.41,16.72,21.26Z"/>
  <path class="cls-1" d="M1332.12,787.94c0-18.29.6-18.87,18.94-18.89,17.78-.01,18.08,1.15,19.16,19.36.83,14.02-3.94,19.43-18.14,18.87-19.53-.77-19.97-.54-19.96-19.34Z"/>
  <path class="cls-1" d="M401.18,1044.26c-18.96-.03-19.37-.45-19.29-19.68.07-16.69,1.79-18.29,19.76-18.34,17.26-.05,18.06.82,18.03,19.56q-.03,18.49-18.49,18.45Z"/>
  <path class="cls-1" d="M1511.47,1308.75c.03,20.69-.73,21.43-20.05,21.39-16.35-.03-18.03-1.96-17.99-20.53.04-16.25,1.62-16.88,20.45-17.77,14.4-.68,20.05,4.77,17.58,16.91Z"/>
  <path class="cls-1" d="M1569.26,1309.31c.2-17.23.24-16.33,21.72-17.36,16.6-.8,16.22,8.72,16.47,20.43.28,13.12-4.37,18.54-17.98,17.81-19.72-1.06-20.43-1.15-20.21-20.88Z"/>
  <path class="cls-1" d="M705.51,1357.33c.03,18.35-1.44,19.97-18.25,20.04-18.86.08-18.76-.71-19.86-19.82-.81-14.12,3.75-19.19,18.09-18.41,19.19,1.04,19.99.89,20.02,18.19Z"/>
  <path class="cls-1" d="M1332.21,1454.78c-.08-20.4.75-21.28,18.1-21.28,18.15,0,19.83,1.56,19.83,18.25,0,18.83-.89,19-19.43,19.96-14.3.74-21.68-3.3-18.51-16.93Z"/>
  <path class="cls-1" d="M1569.41,1452.62c-.09-18.33.6-18.45,18.77-19.23,13.25-.57,19.96,2.97,19.25,17.84-.94,19.62-.78,20.29-19.42,20.3-18.2.01-18.51-.3-18.6-18.9Z"/>
  <path class="cls-1" d="M1132.57,1500.27c-.2,18.01-1.21,17.77-22.33,18.89-17.49.93-14.84-9.77-15.61-20.65-1.05-14.79,5.63-18.61,19.1-17.88,17.03.92,19.04,2.33,18.84,19.65Z"/>
  <path class="cls-1" d="M1084.11,173.26c1.89,11.33-1.45,18.65-16.96,17.84-20.07-1.06-20.87-.89-20.94-19.02-.07-17.9.97-18.94,18.99-19.03,18.42-.09,18.82.3,18.91,20.21Z"/>
  <path class="cls-1" d="M1417.3,1547.56c.05,18.79-.82,19.71-18.45,19.73-18.41.02-19.39-.92-19.45-18.52-.06-19.06.45-19.57,19.52-19.53,16.72.04,18.34,1.65,18.38,18.32Z"/>
  <path class="cls-1" d="M1495.42,1529.42c13.74-3.09,16.73,5,16.23,18.28-.68,18.21-1.31,19.54-18.69,19.63-17.69.09-19.49-1.65-19.49-18.85,0-18.38.62-18.97,21.95-19.06Z"/>
  <path class="cls-1" d="M1142.19,1263.55c.14-19.22,1.28-20.19,21.25-19.97,14.96.17,16.86,2.62,16.73,21.56-.1,15.07-2.28,15.93-21.68,16.67-15.73.6-18.23-7.43-16.3-18.26Z"/>
  <path class="cls-1" d="M904.91,600.27c0-20.34.81-21.18,18.62-21.17,17.91.01,19.25,1.33,19.29,19.04.05,18.4-.55,18.11-20.46,19.17-14.78.79-19.76-5.06-17.46-17.05Z"/>
  <path class="cls-1" d="M1332.16,1691.67c.11-19.97,1.19-21.07,18.84-21,18.1.07,18.62,1.52,19.31,22.35.56,16.84-10.14,15.06-21.19,15.97-15.2,1.25-19.38-5.6-16.97-17.31Z"/>
  <path class="cls-1" d="M684.76,1804.56c-12.18,2.27-18.02-3.09-17.38-17.63.9-20.27.26-20.3,18.81-20.28,18.35.01,19.3.94,19.3,18.76,0,18.22-.94,19.16-20.73,19.16Z"/>
  <path class="cls-1" d="M1019.81,153.2c10.22-1.35,18.62.22,17.41,15.71-.9,11.5,1.27,22.83-16.3,22.34-19.26-.53-21.78-1.9-21.89-18.12-.13-19.13.41-19.69,20.78-19.93Z"/>
  <path class="cls-1" d="M1209.64,153.13c17.59.39,17.94.82,17.52,21.41-.31,15.02-3.06,17.1-21.78,16.52-14.87-.46-16.69-3.13-16.12-23.65.38-13.54,2.01-14.68,20.38-14.27Z"/>
  <path class="cls-1" d="M1274.18,170.08c-.06,19.59-1.43,20.95-19.13,20.87-17.09-.08-18.86-1.92-18.76-19.53.1-17.57.88-17.49,19.49-18.43,14.65-.74,21.55,3.76,18.4,17.09Z"/>
  <path class="cls-1" d="M1301.94,153.23c19.81.25,19.02.28,19.72,22.31.5,15.8-8.79,15.72-19.78,15.47-16.36-.37-17.95-2.89-18.76-21.69-.7-16.07,8.21-17.64,18.83-16.09Z"/>
  <path class="cls-1" d="M1891.75,789.05c-.05,17.08-1.1,18.02-19.86,17.93-17.6-.08-18.2-.73-18.13-19.54.07-17.04,1.64-18.51,19.74-18.43,16.8.07,18.31,1.73,18.25,20.05Z"/>
  <path class="cls-1" d="M524.71,218.2c.09-17.34.71-17.9,19.87-17.82,17.59.07,18.11.63,18.07,19.65-.03,16.85-1.81,18.48-19.92,18.35-16.96-.12-18.11-1.41-18.01-20.18Z"/>
  <path class="cls-1" d="M686.15,200.37c18.29.01,19.47,1.15,19.46,18.71-.01,17.35-1.89,19.22-19.26,19.23-18.14,0-18.83-.69-18.77-19.07q.07-18.88,18.56-18.87Z"/>
  <path class="cls-1" d="M1663.59,1072.82c.1-17.54.8-17.13,21.24-18.24,15.96-.87,16.82,7.41,17.02,19.72.22,13.65-4.01,19.57-18.46,18.67-18.7-1.16-19.91-1.61-19.8-20.14Z"/>
  <path class="cls-1" d="M1633.91,1054.93c20.27.13,20.77.66,20.63,20.18-.12,16.58-1.81,17.22-21.93,17.85-16.27.51-15.65-9.26-16.35-20.82-.91-15.09,5.85-19.26,17.65-17.22Z"/>
  <path class="cls-1" d="M1558.72,1071.22c-.26,21.24-1.07,21.43-22.5,21.67-15.27.17-15.7-9.06-15.38-20.24.49-17.13,1.28-17.17,21.67-18.1,14.51-.66,18.27,5.7,16.22,16.67Z"/>
  <path class="cls-1" d="M1511.48,1073.94c-.05,18.02-1.13,19-20.76,18.86-15.86-.11-17.47-2.05-17.34-20.97.11-15.97,1.57-17.15,21.05-17.04,16.36.09,17.1.93,17.05,19.15Z"/>
  <path class="cls-1" d="M1227.15,219.37c.03,17.88-1.04,18.94-19.23,18.93-17.18,0-17.88-1.62-18.97-19.47-.86-14,3.78-19.35,18.02-18.7,19.67.9,20.15.65,20.18,19.24Z"/>
  <path class="cls-1" d="M1274.24,219.62c0,17.83-1.14,18.16-20.78,18.97-15.23.62-17.12-7.36-17.55-19.91-.49-14.21,4.72-19.15,18.66-18.58,19.38.79,19.68.42,19.67,19.53Z"/>
  <path class="cls-1" d="M1332.09,220.39c.08-19.84.39-19.63,19.14-20.22,13.22-.42,19.89,3.09,18.88,18.1-1.26,18.71-1.94,19.49-21.45,20.33-15.69.68-18.29-7.38-16.57-18.22Z"/>
  <path class="cls-1" d="M1464.35,217.4c-.02,19.3-1.73,21.01-19.05,20.95-17.28-.07-18.88-1.7-18.91-19.33-.02-18.06.76-18.05,20.57-18.88,14.56-.61,19.77,5.22,17.38,17.26Z"/>
  <path class="cls-1" d="M1464.37,1072.35c-.09,19.16-1.93,20.14-22.85,20.68-17.05.44-14.22-11.11-15.33-21.73-1.9-18.14,10.03-15.85,21.44-16.65,15.44-1.09,18.65,6.8,16.74,17.7Z"/>
  <path class="cls-1" d="M657.01,265.51c-.31,19.91-.61,20.17-20.95,19.94-14.99-.18-16.67-3.33-17.35-21.38-.65-17.29,10.03-16.16,21.89-16.84,15.86-.91,18.17,7.47,16.41,18.28Z"/>
  <path class="cls-1" d="M731.97,247.5c19.92,0,20.87.95,20.89,18.91.02,17.83-1.17,19.01-19.2,19.02-18.6.01-18.15-.32-19.04-20.38-.64-14.62,5.16-19.86,17.35-17.56Z"/>
  <path class="cls-1" d="M1558.71,1218.3c2.59,12.52-3.76,16.7-17.08,16.2-19.8-.75-20.72-.93-20.74-18.94-.02-17.66,1.52-19.22,19.1-19.3,18.01-.08,18.68.65,18.72,22.05Z"/>
  <path class="cls-1" d="M904.85,267.91c.16-20.22.51-20.56,19.24-20.44,17.6.11,18.99,1.55,18.84,19.52-.15,17.28-1.77,17.72-21.34,18.75-15.89.84-18.27-7.22-16.73-17.83Z"/>
  <path class="cls-1" d="M1494.29,1234.3c-20.24-.21-20.94-.98-20.79-20.69.12-16.21,1.65-17.47,20.96-17.34,16.35.11,16.28,1.12,17.23,20.98.73,15.23-6,19.19-17.4,17.05Z"/>
  <path class="cls-1" d="M1142.18,266.22c.05-18.35.44-18.73,18.88-18.73,17.48,0,19.15,1.7,19.01,19.32-.14,17.07-1.82,18.67-19.54,18.65-18.02-.02-18.4-.43-18.35-19.24Z"/>
  <path class="cls-1" d="M1257.32,247.46c12-2.28,17.7,3.11,17.09,17.59-.84,19.89-.58,20.38-18.95,20.38-18.19,0-19.23-1.03-19.25-18.92-.01-17.55,1.46-19.01,21.1-19.04Z"/>
  <path class="cls-1" d="M1349.41,285.49c-11.1,1.93-18.31-1.47-17.57-16.94.97-20.53.45-20.55,18.28-21.19,12.37-.45,20.89,1.24,20.17,16.97-.9,19.66-1.36,21.03-20.88,21.16Z"/>
  <path class="cls-1" d="M1379.34,264.26c-2.17-12.22,3.28-17.75,17.77-17.03,19.41.96,19.6.97,20.42,19.69.6,13.83-4.3,19.36-18.45,18.77-18.9-.8-19.67-.86-19.74-21.43Z"/>
  <path class="cls-1" d="M1399.32,1054.84c17.07.07,17.92,1,17.92,19.93,0,16.63-1.82,17.3-21.63,18.21-16.35.75-16.65-8.75-16.36-20.49.42-16.98.96-17.72,20.06-17.64Z"/>
  <path class="cls-1" d="M1352.69,1196.33c13.01-2.22,18.08,4.38,17.63,18.21-.59,18.25-1.49,19.75-18.66,19.75-19.46,0-19.63-.17-19.62-19.42,0-17.62.98-18.55,20.65-18.55Z"/>
  <path class="cls-1" d="M685.75,332.54c-18.19-.01-17.55-.17-18.45-20.3-.64-14.45,5.22-18.55,18.8-17.89,18.36.89,19.56,1.3,19.48,18.67-.09,18.62-1.03,19.54-19.83,19.53Z"/>
  <path class="cls-1" d="M734.27,294.54c17.26.06,18.54,1.4,18.53,19.46-.02,18.16-.52,17.51-20.48,18.8-16.3,1.05-18.32-6.78-17.64-20,.9-17.57,1.07-18.32,19.6-18.26Z"/>
  <path class="cls-1" d="M846.96,314.91c-.07,17.43-.36,17.69-19.87,17.56-17.1-.11-18.12-1.23-18.13-19.94,0-16.7,1.6-18.12,20.34-18.02,16.97.1,17.73.98,17.66,20.39Z"/>
  <path class="cls-1" d="M1157.73,332.48c-13.82,2.94-16.36-5.46-15.79-18.59.81-18.69.97-18.63,20.34-19.58,14.82-.72,18.54,6.06,18.05,19.24-.67,17.83-1.38,18.93-22.59,18.93Z"/>
  <path class="cls-1" d="M1206.47,332.46c-11.9,2.2-18.3-2.21-17.56-17.22.94-18.97,1.43-20.58,17.82-20.71,18.46-.14,20.4,1.55,20.45,17.92q.05,19.82-20.71,20Z"/>
  <path class="cls-1" d="M1417.31,312.85c-.19,19.43-.86,18.95-22.69,19.94-17.65.81-15.44-10.2-15.28-20.99.24-16.47,1.56-16.83,20.83-17.54,15.32-.56,18.59,7.2,17.13,18.58Z"/>
  <path class="cls-1" d="M1491.05,332.49c-11.93,2.04-18.47-2.73-17.86-17.43.76-18.32,2-20.49,18.12-20.57,19.12-.08,20.04.8,20.12,19.42q.08,18.53-20.38,18.58Z"/>
  <path class="cls-1" d="M780.8,379.29c-14.67,2.98-20.1-2.85-19.19-17.85,1.12-18.4,1.48-19.66,20.07-19.61,17.19.05,17.44,1.25,18.47,19.73.84,15.04-4.84,20.7-19.34,17.73Z"/>
  <path class="cls-1" d="M846.94,361.7c-.02,17.97-.12,17.36-19.32,18.21-13.61.6-19.75-3.28-18.91-18.01,1.07-18.71,1.56-20.06,20.07-19.99,17.63.06,18.17.65,18.15,19.8Z"/>
  <path class="cls-1" d="M1111.31,379.67c-12.42,2.77-17.73-2.85-16.74-17.25.76-11.11-.78-21.48,15.78-20.96,20.1.63,22.26,1.74,22.34,18.99.09,18.79-.24,19.11-21.38,19.22Z"/>
  <path class="cls-1" d="M1227.14,362.65c-.08,16.66-.99,16.56-21.54,17.52-15.75.74-17.05-7.6-16.54-19.82.7-16.81,2.15-18.67,19.59-18.63,17.56.04,18.58,1.19,18.49,20.92Z"/>
  <path class="cls-1" d="M1253.52,379.67c-12.51,2.41-18.17-3.08-17.5-17.6.85-18.23,2.02-20.4,18.26-20.44,17.95-.05,19.82,1.68,19.92,18.42q.11,19.46-20.69,19.62Z"/>
  <path class="cls-1" d="M667.61,1070.32c-3.05-13.81,5.6-16.18,18.56-15.68,18.21.7,19.49,1.38,19.44,18.8-.05,17.93-1.43,19.33-19.02,19.33-18,0-19.02-1.11-18.97-22.44Z"/>
  <path class="cls-1" d="M1417.32,363.68c2.38,11.85-3.05,16.8-16.71,16.27-21.25-.84-21.28-.19-21.29-19,0-17.37,1.78-19.19,18.85-19.26,17.96-.07,19.13,1.18,19.15,22Z"/>
  <path class="cls-1" d="M543.81,390.45c18.4.02,18.83.45,18.82,18.85,0,17.53-1.56,19.06-19.21,18.99-17.23-.07-18.75-1.65-18.73-19.49.02-18.18.22-18.37,19.12-18.35Z"/>
  <path class="cls-1" d="M641.84,390.4c15.84-3.91,15.61,7.62,15.27,20.02-.47,17.32-1.01,17.34-19.99,18.09-14.45.58-18.74-5.66-18.15-19.12.78-18.07,1.31-19.09,22.88-18.99Z"/>
  <path class="cls-1" d="M752.82,409.98c-.06,16.86-1.7,18.35-20.03,18.29-17.27-.06-17.98-.86-17.94-20.05.03-17.68.45-18.06,19.54-17.91,17.33.13,18.51,1.38,18.44,19.68Z"/>
  <path class="cls-1" d="M846.98,407.55c-.08,20.12-.84,20.86-19.31,20.74-17.63-.11-18.76-1.31-18.67-19.66.08-17.86.73-17.49,21.22-18.55,15.59-.81,18.78,6.46,16.76,17.46Z"/>
  <path class="cls-1" d="M925.34,390.39c11.94-2.28,18.3,2.49,17.74,17.28-.72,19.2-1.33,20.05-19.37,20.84-13.37.59-19.74-3.31-19.08-18,.89-19.91.15-19.97,20.71-20.12Z"/>
  <path class="cls-1" d="M1021.03,390.49c15.58-3.52,16.61,6.91,16.12,19.79-.63,16.67-1.66,17.96-20.26,17.9-17.07-.06-17.93-1.05-17.82-20.38.1-17.11.54-17.49,21.96-17.31Z"/>
  <path class="cls-1" d="M1226.87,409.21c2.16,14.13-3.28,20.03-17.53,19.33-19.15-.93-20.21-1.42-20.11-20.9.08-17.2.27-16.57,21.43-17.53,15.4-.7,18.51,6.7,16.22,19.09Z"/>
  <path class="cls-1" d="M1321.47,407.4c0,19.9-1.27,20.29-20.7,21.15-15.38.68-17.72-7.32-17.29-19.89.61-17.75.86-17.26,21.24-18.55,15.9-1,18.44,6.65,16.75,17.28Z"/>
  <path class="cls-1" d="M1396.15,390.49c21,.1,21.23.32,21.17,19.31-.05,17.2-1.6,18.67-19.47,18.59-17.33-.08-17.76-1.54-18.75-20.83-.76-14.72,4.99-19.63,17.05-17.07Z"/>
  <path class="cls-1" d="M1511.4,407.63c-.06,19.84-1.16,20.24-20.79,20.88-15.02.49-17.86-7.18-17.31-20,.76-17.79.59-17.06,21.34-18.3,15.87-.95,18.51,6.62,16.77,17.41Z"/>
  <path class="cls-1" d="M609.71,456.32c-.02,18.61-.69,19.3-18.72,19.3-17.94,0-19.19-1.26-19.23-19.17-.04-18.24.54-18.81,19.14-18.83q18.84-.02,18.82,18.69Z"/>
  <path class="cls-1" d="M641.58,437.64c14.22-3.06,16.14,5.9,15.6,18.77-.78,18.69-.85,19.29-20.46,19.14-16.65-.12-17.87-1.54-17.67-20.62.17-16.63,1.1-17.4,22.53-17.29Z"/>
  <path class="cls-1" d="M609.74,1071.84c-.08,20.17-1.02,21.06-20.5,20.93-16.33-.11-17.5-1.5-17.42-20.81.07-16.44,1.12-16.44,20.62-17.41,15.01-.75,19.4,5.66,17.3,17.29Z"/>
  <path class="cls-1" d="M496.42,1054.91c18.3-.02,19.05.71,19.11,18.68.06,17.64-1.4,19.12-19.01,19.16-17.78.03-18.8-1-18.83-19.13q-.03-18.65,18.73-18.71Z"/>
  <path class="cls-1" d="M430.38,1070.86c-3.26-13.87,4.84-16.7,18.17-16.12,19,.82,19.12.89,20.01,19.83.67,14.19-5.24,19.01-18.93,18.45-18.43-.74-19.22-.98-19.25-22.16Z"/>
  <path class="cls-1" d="M372.54,1075.42c2.34,12.72-3.84,18.01-17.89,17.61-18.03-.51-19.49-1.66-20.22-18.52-.53-12.42.96-20.68,16.9-19.89,20.95,1.03,20.99.13,21.2,20.8Z"/>
  <path class="cls-1" d="M1113.89,437.64c18.09.01,18.32.85,19,19.2.5,13.51-3.67,19.7-18.27,18.95-19.24-.99-19.84-.79-19.79-19.71.05-18.28.22-18.45,19.06-18.43Z"/>
  <path class="cls-1" d="M287.54,1070.85c-3.01-13.86,5.49-16.66,18.5-16.23,18.93.62,18.75.76,19.66,19.81.68,14.31-4.92,19.03-18.73,18.4-18.48-.84-19.51-1.26-19.42-21.98Z"/>
  <path class="cls-1" d="M1321.43,454.99c-.06,19.76-.98,20.63-19.43,20.59-17.01-.04-18.59-1.74-18.51-19.86.08-17.15,1.16-17.11,20.01-18.32,15.76-1.01,20.28,5.59,17.93,17.59Z"/>
  <path class="cls-1" d="M495.2,1234.21c-17.54-.08-17.66-.22-17.6-19.91.05-17.19,1.1-18.13,19.9-18.01,16.74.11,18.22,1.76,18.05,20.26-.16,17.13-.87,17.75-20.35,17.66Z"/>
  <path class="cls-1" d="M182.54,503.64c0,18.57-.44,19.02-18.66,18.98-18.18-.04-19.28-1.11-19.3-18.82-.02-17.87,1.22-19.1,19.08-19.06,18.4.03,18.89.52,18.89,18.91Z"/>
  <path class="cls-1" d="M419.28,1216.76c4.16,16.13-5.23,18.17-18.61,17.63-18.23-.75-18.99-1.03-18.92-20.46.06-16.33,1.73-16.77,20.46-17.94,16.26-1.02,19.42,6.82,17.08,20.78Z"/>
  <path class="cls-1" d="M353.82,484.7c18.56.01,18.69.15,18.67,18.96-.02,18.73-.23,18.94-18.73,18.96-18.16.02-19.26-1.05-19.26-18.95,0-17.78,1.22-18.98,19.32-18.97Z"/>
  <path class="cls-1" d="M419.3,503.95c3.15,14.95-3.31,19.81-18.04,18.94-18.44-1.08-19.51-1.32-19.44-20.23.06-17.03,1.15-17.04,19.88-18.22,15.44-.98,20.39,5.22,17.59,19.51Z"/>
  <path class="cls-1" d="M446.15,522.63c-14.68,3.76-16.38-6.07-15.95-19.22.6-18.35.5-18.7,18.81-18.71,18.1,0,19.33,1.17,19.31,18.49-.02,18.53-.99,19.47-22.18,19.44Z"/>
  <path class="cls-1" d="M495.64,484.69c18.41-.05,19.94,1.34,20.03,18.24.09,18.32-1.17,19.66-18.5,19.72-18.64.07-19.44-.68-19.51-18.25-.07-18.95.58-19.67,17.98-19.72Z"/>
  <path class="cls-1" d="M1729.96,1187.2c-17.7-.06-19.36-1.69-19.35-18.92,0-17.55,1.73-18.13,20.72-19.29,15.36-.93,18.04,6.26,17.53,19.21-.71,18.34-.88,19.07-18.9,19Z"/>
  <path class="cls-1" d="M609.69,503.86c-.04,18.15-.73,18.83-19.07,18.81-17.68-.03-18.93-1.31-18.9-19.35.03-17.2,1.54-18.62,19.59-18.62,18.17,0,18.41.26,18.37,19.15Z"/>
  <path class="cls-1" d="M733.45,522.62c-18.41,0-18.65-.26-18.64-19.09,0-18.32.53-18.84,18.96-18.82,18.04.02,19.08,1.06,19.06,19.11-.02,17.69-1.18,18.81-19.39,18.8Z"/>
  <path class="cls-1" d="M1084.19,504.76c-.07,17.53-.59,18-19.72,17.89-16.99-.1-18.36-1.6-18.26-20.05.09-16.86,1.36-17.98,20.41-17.9,17.33.07,17.65.44,17.58,20.06Z"/>
  <path class="cls-1" d="M1142.11,500.88c-2.47-13.23,4.7-17.11,18.42-16.39,17.91.94,19.5,1.71,19.53,18.9.04,18.08-1.06,19.2-18.89,19.24-18.55.04-19.06-.51-19.06-21.74Z"/>
  <path class="cls-1" d="M1511.41,1168.59c-.05,18.11-.68,18.72-19.13,18.62-17.58-.1-18.95-1.5-18.88-19.45.07-17.04,1.61-18.5,19.7-18.48,18.05.01,18.35.34,18.3,19.31Z"/>
  <path class="cls-1" d="M1332.06,502.8c.07-17.88.35-18.13,19.47-18.08,17.29.04,18.57,1.41,18.48,19.71-.08,17.05-1.43,18.28-20.08,18.2-17.37-.07-17.94-.71-17.86-19.83Z"/>
  <path class="cls-1" d="M1871.2,1044.18c-17.36-.17-16.92-.66-17.7-21.57-.61-16.44,9.17-16.69,20.74-16.42,16.09.37,16.76,2.45,17.81,22.33.92,17.42-9.83,15.92-20.86,15.65Z"/>
  <path class="cls-1" d="M1352.83,1149.24c12.16-1.89,18.1,3.49,17.5,17.77-.8,19.02-1.51,19.23-20.86,20.52-16.54,1.1-18.04-7.4-17.55-20.26.67-17.56.74-18.1,20.92-18.03Z"/>
  <path class="cls-1" d="M1493.92,484.69c16.89.06,17.63.91,17.53,20.22-.09,17.37-.61,17.83-20,17.7-16.97-.11-18.14-1.42-18-20.18.13-16.7,1.4-17.8,20.47-17.73Z"/>
  <path class="cls-1" d="M1558.74,502.65c-.11,19.73-.54,20.12-19.71,20-16.86-.11-18.41-1.82-18.29-20.09.11-17.15,1.26-17.14,21.8-18.14,16.48-.8,17.31,8.37,16.2,18.23Z"/>
  <path class="cls-1" d="M639.19,1149.25c17.58.04,17.14.6,18.13,22.44.7,15.47-7.72,15.93-19.08,15.61-17.81-.5-19.24-1.64-19.25-20.27,0-16.1,1.95-17.83,20.19-17.78Z"/>
  <path class="cls-1" d="M468.21,1169.09c-.13,17.2-1.4,17.07-21.07,18.43-17.54,1.22-16.26-8.8-17.08-20.79-1.11-16.22,6.92-18.37,20.17-17.67,16.8.89,18.11,1.69,17.97,20.02Z"/>
  <path class="cls-1" d="M1701.49,1025.06c.08,18.77-.16,19.03-18.34,19.16-18.83.14-19.53-.5-19.59-18.12-.07-18.33,1.23-19.71,18.52-19.78,18.48-.07,19.34.76,19.41,18.73Z"/>
  <path class="cls-1" d="M419.63,1168.97c-.14,18.35-.17,17.61-20.27,18.47-14.76.63-18.28-6.21-17.75-19.22.72-17.83,1.76-19.15,22.1-18.96,15.68.15,16.08.64,15.93,19.72Z"/>
  <path class="cls-1" d="M303.76,569.71c-13.17,2.52-17.12-4.58-16.43-18.29.9-17.81,1.99-19.75,18.77-19.72,17.71.03,19.34,1.62,19.38,18.92.04,18.72-.29,19.03-21.71,19.09Z"/>
  <path class="cls-1" d="M419.78,552.66c1.98,11.04-1.2,18.24-16.85,17.33-20.11-1.17-21.06-.99-21.09-18.76-.03-18.1,1.26-19.43,18.92-19.49,18.33-.06,18.96.56,19.03,20.92Z"/>
  <path class="cls-1" d="M1616.52,1025.06c.06-17.5,1.37-18.75,19.48-18.79,16.59-.03,18.62,2.14,18.54,19.89-.07,17.25-1.01,18.11-19.7,18.1-17.75,0-18.38-.67-18.32-19.2Z"/>
  <path class="cls-1" d="M543.32,1044.2q-18.61-.05-18.63-18.94c.02-17.71,1.37-19.03,19.41-19,17.15.04,18.58,1.55,18.59,19.69,0,17.99-.32,18.29-19.37,18.24Z"/>
  <path class="cls-1" d="M354.87,864.89c17.56.1,17.77.34,17.66,19.82-.1,17.07-1.47,18.32-20,18.18-16.9-.13-18.15-1.55-17.97-20.38.16-17.03.97-17.73,20.31-17.62Z"/>
  <path class="cls-1" d="M430.43,879.71c-3.63-15.74,8.07-15.25,20.24-14.92,16.84.45,17.74,1.26,17.58,20.32-.14,15.89-2.5,17.9-20.74,17.66-16.32-.21-17.28-1.39-17.08-23.06Z"/>
  <path class="cls-1" d="M1321.42,554.08c3.72,14.65-5.91,16.31-19.19,15.74-17.98-.78-18.67-.91-18.67-19.1,0-17.75,1.19-18.94,18.99-18.93,18.56,0,18.91.38,18.87,22.3Z"/>
  <path class="cls-1" d="M1347.03,569.71c-16.15,3.51-15.39-8.27-15.1-20.27.42-17.05,1.04-17.81,19.96-17.7,17.03.1,18.26,1.44,18.16,19.89-.09,17.44-1.08,18.28-23.03,18.09Z"/>
  <path class="cls-1" d="M562.63,884.08c-.02,17.64-1.23,18.79-19.5,18.76-17.16-.03-18.4-1.37-18.39-19.79.01-17.98.22-18.18,19.41-18.14,18.11.03,18.51.44,18.48,19.17Z"/>
  <path class="cls-1" d="M1584.82,569.7c-14.15,3.1-16.17-5.82-15.67-18.66.73-18.61.94-18.6,20.37-19.5,14.72-.68,18.54,5.93,17.97,19.26-.78,17.95-1.28,18.95-22.67,18.89Z"/>
  <path class="cls-1" d="M258.36,1187.23c-17.06,0-17.26-.99-18.15-19.85-.65-13.86,3.86-19.3,18.3-18.42,18.55,1.13,19.86,1.53,19.8,20.08-.05,16.82-1.56,18.2-19.95,18.2Z"/>
  <path class="cls-1" d="M419.71,981.25c3.15,14.04-5.33,16.52-18.47,15.97-18.73-.8-18.74-.98-19.59-20.47-.66-14.91,6.28-18.39,19.49-17.86,18.57.75,18.59.2,18.57,22.36Z"/>
  <path class="cls-1" d="M182.45,596.23c.08,20.44-.27,20.01-19.55,21.02-14.13.74-19.21-4.36-18.57-18.42.84-18.46,1.44-19.02,20.16-19.93,14.31-.69,19.94,4.83,17.96,17.33Z"/>
  <path class="cls-1" d="M731.74,864.92c20.69.03,21.06.39,21.04,18.32-.02,18.45-1.29,19.71-19.83,19.61-17.02-.08-17.35-1.34-18.4-19.76-.85-14.89,4.44-20.96,17.19-18.18Z"/>
  <path class="cls-1" d="M448.17,616.96c-17.62-.02-17.89-.31-17.81-19.49.07-17.17,1.41-18.43,19.59-18.44,16.66,0,18.4,1.9,18.31,20.01-.09,17.07-1.07,17.94-20.09,17.92Z"/>
  <path class="cls-1" d="M495.56,617.07c-17.79-.07-17.99-.28-17.91-19.58.08-17.59,1.15-18.6,19.63-18.47,17.08.12,18.43,1.6,18.33,20.07-.09,17.19-1.05,18.05-20.06,17.97Z"/>
  <path class="cls-1" d="M543.7,616.98c-18.8.03-18.99-.17-19-18.56,0-17.56,1.63-19.22,18.97-19.27,17.46-.04,18.95,1.48,18.96,19.24,0,18.44-.11,18.56-18.94,18.58Z"/>
  <path class="cls-1" d="M609.7,598.59q0,18.46-19,18.45c-18.3-.03-19.01-.74-18.98-18.88.03-17.73,1.3-18.97,19.36-18.93,17.64.04,18.63,1.06,18.62,19.36Z"/>
  <path class="cls-1" d="M182.37,1168.28c.03,18.66-.24,18.93-18.74,18.94-17.63,0-19.21-1.57-19.21-19.08,0-17.17,1.71-18.83,19.35-18.84,18.32-.01,18.56.24,18.6,18.99Z"/>
  <path class="cls-1" d="M1873.7,1102.13c17.54.07,18.15.72,18.05,19.65-.09,16.65-1.96,18.37-20.01,18.32-16.95-.05-18.04-1.27-18-20.2.04-17.1.86-17.84,19.96-17.77Z"/>
  <path class="cls-1" d="M1037.02,598.63c0,18.08-.51,17.72-20.61,18.7-15.02.74-17.84-6.05-17.71-19.26.13-13.29,3.49-19.88,18.21-19.15,18.92.95,20.12,1.34,20.11,19.7Z"/>
  <path class="cls-1" d="M1321.44,883.9c-.03,17.74-1.25,18.48-19.02,19.18-13.4.53-19.74-3.93-19.1-18.34.84-18.93,1.14-19.92,19.8-19.86,18.19.06,18.35.22,18.31,19.03Z"/>
  <path class="cls-1" d="M1825.51,1102.16c18.37.03,19.02.67,19.05,18.82.03,17.66-1.4,19.07-19.24,19.1-17.86.03-18.75-.89-18.77-19.25-.02-18.28.41-18.7,18.96-18.67Z"/>
  <path class="cls-1" d="M1180.07,600.4c2.28,13.07-4.39,17.52-18.38,16.77-19.57-1.05-19.64-.39-19.57-19.59.07-17.65.93-18.4,21.07-18.44,15.63-.03,16.97,1.54,16.88,21.26Z"/>
  <path class="cls-1" d="M1332.11,600.89c0-21.07.63-20.85,19.94-21.87,14.74-.78,18.69,5.55,18.13,18.99-.75,17.9-1.27,18.34-19.17,19.19-13.94.67-22.42-2.34-18.9-16.31Z"/>
  <path class="cls-1" d="M1586.28,616.85c-11.98,2.38-18.06-2.19-17.21-17.18,1.08-18.99,1.27-20.3,17.78-20.37,19.37-.09,20.32.73,20.43,17.61.13,19.33-.35,19.82-21.01,19.93Z"/>
  <path class="cls-1" d="M1558.63,1120.07c.1,19.22-.55,19.96-17.88,20.03-18.87.08-19.23-.71-19.97-18.27-.53-12.51,1.2-20.64,16.94-19.93,20.73.94,20.81.15,20.9,18.17Z"/>
  <path class="cls-1" d="M1891.75,598.01c.03,18.48-.38,18.9-18.71,18.86-19.11-.04-18.81-.24-19.47-18.17-.47-12.7,1.92-20.6,17.3-19.86,18.88.91,20.84,1.93,20.87,19.16Z"/>
  <path class="cls-1" d="M259.52,627.63c18.14,0,18.86.74,18.83,19.02-.03,17.34-1.85,19.13-19.43,19.09-16.93-.05-18.51-1.74-18.52-19.79q0-18.32,19.12-18.32Z"/>
  <path class="cls-1" d="M372.48,646.95c-.06,17.65-1.13,18.7-19.13,18.73-17.28.03-18.05-1.84-19.07-20.84-.8-15,5.83-18.04,19.03-17.41,19.2.92,19.23.27,19.16,19.52Z"/>
  <path class="cls-1" d="M1701.55,1263.63c0,17.54-.45,17.16-19.66,18.17-14.04.74-19.35-3.85-18.57-18.23,1.02-18.71,1.34-19.88,20.07-19.95,17.07-.06,18.15,1.13,18.16,20.01Z"/>
  <path class="cls-1" d="M497.29,627.66c17.63.08,18.44.94,18.33,19.51-.1,17.19-1.51,18.47-20.08,18.37-17.41-.09-17.94-.68-17.89-20.18q.04-17.79,19.64-17.71Z"/>
  <path class="cls-1" d="M591.58,627.67q18.13.03,18.09,19.22c-.05,17.98-.83,18.73-19.36,18.67-16.94-.06-18.56-1.8-18.53-19.92.03-17.69.38-18.01,19.8-17.97Z"/>
  <path class="cls-1" d="M667.66,642.55c-4.06-16.17,8.02-14.49,20.09-15.19,14.75-.85,18.67,5.44,18,19.03-.89,17.98-1.66,19.32-20.97,19.14-16.55-.16-17.23-.97-17.12-22.98Z"/>
  <path class="cls-1" d="M782.31,627.65c17.58.07,17.68.18,17.54,19.89-.11,16.78-1.71,18.21-20.19,18.05-16.54-.15-17.89-1.7-17.78-20.55.1-16.95.71-17.47,20.43-17.38Z"/>
  <path class="cls-1" d="M1632.52,1281.43c-13.8,3-16.82-4.99-16.15-18.36.89-17.72,2.37-19.78,20.47-19.55,16.34.21,17.89,2.14,17.69,22.17-.15,15.34-.86,15.88-22.01,15.74Z"/>
  <path class="cls-1" d="M1511.41,1264.12c-.09,17.44-.13,16.57-21.1,17.62-15.57.78-17.5-7.05-17-19.53.68-16.98,2.06-18.78,19.5-18.72,17.58.06,18.69,1.29,18.6,20.62Z"/>
  <path class="cls-1" d="M952.04,643.07c-3.38-15.91,7.84-15.88,20.26-15.48,17.54.55,17.07.56,17.93,19.98.66,14.69-5.95,18.65-19.19,18.16-17.52-.64-19.1-1.88-19-22.65Z"/>
  <path class="cls-1" d="M1019.43,627.69q17.71.07,17.59,19.83c-.11,16.66-1.88,18.26-20.1,18.22-15.68-.04-17.93-2.65-17.83-20.72.1-17.25.28-17.4,20.34-17.32Z"/>
  <path class="cls-1" d="M445.9,997.04c-15.19,4.02-16.03-6.6-15.66-19.38.53-18.12.67-18.1,18.97-18.77,12.94-.47,20.03,2.71,19.31,17.62-.98,20.31-.53,20.6-22.62,20.53Z"/>
  <path class="cls-1" d="M1473.5,882.62c.01-17.31.67-16.95,21.49-18.01,14.74-.75,17.09,6.1,16.64,18.46-.69,18.89-.97,19.79-18.5,19.76-18.4-.03-19.65-1.31-19.64-20.21Z"/>
  <path class="cls-1" d="M1227.16,646.2c-.01,17.54-2.26,19.07-20.4,19.7-14.63.51-18.35-6.3-17.76-19.6.82-18.42.34-18.59,19.18-18.61q18.99-.02,18.98,18.51Z"/>
  <path class="cls-1" d="M1255.03,628.16c14.23-3.04,20.46,1.82,19.51,17.3-1.15,18.87-1.54,20.26-19.63,20.16-16.96-.09-17.96-1.92-18.88-19.44-.76-14.45,3.67-21.52,19-18.03Z"/>
  <path class="cls-1" d="M1321.49,643.87c-.04,20.66-1.12,21.79-18.58,21.72-17.32-.07-19.34-2.07-19.33-19.21,0-17.89.94-18.18,19.1-18.89,13.86-.55,22.48,2.37,18.81,16.38Z"/>
  <path class="cls-1" d="M1464.35,644.66c-.05,19.78-1.52,20.41-20.7,21.2-15.15.62-17.89-6.99-17.41-19.79.68-18.23.42-17.57,20.92-18.59,15.04-.75,19.41,5.56,17.19,17.19Z"/>
  <path class="cls-1" d="M1569.38,644.21c-1.69-10.52,1.01-17.63,16.06-16.83,21.77,1.16,21.84.3,21.82,19.16-.02,17.9-.98,18.85-19.32,18.87-17.56.03-18.57-1.02-18.56-21.2Z"/>
  <path class="cls-1" d="M1616.55,645.71c.04-17.63.47-18.03,19.5-18.05,17.77-.02,18.5.73,18.45,19.23-.04,17.21-1.6,18.69-19.62,18.62-17.34-.07-18.38-1.19-18.34-19.8Z"/>
  <path class="cls-1" d="M1701.54,644.58c-.03,20.12-1,20.18-20.62,21.15-15.28.76-17.95-6.76-17.48-19.57.66-18.14.63-17.75,20.82-18.69,14.76-.68,19.66,5.25,17.28,17.11Z"/>
  <path class="cls-1" d="M1748.64,646.57c-.04,18-1.23,19.18-19.05,19.07-17.71-.12-18.94-1.39-18.9-19.45.04-17.79,1.05-18.62,22.43-18.46,15.13.11,15.56.63,15.52,18.84Z"/>
  <path class="cls-1" d="M1464.33,1121.41c0,17.72-1.2,18.87-19.42,18.8-16.79-.07-18.51-1.91-18.52-19.82,0-17.74.54-18.25,19.51-18.2,18.05.04,18.43.43,18.42,19.22Z"/>
  <path class="cls-1" d="M1464.31,1263.48c0,17.58-.58,18.12-19.5,18.11-17.62,0-18.51-.94-18.46-19.39.05-17.45,1.28-18.61,19.65-18.54,17.36.07,18.3,1.09,18.3,19.82Z"/>
  <path class="cls-1" d="M1871.96,628.06c14.18-2.6,21.14,1.53,20.09,17.37-1.21,18.17-1.91,20.11-18.2,20.15-18.52.05-19.39-1.5-20.34-19.29-.76-14.27,3.18-21.76,18.45-18.23Z"/>
  <path class="cls-1" d="M166.39,674.89c13.04-2.76,16.97,4.24,16.38,17.91-.84,19.25-.87,20.02-19.19,20.02-17.86,0-19.03-1.16-19.04-18.92,0-18.54.49-19.01,21.84-19.01Z"/>
  <path class="cls-1" d="M258.22,712.82c-17.05-.02-16.89-.91-18.09-19.72-.96-15.14,4.85-19.38,19.16-18.51,18.18,1.1,19.11,1.16,19.11,18.91,0,18.1-1.29,19.34-20.18,19.32Z"/>
  <path class="cls-1" d="M1189.19,1264.83c.17-19.99,1.63-21.38,19.65-21.25,17.24.12,17.42,1.65,18.65,21.39,1.12,17.94-9.78,16.18-21.42,16.75-14.78.72-19.63-5.71-16.87-16.89Z"/>
  <path class="cls-1" d="M430.43,692.57c.04-17.58.32-17.83,19.65-17.75,17.18.08,18.28,1.28,18.15,19.89-.12,17.12-1.28,18.16-20.12,18.09-17.06-.07-17.72-.83-17.67-20.24Z"/>
  <path class="cls-1" d="M967.72,1281.44c-15.44,3.51-16.26-6.98-15.78-19.81.62-16.34,2.09-18.08,20.32-18.07,16.4,0,17.82,1.66,17.75,20.54-.06,16.81-.77,17.41-22.3,17.34Z"/>
  <path class="cls-1" d="M733.81,674.84c18.31.02,19.02.74,19,19.04-.02,18.28-.73,18.97-19.33,18.94-17.9-.02-18.63-.78-18.62-19.4q0-18.61,18.96-18.58Z"/>
  <path class="cls-1" d="M1616.56,880.51c-3.21-14.48,6.3-16.21,18.85-15.85,18.51.53,19.24.94,19.09,20.45-.13,16.33-1.96,17.91-20.58,17.79-16.73-.11-17.49-1.03-17.37-22.38Z"/>
  <path class="cls-1" d="M1332.12,1119.04c-1.68-10.7,1.25-18.25,16.09-17.14,11.41.85,22.86-1.4,22.11,16.44-.83,19.84-1.54,21.69-18.34,21.81-19.02.14-19.7-.53-19.86-21.11Z"/>
  <path class="cls-1" d="M609.69,980.98c2.81,13.49-4.77,16.93-18.31,16.27-17.96-.88-19.66-1.8-19.65-18.82,0-18.04,1.52-19.47,20.51-19.37,17.14.09,17.5.52,17.45,21.92Z"/>
  <path class="cls-1" d="M730.16,1044.21c-15.84,3.99-14.94-7.59-15.58-19.97-.75-14.64,5.34-18.83,18.99-18.18,17.99.85,19.3,1.58,19.27,20.82-.02,16.85-.69,17.41-22.68,17.33Z"/>
  <path class="cls-1" d="M1511.43,694.21c-.07,18.18-.65,17.87-20.8,18.79-15.48.7-17.78-7.13-17.29-19.81.68-17.46,1.2-18.4,19.84-18.33,17.98.06,18.32.42,18.25,19.35Z"/>
  <path class="cls-1" d="M1542.6,674.8c13.3-2.77,16.96,4.62,16.36,18.26-.84,19.16-.79,19.8-19.8,19.72-17.24-.06-18.46-1.39-18.34-19.92.11-17.33.97-18.1,21.78-18.07Z"/>
  <path class="cls-1" d="M1569.82,692.14c-4.26-16.43,5.72-17.94,18.76-17.47,17.46.64,18.7,1.46,18.7,19.32,0,17.76-1.37,18.05-20.6,19.11-16.33.91-19.17-7.19-16.86-20.97Z"/>
  <path class="cls-1" d="M1806.56,882.85c.05-17.74.32-17.98,19.56-17.93,17.38.05,18.49,1.22,18.45,19.55-.04,17.1-1.46,18.4-20.01,18.42-17.16.01-18.05-.98-17.99-20.03Z"/>
  <path class="cls-1" d="M162.54,759.83c-16.88-.17-18.16-1.59-17.97-20.13.17-16.69,1.66-17.99,20.48-17.87,17.03.11,17.79,1.06,17.47,21.89-.24,15.75-.91,16.3-19.98,16.11Z"/>
  <path class="cls-1" d="M240.42,740.59c.03-18.01.81-18.77,19.14-18.71,17.65.05,18.88,1.32,18.83,19.4-.05,17.14-1.52,18.53-19.71,18.55-18.04.02-18.29-.24-18.26-19.23Z"/>
  <path class="cls-1" d="M402.27,721.9c17.33.09,17.55.34,17.49,20.1-.05,17.81-.21,17.95-19.64,17.86-16.97-.08-18.37-1.61-18.26-20.05.1-16.87,1.39-18,20.4-17.9Z"/>
  <path class="cls-1" d="M667.67,1025.57c-.02-18.67.61-19.33,18.56-19.31,17.71.02,18.62,1.86,19.64,20.66.83,15.29-6.55,18.01-19.55,17.48-18.6-.75-18.63-.18-18.65-18.83Z"/>
  <path class="cls-1" d="M641.45,759.83c-20.82.09-21.74-1.34-22.51-19.19-.59-13.54,3.72-19.64,18.22-18.98,19.23.87,19.37.51,19.88,18,.36,12.46.21,23.61-15.59,20.17Z"/>
  <path class="cls-1" d="M1350.72,759.86c-18.28,0-18.57-.31-18.59-19.03-.01-18.46.48-18.96,18.79-18.94,17.91.02,19.04,1.16,19.08,19.16.04,17.69-1.12,18.82-19.29,18.81Z"/>
  <path class="cls-1" d="M827.94,1281.16c-13.53,2.42-20.03-1.82-19.14-16.99,1.14-19.48,1.24-20.58,19.55-20.58,17.56,0,17.93,1.41,19.01,20.92.85,15.44-6.36,18.9-19.42,16.65Z"/>
  <path class="cls-1" d="M667.68,1121.23q.05-19.12,19.41-19.04c17.36.07,18.57,1.33,18.57,19.29,0,16.98-1.73,18.64-19.42,18.62-18.09-.02-18.61-.55-18.56-18.86Z"/>
  <path class="cls-1" d="M657.06,980.54c1.77,10.72-1.62,17.43-16.29,16.77-20.55-.93-21.01-1.03-21.93-19.76-.69-14,4.61-19.26,18.64-18.68,18.9.79,19.43.64,19.58,21.68Z"/>
  <path class="cls-1" d="M656.84,1122.74c2.73,12.56-2.7,18.11-17.12,17.56-19.52-.74-20.64-1.06-20.7-18.92-.06-18.25.8-19.14,18.56-19.2q19.13-.07,19.26,20.56Z"/>
  <path class="cls-1" d="M592.63,1044.2c-20.23-.06-20.87-.69-20.89-18.84-.02-17.95,1.42-19.29,20.41-19.14,16.62.14,16.68,1.35,17.83,20.25.94,15.5-5.28,20.28-17.34,17.73Z"/>
  <path class="cls-1" d="M1822.32,759.84c-14.25,3.15-16.31-5.93-15.89-18.68.61-18.36,1.05-19.28,18.83-19.31,17.92-.03,19.24,1.27,19.27,19,.03,18.11-.87,18.93-22.21,18.98Z"/>
  <path class="cls-1" d="M419.71,1119.3c-.15,20.76-.5,20.37-21.48,21.06-15.75.52-16.9-8.29-16.49-20.31.59-17.04,1.49-17.11,21.4-18.2,15.67-.85,18.37,6.66,16.57,17.45Z"/>
  <path class="cls-1" d="M230.97,788.33c-.02,17.6-1.11,18.65-19.4,18.65-18.1,0-17.89-.39-18.62-18.92-.51-12.97,2.22-20.22,17.44-19.37,18.78,1.04,20.59,1.89,20.57,19.64Z"/>
  <path class="cls-1" d="M419.68,788.68c-.02,18.23-.16,17.83-19.04,18.5-13.26.47-19.93-3.1-19.05-18.02,1.09-18.63,1.65-20.12,19.92-20.13,17.59,0,18.2.65,18.18,19.65Z"/>
  <path class="cls-1" d="M430.38,788.09c.04-18.41.71-19.1,18.84-19.07,18.21.03,18.23,1.05,19.29,20.76.84,15.55-6.93,17.75-19.61,17.31-18.54-.64-18.55-.17-18.51-19Z"/>
  <path class="cls-1" d="M1303.83,959.07c17.29.06,16.82.5,17.79,20.07.7,14.22-4.16,19-18.34,18.13-19.04-1.17-19.82-1.09-19.75-20.1.06-16.65,1.75-18.16,20.3-18.1Z"/>
  <path class="cls-1" d="M657,790.33c3.12,13.26-3.81,17.73-18.36,16.94-18.26-.99-19.54-1.4-19.58-18.56-.04-18.28,1.21-19.63,18.28-19.68,19.38-.06,19.61.17,19.65,21.3Z"/>
  <path class="cls-1" d="M1396.74,997.04c-16.79-.12-17.49-.95-17.37-20.3.1-16.85,1.1-17.72,20.18-17.65,16.34.05,18.08,2.2,17.8,21.9-.21,14.99-1.76,16.19-20.6,16.06Z"/>
  <path class="cls-1" d="M780.78,1281.48c-18.65,0-18.91-.24-18.92-18.67-.01-17.56,1.59-19.16,19.14-19.2,17.38-.03,18.85,1.48,18.84,19.39,0,18.35-.13,18.47-19.07,18.48Z"/>
  <path class="cls-1" d="M731.7,1281.5c-12.83,2.72-18.03-3.37-17.14-18.31,1.1-18.39,1.24-19.51,18.45-19.56,18.7-.06,19.82,1.04,19.81,19.64,0,17.78-.48,18.24-21.12,18.24Z"/>
  <path class="cls-1" d="M307.58,1102.19c17.38.05,17.23.7,18.12,19.73.67,14.34-5.03,18.97-18.82,18.32-18.25-.86-19.46-1.45-19.39-20.49.06-17.03.73-17.62,20.09-17.56Z"/>
  <path class="cls-1" d="M259.34,1044.22c-18.6.03-19.05-.4-19.02-18.48.03-17.64,1.78-19.44,18.89-19.49,17.3-.05,19.12,1.79,19.15,19.35.03,18.08-.48,18.58-19.02,18.62Z"/>
  <path class="cls-1" d="M1569.36,928.21c-2.82-13.16,4.24-17.06,18.07-16.37,18.18.91,19.82,1.67,19.86,18.64.05,18.29-1.09,19.48-18.72,19.48-18.97,0-19.19-.22-19.22-21.75Z"/>
  <path class="cls-1" d="M1891.73,1263.62c-.02,17.48-.39,17.08-19.77,18.02-13.78.67-19.41-3.43-18.48-18.06,1.2-18.83,1.34-20.03,18.46-20.03,18.3,0,19.81,1.54,19.79,20.07Z"/>
  <path class="cls-1" d="M562.64,1311.57c-.06,17.23-1.61,18.68-19.77,18.52-16.79-.15-18.2-1.72-18.16-20.13.04-17.46.51-17.89,19.72-17.83,17.66.06,18.27.71,18.21,19.44Z"/>
  <path class="cls-1" d="M609.75,1310.9c.09,17.87-1.2,19.19-18.65,19.24-18.27.05-18.64-1.08-19.61-20.11-.71-14.08,4.43-18.84,18.45-18.14,19.68.99,19.72.2,19.81,19.02Z"/>
  <path class="cls-1" d="M1068.3,1292.2c11.32-2.08,16.6,2.5,16.16,15.84-.69,20.9-.69,21.76-17.67,21.83-18.44.08-20.41-1.63-20.56-17.83-.18-19.5.02-19.69,22.07-19.84Z"/>
  <path class="cls-1" d="M1211.2,1292.2c12.16-2.26,16.83,3.64,16.21,17.16-.88,19.28-1.68,20.08-20.77,21-15.08.72-18.04-6.75-17.57-19.64.67-18.32.38-18.52,22.13-18.51Z"/>
  <path class="cls-1" d="M1306.51,1292.11c16.04-3.89,15.29,8,15.01,20.12-.38,16.72-1.62,17.39-20.24,18.03-14.62.5-18.49-6.44-17.93-19.58.76-17.81,1.25-18.68,23.16-18.57Z"/>
  <path class="cls-1" d="M1417.3,1309.7c-.16,19.24-1.52,20.57-19.38,20.46-17.76-.11-17.48-1.21-18.89-21.13-1.25-17.7,8.92-16.63,20.95-17.23,14.93-.74,19.44,5.89,17.31,17.9Z"/>
  <path class="cls-1" d="M562.63,1263.87c-.06,17.39-.51,17.08-19.96,17.85-13.9.55-19.22-3.96-18.26-18.41,1.23-18.55,1.63-19.89,20.29-19.75,17.13.13,18.01,1.12,17.94,20.31Z"/>
  <path class="cls-1" d="M325.42,1263.59c-.1,17.51-.63,18.01-19.67,17.91-18.15-.09-18.37-.33-18.26-19.18.1-16.98,2.17-18.96,19.61-18.83,16.58.13,18.42,2.14,18.32,20.11Z"/>
  <path class="cls-1" d="M1730.87,1292.15c17.91.21,18.02.33,17.85,19.61-.16,17.51-1.29,18.49-21.3,18.24-15.27-.18-17.12-2.74-16.74-23.07.26-13.84,1.83-14.99,20.19-14.78Z"/>
  <path class="cls-1" d="M212.52,1339.41c17.26.07,18.53,1.42,18.47,19.54-.05,16.36-2.35,18.47-20.1,18.44-16.87-.03-18.03-1.32-17.93-19.98.09-17.59.63-18.08,19.57-18Z"/>
  <path class="cls-1" d="M419.73,1356.04c-.12,21.27-.19,21.34-19.4,21.28-17.04-.05-18.74-1.83-18.59-19.39.15-17.53,1.42-17.76,20.81-18.82,14.81-.8,19.52,5.11,17.18,16.92Z"/>
  <path class="cls-1" d="M468.36,1358.45c-.02,17.36-1.57,18.89-19.09,18.88-18.51,0-17.84-.47-19.21-20.11-1.12-16.01,6.19-18.69,19.69-18.03,17.63.87,18.64,1.24,18.61,19.25Z"/>
  <path class="cls-1" d="M477.7,1358.41c.22-19.14.56-18.51,21.28-19.32,17.4-.68,17.05,9.66,16.63,21.69-.53,15.3-2.39,16.11-21.73,16.81-16.22.59-17.3-8.66-16.19-19.19Z"/>
  <path class="cls-1" d="M562.64,124.61c-.03,17.37-.64,17.91-19.8,17.84-17.7-.07-18.15-.55-18.1-19.54.04-17.1,1.54-18.5,19.81-18.39,16.98.1,18.12,1.37,18.09,20.1Z"/>
  <path class="cls-1" d="M999.01,1358.41c0-18.19.76-18.95,18.87-18.97,18.66-.01,19.1.41,19.13,18.43.03,18.53-1.01,19.53-20.1,19.45-16-.07-17.89-2.07-17.9-18.92Z"/>
  <path class="cls-1" d="M1142.11,1355.07c-2.84-14.06,5.82-16.4,18.79-15.84,18.19.79,19.23,1.24,19.2,19.01-.03,17.47-1.7,19.12-19.23,19.04-18.23-.09-18.88-.79-18.77-22.2Z"/>
  <path class="cls-1" d="M1494.02,1339.43c17,.09,17.63.82,17.5,20.12-.12,17.11-1.03,17.91-20.24,17.83-16.71-.07-17.88-1.42-17.83-20.48.05-16.66,1.12-17.57,20.57-17.47Z"/>
  <path class="cls-1" d="M1558.83,1359.96c1.9,11.99-3.04,18.27-17.69,17.65-18.81-.8-20.29-1.38-20.41-18.13-.13-18.76.94-19.95,18.03-20.07,19.53-.14,19.97.27,20.07,20.56Z"/>
  <path class="cls-1" d="M1569.31,1354.31c-3.8-15.84,7.88-15.35,20.19-15,17.06.48,17.79,1.04,17.71,20.39-.07,16.49-1.54,17.74-20.64,17.61-16.4-.11-17.36-1.26-17.26-23.01Z"/>
  <path class="cls-1" d="M1701.5,1357.05c-.13,19.55-1,20.38-19.37,20.34-17.38-.04-18.68-1.41-18.58-19.7.09-17.96.78-17.78,20.95-18.56,15.1-.59,19.1,6.26,17.01,17.92Z"/>
  <path class="cls-1" d="M163.13,1424.39c-17.2-.04-18.51-1.43-18.56-19.62-.04-16.94,1.45-18.32,19.74-18.34,17.42-.02,18.2.82,18.18,19.63-.02,17.73-.7,18.37-19.37,18.33Z"/>
  <path class="cls-1" d="M257.86,1424.4c-17.18-.05-17.47-.39-17.41-20.19.06-17.26.77-17.89,19.95-17.77,17,.11,18.09,1.34,17.95,20.23-.12,16.7-1.37,17.78-20.49,17.73Z"/>
  <path class="cls-1" d="M355.9,1424.43c-19.49-.06-21.55-2.04-21.45-18.84.11-17.82,1.44-19.14,19.2-19.13,18.64,0,18.24.32,19.07,20.31.59,14.2-4.32,20.34-16.82,17.66Z"/>
  <path class="cls-1" d="M637.98,1424.4c-17.99-.04-18.95-1-18.89-18.93.06-18.24,1.03-18,20.35-19.34,16.34-1.13,18.26,7.06,17.83,20.01-.58,17.37-1.07,18.29-19.28,18.25Z"/>
  <path class="cls-1" d="M667.53,1407.37c.1-20.69.45-21.02,20.04-20.9,16.52.1,18.16,1.9,18.11,19.88-.05,16.87-1.69,17.26-21.47,18.34-15.7.86-18.31-6.85-16.68-17.32Z"/>
  <path class="cls-1" d="M922.55,1424.43c-17.28-.01-16.98-.55-17.95-19.99-.71-14.27,4.43-19.1,18.57-18.25,18.01,1.08,19.84,1.97,19.76,18.81-.09,18.62-.96,19.45-20.38,19.43Z"/>
  <path class="cls-1" d="M1084.27,1404.18c-.18,20.04-.49,20.31-19.99,20.23-16.86-.07-18.09-1.45-17.97-20.23.11-16.86,1.61-17.15,21.91-18.04,16.58-.72,17.08,8.72,16.05,18.04Z"/>
  <path class="cls-1" d="M1300.62,1424.37c-12.66,2.02-17.95-4.01-17.3-18.02.89-19.4.98-18.87,21.07-20.25,17.06-1.17,17.69,7.99,17.23,20.5-.65,17.46-.71,17.87-21,17.76Z"/>
  <path class="cls-1" d="M1558.67,1405.14c-.35,19.36-.59,19.56-21.25,19.25-15.32-.23-16.1-2.34-16.86-21.59-.69-17.65,10.38-15.82,22.05-16.6,16.51-1.11,17.26,8.46,16.07,18.94Z"/>
  <path class="cls-1" d="M667.61,1642.72c-.06-18.48.47-19.04,18.31-19.06,18.1-.02,19.8,1.54,19.78,18.24-.02,17.78-1.73,19.62-18.35,19.71q-19.66.11-19.74-18.89Z"/>
  <path class="cls-1" d="M182.5,1454.85c2.67,12.4-3.39,17.46-17.58,16.91-19.23-.75-20.31-1.09-20.4-19.44-.09-16.93,1.74-18.7,19.46-18.86,17.04-.15,18.37,1.25,18.53,21.38Z"/>
  <path class="cls-1" d="M799.86,1454.93c2.64,12.66-3.82,17.34-17.86,16.8-19.51-.75-20.14-.67-20.14-19.36,0-17.58,1.35-18.88,19.42-18.87,17.2.01,18.52,1.4,18.58,21.43Z"/>
  <path class="cls-1" d="M922.8,1471.49c-17.7-.02-17.95-.31-17.91-19.54.04-17.37,1.32-18.58,19.49-18.46,16.88.12,18.45,1.82,18.39,19.93-.06,17.25-.99,18.09-19.98,18.07Z"/>
  <path class="cls-1" d="M1084.16,1455.56c2.67,12.35-3.57,16.67-16.94,16.15-19.64-.76-20.38-1.5-21.16-20.41-.6-14.58,5.99-18.54,19.31-18.01,17.99.71,18.79.99,18.79,22.27Z"/>
  <path class="cls-1" d="M1094.79,1452.39c.07-18,1.12-19.04,19.12-18.9,17.87.14,18.04,1.3,19.09,20.83.84,15.55-7.08,17.82-19.69,17.38-17.98-.64-18.59-.86-18.52-19.31Z"/>
  <path class="cls-1" d="M1255.31,1471.44c-18.32,0-19.09-.74-19.08-18.53.01-18.09,1.4-19.43,20.08-19.41,17.02.02,17.94,1.04,17.89,19.72-.05,17.99-.28,18.21-18.89,18.22Z"/>
  <path class="cls-1" d="M1321.53,1455.26c2.88,13.22-4.29,16.99-18.05,16.5-12.05-.43-21-.79-20.18-16.92,1.02-20.03,1.4-21.38,20.25-21.35,17.06.03,17.95,1.02,17.98,21.77Z"/>
  <path class="cls-1" d="M752.82,124.76c-.05,16.86-1.08,17.76-20.18,17.67-17.34-.08-17.85-.65-17.79-19.75.06-17.25,1.15-18.25,19.88-18.13,16.89.11,18.14,1.51,18.09,20.2Z"/>
  <path class="cls-1" d="M1511.36,1453.41c0,17.95-.1,18.05-19.33,18.06-17.54,0-17.84-.89-18.59-19.42-.51-12.6,2.86-19.16,16.94-18.67,20.42.71,20.97.63,20.98,20.03Z"/>
  <path class="cls-1" d="M1520.96,1451.62c.07-16.73,1.78-18.28,19.99-18.14,17.17.13,16.75,1,18.06,20.18,1.11,16.3-6.52,18.69-19.97,18-17.24-.88-18.16-1.27-18.08-20.04Z"/>
  <path class="cls-1" d="M1115.16,142.46c-20.04-.02-19.79-.32-20.55-18.74-.53-12.98,2.38-20.29,17.52-19.53,19.43.98,19.87,1.48,20.85,20.93.75,15.06-6.14,19.08-17.82,17.33Z"/>
  <path class="cls-1" d="M562.65,1499.43c.09,18.83-.34,19.28-18.21,19.31-19.23.03-19.68-.38-19.73-17.89-.05-18.79.99-19.94,18.2-20.02,18.34-.08,19.65,1.15,19.74,18.59Z"/>
  <path class="cls-1" d="M846.89,1498.87c-.11,19.95-.31,19.5-20.4,20.16-13.42.44-18.24-4.37-17.53-17.87,1.03-19.74,1.12-19.77,20.99-20.62,15.34-.66,18.73,6.82,16.95,18.34Z"/>
  <path class="cls-1" d="M1019.73,1518.82c-20.29-.18-20.83-.73-20.72-18.95.11-17.19,2.38-19.27,20.85-19.11,15.33.14,16.46,2.7,17.48,21.24.86,15.6-6.62,18.67-17.62,16.82Z"/>
  <path class="cls-1" d="M1084.19,1500.43c-.06,18.29-.18,18.4-19.02,18.4-18.15,0-18.92-.78-18.86-19,.05-16.94,2.13-18.97,19.47-18.99,17.3-.02,18.48,1.24,18.42,19.59Z"/>
  <path class="cls-1" d="M1159.52,142.36c-17.3-.18-16.75-.66-17.61-21.52-.74-17.77,10.45-15.99,21.91-16.59,16.04-.84,16.63,9.17,16.36,20.85-.39,16.68-1.12,17.47-20.67,17.27Z"/>
  <path class="cls-1" d="M1179.8,1500.04c2.29,13.17-1.98,19.72-17.05,18.96-20.47-1.03-20.55-.27-20.57-18.67-.02-18.56.82-18.75,20.03-19.63,14.4-.66,19.85,5.26,17.59,19.34Z"/>
  <path class="cls-1" d="M1227.14,1501.41c-.11,17.02-.75,17.57-20.15,17.39-17.35-.16-17.94-.83-17.77-19.96.14-16.42,2.05-18.11,20.32-18.01,16.79.09,17.74,1.2,17.61,20.59Z"/>
  <path class="cls-1" d="M1274.21,1500.93c-.04,17.5-.59,18-19.52,17.97-17.07-.03-18.58-1.64-18.47-19.64.1-16.89,1.81-18.46,20-18.4,17.1.06,18.03,1.1,17.99,20.07Z"/>
  <path class="cls-1" d="M1473.54,1501.11c.19-19.3,1.74-19.87,22.6-20.49,17.18-.51,14.42,10.81,15.52,21.5,1.83,17.72-9.31,16.37-21.17,16.92-15.05.7-19.08-6.39-16.96-17.93Z"/>
  <path class="cls-1" d="M1701.57,1502.18c2.64,12.5-3.64,17.41-17.73,16.88-19.45-.72-20.16-.73-20.25-19.16-.08-17.39,1.55-19.01,19.21-19.03,17.02-.03,18.74,1.75,18.76,21.31Z"/>
  <path class="cls-1" d="M1227.17,123.64c-.02,18.03-.81,18.82-18.91,18.8-18.42-.02-19.08-.67-19.05-18.64.03-17.69,1.82-19.4,20.35-19.42,15.72-.02,17.62,2.06,17.61,19.26Z"/>
  <path class="cls-1" d="M562.64,1547.79c.08,18.15-1.19,18.99-18.68,19.66-12.94.5-20.21-2.52-19.52-17.67.9-20.06.31-20.32,19.05-20.36q19.06-.04,19.16,18.37Z"/>
  <path class="cls-1" d="M656.9,1546.38c-.16,20.48-.76,21.05-20.14,20.92-16.6-.11-17.54-1.22-17.45-20.68.08-16.55,1.05-16.46,20.52-17.5,15.04-.8,19.53,5.34,17.07,17.26Z"/>
  <path class="cls-1" d="M667.68,1545.96c-2.95-12.86,3.31-17.5,17.55-16.82,19.34.92,19.47.98,20.48,19.57.77,14.05-4.28,19.37-18.4,18.81-19.27-.77-19.52-.35-19.64-21.55Z"/>
  <path class="cls-1" d="M714.82,1544.83c-3.84-15.23,6.86-15.88,19.54-15.51,18.28.53,17.8.43,18.68,20.5.65,14.76-6.2,18.16-19.25,17.63-18.22-.74-19.04-1.07-18.98-22.62Z"/>
  <path class="cls-1" d="M923.67,1529.42c18.29.01,19.13.84,19.09,18.82-.04,18.14-1.12,19.22-19.1,19.13-17.65-.08-18.81-1.29-18.8-19.42q.01-18.55,18.81-18.54Z"/>
  <path class="cls-1" d="M971.93,1529.82c15.86-3.57,18.85,4.94,18.24,18.65-.8,17.68-1.33,18.82-19.22,18.84-17.51.02-17.88-1.6-19.19-20.47-1.13-16.37,6.67-19.28,20.17-17.01Z"/>
  <path class="cls-1" d="M999.08,1546.95c.11-17.28.79-16.83,21.56-17.88,16.25-.82,16.36,7.99,16.7,19.98.4,14.08-4.82,19.25-18.84,18.51-18.18-.96-19.54-1.71-19.43-20.61Z"/>
  <path class="cls-1" d="M1065.96,1529.4c18.25.03,17.55.2,18.52,20.64.72,15.3-6.54,18.09-19.55,17.49-16.89-.77-18.72-2.11-18.65-19.98.07-17.58.72-18.18,19.67-18.15Z"/>
  <path class="cls-1" d="M1094.88,1545.57c-2.61-12.48,3.37-17.14,17.56-16.42,19.85,1.02,20.21.54,20.29,20.52.06,15.92-1.87,17.62-20.13,17.71-16.9.09-17.66-.77-17.72-21.82Z"/>
  <path class="cls-1" d="M1254.45,1567.34c-16.73-.04-18.27-1.71-18.18-19.71.09-17.57.86-18.3,19.31-18.27,18.53.03,18.7.2,18.64,18.56-.06,18.46-1.08,19.47-19.77,19.42Z"/>
  <path class="cls-1" d="M1332.23,1545.61c-3.25-13.67,4.44-16.94,17.98-16.4,19.05.76,19.33,1.07,20.09,21.34.59,15.58-8.19,17.31-20.35,16.97-16.88-.47-17.68-1.07-17.71-21.91Z"/>
  <path class="cls-1" d="M1349.39,142.37c-11.63,2.19-18.35-1.81-17.59-16.98,1-19.72,1.23-20.93,18.79-20.98,17.86-.05,19.46,1.51,19.54,18.93.08,17.83-.99,18.9-20.74,19.02Z"/>
  <path class="cls-1" d="M1464.33,126.36c2.93,14.07-5.71,16.74-18.62,16.3-18.63-.64-19.46-1.06-19.34-20.1.11-16.72,1.68-18.12,20.18-17.98,16.85.13,17.86,1.29,17.78,21.78Z"/>
  <path class="cls-1" d="M1590.27,1529.29c11.83-1.96,17.92,3.04,17.28,17.57-.88,19.78-.89,19.68-20.59,20.7-14.65.76-18.47-5.49-17.91-18.86.81-19.23.36-19.39,21.22-19.41Z"/>
  <path class="cls-1" d="M1683.55,1529.37c17.7.12,18.11.56,17.99,19.63-.1,17.59-.99,18.41-19.91,18.29-17.09-.11-18.19-1.34-18.08-20.15.1-17.18.91-17.89,19.99-17.77Z"/>
  <path class="cls-1" d="M1871.38,1529.4c20.08.14,20.57.69,20.37,20.54-.16,16.17-1.61,17.39-20.55,17.31-15.94-.06-16.68-2.09-17.79-20.42-.98-16.05,6.53-19.52,17.98-17.43Z"/>
  <path class="cls-1" d="M256.99,1281.44c-12.04,2.44-17.66-2.74-16.85-17.46,1.08-19.73.81-20.36,19.42-20.36,17.15,0,18.84,1.76,18.85,19.59.01,17.55-.7,18.22-21.42,18.24Z"/>
  <path class="cls-1" d="M640.58,1576.61c12.55-2.51,17.41,3.46,16.61,17.8-1.13,20.12-.36,20.16-19.26,20.12-17.67-.04-18.73-1.15-18.72-19.53.01-17.67.81-18.42,21.37-18.39Z"/>
  <path class="cls-1" d="M1159.47,1576.58c19.65.07,20.7,1.17,20.57,19.46-.12,16.78-2,18.55-19.71,18.55-17.4,0-17.48-1.14-18.48-21.13-.78-15.57,6.83-18.53,17.62-16.88Z"/>
  <path class="cls-1" d="M1350.62,1576.61c17.95-.06,19.38,1.31,19.5,18.72.12,18.08-1.07,18.37-20.56,19.45-14.98.83-18.27-5.72-17.62-19.14.91-18.71.43-18.98,18.68-19.04Z"/>
  <path class="cls-1" d="M562.65,171.72c-.05,17.65-1.59,19.21-19.03,19.23-18.18.03-19.04-.92-18.94-20.76.09-16.61.86-17.25,20.6-17.11,16.99.12,17.42.59,17.37,18.64Z"/>
  <path class="cls-1" d="M656.94,1641.15c-.18,20.45-.47,20.71-20.64,20.48-16.15-.18-17.4-1.71-17.21-21.01.15-15.77,1.88-16.2,21.3-17.2,15.96-.82,18.09,7.42,16.55,17.73Z"/>
  <path class="cls-1" d="M1114.39,1661.55c-19.32-.02-18.77-.24-19.74-19.47-.69-13.82,3.46-19.52,18.07-18.7,19.14,1.08,19.57,1.34,20.26,22.93.5,15.7-9.01,15.97-18.59,15.24Z"/>
  <path class="cls-1" d="M1160.53,1661.55c-18.2.01-18.36-.16-18.35-19.2,0-18.43.31-18.72,19.02-18.67,17.87.05,18.87,1.07,18.86,19.33,0,17.63-.95,18.53-19.53,18.54Z"/>
  <path class="cls-1" d="M1321.09,1643.66c2.8,14.37-3.39,18.97-17.45,18.19-18.7-1.04-20.15-1.6-20.19-19.4-.04-17,2.15-18,20.68-19.13,16.4-1,19.11,7.21,16.96,20.34Z"/>
  <path class="cls-1" d="M1350.07,1661.59c-17.5.01-17.36-.6-18.23-19.62-.63-13.79,3.58-19.53,18.22-18.62,19.02,1.18,20.01,1.27,19.97,20.03-.04,17.13-1.2,18.2-19.96,18.21Z"/>
  <path class="cls-1" d="M1585.15,1661.58c-13.74,2.85-16.62-5.54-16.1-18.62.74-18.52,1.27-19.5,20.24-19.38,16.47.1,18.09,1.93,17.97,20.31-.11,16.99-1.04,17.8-22.11,17.69Z"/>
  <path class="cls-1" d="M562.64,1690.47c-.02,17.5-.97,18.39-19.56,18.32-17.72-.06-18.39-.76-18.43-19.36-.04-17.42,1.37-18.77,19.52-18.71,17.09.05,18.5,1.55,18.48,19.75Z"/>
  <path class="cls-1" d="M1159.78,1708.67c-17.82-.22-16.97-.33-17.9-21.29-.78-17.51,9.71-16.22,21.59-16.78,15.93-.76,17.13,8.47,16.76,20.45-.51,16.78-1.49,17.85-20.45,17.62Z"/>
  <path class="cls-1" d="M799.81,169.69c-.05,20.05-1.16,21.23-18.55,21.23-18.12,0-18.39-1.56-19.76-20.38-1.24-17.02,7.78-17.36,20.48-17.68,13.97-.35,20.61,3.86,17.82,16.83Z"/>
  <path class="cls-1" d="M1443.24,1708.77c-11.91,2.01-17.83-3.08-17.12-17.72.95-19.43,1.08-19.61,21.08-20.49,15.34-.67,17.74,7.21,17.31,19.84-.6,17.74-.75,18.34-21.28,18.37Z"/>
  <path class="cls-1" d="M1490.77,1708.77c-12.07,2.03-18.26-2.96-17.54-17.66.93-19.04,1.39-20.29,19.73-20.3,17.65,0,18.65,1.04,18.5,19.48-.14,18.48-.21,18.54-20.69,18.48Z"/>
  <path class="cls-1" d="M1824.23,1708.73c-17.36-.02-17.67-.37-17.66-19.87,0-17.03,1.21-17.33,20.01-18.26,14.59-.72,18.73,5.47,18.12,19.01-.85,18.77-.65,19.15-20.47,19.13Z"/>
  <path class="cls-1" d="M1748.66,1216.49c-.03,17.49-.46,17.25-19.72,18.03-13.9.56-19.34-4.22-18.45-18.58,1.13-18.24,1.66-19.7,18.86-19.66,18.62.04,19.35.8,19.31,20.21Z"/>
  <path class="cls-1" d="M952.05,1784.12c.13-17.06.76-17.6,20.12-17.45,17.3.14,17.97.88,17.86,19.93-.1,16.62-1.89,18.2-20.31,18.01-16.45-.17-17.8-1.74-17.66-20.49Z"/>
  <path class="cls-1" d="M1036.94,1783.14c-.08,20.29-1.41,21.52-20.51,21.37-16.23-.13-16.5-1.77-17.72-20.79-1.11-17.35,8.92-16.88,21.07-17.34,14.4-.54,20.2,4.85,17.16,16.75Z"/>
  <path class="cls-1" d="M1447.88,1766.6c12.37-2.1,17.48,3.81,16.71,18.11-1.01,18.74-1.36,19.94-19.93,19.93-17.02,0-18.29-1.39-18.28-19.89,0-17.21,1.03-18.15,21.5-18.15Z"/>
  <path class="cls-1" d="M1542.01,1766.77c14.39-3.62,17.1,5.09,17.05,18.82-.05,12.86-2.4,20.23-17.72,19.3-18.96-1.15-20.54-1.72-20.53-19.72,0-17.47.91-18.33,21.2-18.4Z"/>
  <path class="cls-1" d="M1586.01,1766.83c20.35,0,21.31.97,21.3,19.89-.01,16.25-2.01,18.01-20.37,18-16.63-.01-17.01-1.28-17.86-20.39-.63-14.2,4.19-20.38,16.93-17.5Z"/>
  <path class="cls-1" d="M1806.59,1783.02c-2.02-11.33,2.32-17.22,16.57-16.56,20.66.96,21.27.67,21.39,18.24.12,17.68-1.94,19.9-18.52,19.95-18.42.06-19.36-.91-19.43-21.64Z"/>
  <path class="cls-1" d="M1870.69,1766.71c20.47,0,21.07.56,21.04,18.45-.03,18.36-1.18,19.46-20.31,19.4-16.36-.05-16.84-1.63-17.95-20.51-.89-15.01,5.48-19.44,17.23-17.34Z"/>
  <path class="cls-1" d="M922.77,1851.83c-17.24-.05-17.94-.83-17.87-19.91.06-17.99.3-18.21,19.45-18.09,17.15.1,18.62,1.67,18.55,19.77-.07,16.89-1.6,18.28-20.12,18.23Z"/>
  <path class="cls-1" d="M1084.21,1831.41c-.12,19.86-.74,20.46-19.19,20.41-17.7-.04-18.86-1.32-18.69-20.68.14-16.3,1.55-16.4,20.45-17.6,16.24-1.04,19.38,6.62,17.43,17.88Z"/>
  <path class="cls-1" d="M1158.11,1851.82c-14.09,3.03-16.58-5.83-16.19-18.69.56-18.77.91-18.86,19.99-19.58,14.08-.53,19.09,4.81,18.36,18.8-.97,18.35-1.46,19.54-22.15,19.47Z"/>
  <path class="cls-1" d="M1321.51,1835.27c2.17,12.04-3.19,17.62-17.8,16.82-19.06-1.03-20.24-1.31-20.23-19.89,0-17.33,1.14-18.38,19.9-18.4,17.62-.02,18.09.49,18.13,21.46Z"/>
  <path class="cls-1" d="M1511.46,1831.38c-.12,19.97-.65,20.49-19.13,20.44-17.71-.05-19-1.47-18.92-20.89.06-15.44,2.36-16.44,21.1-17.41,15.5-.8,18.61,6.82,16.95,17.87Z"/>
  <path class="cls-1" d="M1585.08,1851.81c-15.43,3.45-15.23-7.39-16.05-19.79-1.01-15.3,5.22-19.29,19.34-18.46,17.68,1.03,18.86,1.45,18.81,19.28-.05,18.62-.49,19.02-22.1,18.98Z"/>
  <path class="cls-1" d="M1634.27,1813.78c19.48.1,19.79,1.24,20.5,20.91.55,15.12-7.1,17.79-19.81,17.3-17.85-.68-17.76-1.03-18.65-21.1-.68-15.32,6.72-18.7,17.97-17.11Z"/>
  <path class="cls-1" d="M1748.65,1833.7c-.08,17.68-.66,18.21-19.55,18.12-17-.08-17.8-1.86-18.62-21.38-.66-15.84,8.26-17.18,20.39-16.79,17.31.55,17.85.83,17.77,20.05Z"/>
  <path class="cls-1" d="M1616.5,1357.6c.04-17.82.56-18.3,19.5-18.21,17.95.09,18.57.75,18.5,19.43-.07,17.54-1.15,18.57-19.62,18.52-17.31-.05-18.42-1.24-18.38-19.74Z"/>
  <path class="cls-1" d="M714.84,551.27c0-18.39,1.05-19.48,18.65-19.5,18.16-.02,19.34,1.13,19.35,18.95.01,18.26-.72,18.99-19.06,19.01q-18.95.03-18.94-18.46Z"/>
  <path class="cls-1" d="M1825.66,1339.35c18.07.06,18.89.89,18.92,19.23.03,17.55-1.48,18.16-21.03,19.03-14.14.63-17.59-5.68-17.13-18.37.73-19.85.3-19.95,19.24-19.89Z"/>
  <path class="cls-1" d="M799.85,550.68c.04,18.52-.45,19.03-18.63,19.03-18.5,0-19.32-.77-19.35-18.52-.03-17.84,1.51-19.44,18.75-19.45,17.83,0,19.19,1.33,19.24,18.94Z"/>
  <path class="cls-1" d="M920.47,569.71c-14.17,3.01-16.28-5.87-15.77-18.77.73-18.45.95-19.24,18.94-19.16,18.18.07,19.22,1.11,19.21,19.08,0,18.17-.8,18.9-22.39,18.86Z"/>
  <path class="cls-1" d="M989.99,550.13c-.07,18.84-1.09,18.8-21.27,19.87-15.78.84-17.37-7.29-16.86-19.72.7-16.98,2.26-18.11,21.37-18.77,15.39-.53,18.15,7.67,16.76,18.62Z"/>
  <path class="cls-1" d="M1037.02,551.58c-.02,18-.2,18.17-19.33,18.12-18.25-.05-18.07-.54-18.86-19.16-.58-13.77,4.24-19.5,18.41-18.93,19.1.77,19.8.82,19.77,19.97Z"/>
  <path class="cls-1" d="M1379.3,550.5c.04-17.87,1.2-18.25,20.73-19.04,15.1-.61,17.29,7.12,17.66,19.83.41,14.05-4.41,19.32-18.49,18.7-19.42-.84-19.94-.7-19.9-19.49Z"/>
  <path class="cls-1" d="M1748.66,552.46c-.09,16.93-.68,17.44-20.26,17.29-16.85-.13-17.91-1.35-17.74-20.39.15-16.32,1.76-17.68,20.78-17.54,16.72.12,17.32.84,17.22,20.64Z"/>
  <path class="cls-1" d="M1037,1404.46c-.12,19.25-1.03,20.12-19.39,19.97-17.43-.14-18.69-1.47-18.6-19.61.09-17.64,1.15-17.72,21.22-18.59,15.47-.66,18.48,6.96,16.77,18.23Z"/>
  <path class="cls-1" d="M1824.73,569.69c-17.61-.01-18.19-.63-18.11-19.46.07-17.4,1.24-18.51,19.46-18.52,16.85,0,18.52,1.79,18.44,19.86-.08,17.41-.86,18.13-19.79,18.12Z"/>
  <path class="cls-1" d="M208.98,617.02c-12.86,2.89-16.68-4.22-16.04-17.9.86-18.59,1.6-20.22,18.03-20.21,17.42.02,20.02,2.66,19.96,20.3-.06,16.98-.99,17.81-21.94,17.81Z"/>
  <path class="cls-1" d="M1064.22,616.97c-11.24,1.9-18.8-1.35-18.17-16.73.76-18.42,2.2-21.17,17.58-21.29,18.64-.15,20.42,1.36,20.55,17.51q.17,20.26-19.97,20.51Z"/>
  <path class="cls-1" d="M1084.15,646.17c-.01,18.33-1,19.35-18.64,19.38-17.3.03-18.66-1.97-19.46-19.17-.62-13.36,2.87-19.94,17.87-19.08,20.19,1.15,20.24.34,20.23,18.88Z"/>
  <path class="cls-1" d="M1113.65,627.62c18.21.03,19.06.88,19.04,18.86-.03,17.19-2.25,18.48-20.78,19.42-15.35.78-17.73-7.09-17.28-19.79.65-18.39.28-18.53,19.02-18.5Z"/>
  <path class="cls-1" d="M448.39,1471.47c-17.99-.06-17.1-.11-18.23-20.86-.85-15.75,7.22-17.66,19.7-17.26,16.94.55,18.46,1.77,18.34,20.03-.11,17.3-1.05,18.16-19.81,18.09Z"/>
  <path class="cls-1" d="M609.67,1455.89c3.52,16.31-8.04,15.35-20.24,15.91-14.66.68-18.65-5.58-17.91-19.2.97-17.95,1.68-19.27,20.99-19.09,16.36.15,17.28,1.27,17.16,22.38Z"/>
  <path class="cls-1" d="M732.37,1471.47c-17.5-.07-17.66-.26-17.52-19.97.13-17.05,1.37-18.16,20.08-17.99,16.74.15,17.92,1.5,17.86,20.53-.06,16.97-.68,17.51-20.42,17.43Z"/>
  <path class="cls-1" d="M372.52,693.61c-.03,18.4-1.07,18.65-20.33,19.48-14.86.64-18.38-6.29-17.85-19.45.71-17.7,1.29-18.8,19.56-18.81q18.64,0,18.62,18.78Z"/>
  <path class="cls-1" d="M562.64,694.48c-.06,17.45-1.11,18.43-19.76,18.35-17.53-.07-18.22-.83-18.17-19.96.05-17.38.87-18.13,19.8-18.06,17.65.06,18.19.65,18.12,19.67Z"/>
  <path class="cls-1" d="M989.97,1453.84c-.11,17.01-.84,17.65-20.16,17.59-17.6-.05-17.84-.33-17.74-19.67.09-16.67,1.91-18.32,20.01-18.22,16.86.1,18.01,1.41,17.89,20.3Z"/>
  <path class="cls-1" d="M781.7,674.84c17.66.09,18.23.7,18.14,19.65-.08,16.98-1.65,18.43-19.83,18.34-16.84-.09-18.18-1.58-18.13-20.1.05-17.31.79-17.98,19.82-17.89Z"/>
  <path class="cls-1" d="M952.05,692.58c.06-17.34.64-17.87,19.85-17.75,17.48.1,17.51.88,18.29,19.82.58,14.1-4.74,19.08-18.72,18.36-18.58-.96-19.48-1.15-19.42-20.43Z"/>
  <path class="cls-1" d="M1258.68,674.79c13.35-2.85,16.34,5.12,15.75,18.46-.84,18.91-.79,18.75-20.14,19.71-14.56.72-18.77-5.5-18.21-19.02.76-18.3,1.15-19.21,22.6-19.15Z"/>
  <path class="cls-1" d="M1853.74,692.5c.04-17.36.36-17.64,19.9-17.62,17.49.02,17.47.84,18.36,19.65.69,14.39-5.18,19.02-18.83,18.51-18.38-.69-19.48-1.28-19.43-20.54Z"/>
  <path class="cls-1" d="M495.38,759.84c-17.08-.08-17.85-.94-17.74-19.95.1-17.23,1.08-18.12,19.92-18,17.03.1,18.1,1.3,18.01,20.2-.08,17.18-.85,17.85-20.19,17.76Z"/>
  <path class="cls-1" d="M1397.11,759.85c-17.23-.14-17.87-.85-17.77-19.96.09-17.4.84-18.08,19.84-18.01,17.3.06,18.27,1.13,18.15,20.02-.11,16.91-1.44,18.09-20.22,17.95Z"/>
  <path class="cls-1" d="M1511.39,743.7c2.5,13.15-4.56,17.11-18.33,16.35-18.78-1.03-19.75-1.3-19.61-20.23.12-16.84,1.49-18.05,20.29-17.95,17.14.09,17.74.77,17.65,21.83Z"/>
  <path class="cls-1" d="M1748.64,741.86c-.08,17.54-.64,18.06-19.61,18-16.9-.05-18.42-1.7-18.33-19.88.08-16.91,1.49-18.18,20.1-18.08,16.96.09,17.93,1.18,17.85,19.97Z"/>
  <path class="cls-1" d="M1654.48,1452.44c-.13,18.49-.95,19.2-20.19,19.02-17.38-.16-17.9-.74-17.75-19.95.13-16.87,1.78-17.61,21.58-18.22,15.8-.49,17.55,8.47,16.36,19.14Z"/>
  <path class="cls-1" d="M1683.86,1433.6c12.86-2.03,18.39,3.8,17.9,17.95-.68,19.45-.59,19.47-19.3,20.17-13.08.49-19.95-2.69-19.13-17.75,1.04-19.28,1.07-20.29,20.54-20.37Z"/>
  <path class="cls-1" d="M1822.54,1471.46c-12.22,2.37-16.75-3.63-16.12-17.14.95-20.31.96-21.01,20.35-20.84,16.51.15,17.81,1.65,17.75,20.52-.05,16.88-.88,17.59-21.98,17.47Z"/>
  <path class="cls-1" d="M1891.74,1454.04c-.07,16.8-.95,16.76-20.27,17.68-14.5.69-18.78-5.03-17.99-18.83,1.02-17.69,1.98-19.49,19.03-19.4,18.25.09,19.31,1.22,19.23,20.55Z"/>
  <path class="cls-1" d="M609.7,789.63c-.1,17.17-.56,17.57-20.16,17.39-16.9-.15-17.94-1.34-17.8-20.29.13-16.61,1.62-17.91,20.52-17.75,16.63.14,17.56,1.23,17.44,20.65Z"/>
  <path class="cls-1" d="M640.89,1518.76c-20.67.01-21.76-1.01-21.76-18.38,0-17.32,2.14-19.51,19.1-19.54,17.97-.03,18.21.88,18.98,19.04.59,13.87-2.47,22.29-16.32,18.88Z"/>
  <path class="cls-1" d="M752.75,788.22c.02,18.01-.7,18.72-19.14,18.73-18.68,0-18.76-.08-18.76-18.71,0-18.5.73-19.24,18.81-19.22,17.55.02,19.06,1.54,19.08,19.2Z"/>
  <path class="cls-1" d="M989.97,1500.54c.05,17.69-.55,18.25-19.38,18.24-18.24-.01-17.72-.31-18.76-18.95-.78-13.9,3.79-19.67,18.05-19.17,18.56.66,20.04,1.5,20.09,19.87Z"/>
  <path class="cls-1" d="M1464.35,788.81c-.04,17.17-1.23,18.28-19.58,18.28-17.3,0-18.42-1.2-18.36-19.54.06-17.3,1.43-18.59,19.63-18.58,17.1.01,18.35,1.36,18.3,19.84Z"/>
  <path class="cls-1" d="M1584.85,806.97c-15.36,3.84-15.33-7.03-15.81-19.72-.54-14.21,4.68-19.16,18.67-18.41,18.28.99,19.6,1.67,19.51,20.4-.08,17.1-.92,17.84-22.37,17.73Z"/>
  <path class="cls-1" d="M1663.58,786.37c-2.06-12.5,3.74-18.12,17.95-17.54,18.62.75,20,1.48,19.99,19.86,0,17.81-.62,18.39-19.31,18.32-17.86-.06-18.67-.9-18.63-20.64Z"/>
  <path class="cls-1" d="M193.15,881.05c-2.85-13.09,4.33-17.03,18-16.4,18.4.84,19.86,1.55,19.78,18.44-.09,18.17-1.67,19.72-20.07,19.7-17.26-.02-17.75-.57-17.71-21.74Z"/>
  <path class="cls-1" d="M278.28,884.51c-.07,16.96-2,17.81-21.38,18.65-16.12.7-16.13-8.61-16.83-20.45-.85-14.43,4.57-18.85,18.5-18.09,19.1,1.04,19.78.93,19.7,19.9Z"/>
  <path class="cls-1" d="M591.4,864.9q18.33.01,18.31,19.05c-.05,18.17-.83,18.93-19.15,18.91-17.48-.02-18.83-1.43-18.8-19.6.02-17.46,1.01-18.37,19.64-18.36Z"/>
  <path class="cls-1" d="M1417.3,883.29c0,17.69-1.92,19.71-18.7,19.7-18.16-.01-18.41-1.34-19.58-20.52-.91-14.99,5.35-18.42,18.81-17.79,18.66.87,19.47.94,19.47,18.62Z"/>
  <path class="cls-1" d="M1701.54,883.79c-.06,17.42-1.95,19.3-19.18,19.18-16.98-.12-18.82-2.05-18.76-19.66.06-18.06.4-18.39,19.28-18.38,18.46.01,18.72.28,18.66,18.86Z"/>
  <path class="cls-1" d="M477.68,932.03c.09-19.62.52-20.03,19.2-19.96,17.69.06,18.79,1.2,18.73,19.37-.06,17.62-1.41,17.94-21.15,18.84-15.65.72-18.33-7.22-16.77-18.25Z"/>
  <path class="cls-1" d="M593.72,912.04c13.6-2.87,16.75,5.06,16.2,18.4-.78,19.01-.86,18.97-20.02,19.78-14.3.6-18.91-5.2-18.26-18.92.87-18.67.92-19.32,22.09-19.26Z"/>
  <path class="cls-1" d="M733.09,949.98c-17.7-.03-17.33-.76-18.55-21.06-.95-15.85,7.02-17.53,19.55-17.03,17.42.69,18.72,1.54,18.72,19.6,0,17.47-1.14,18.53-19.72,18.5Z"/>
  <path class="cls-1" d="M1398.24,912.04c17.7-.03,19.02,1.3,19.07,19.17.05,17.36-1.46,18.05-19.43,19.07-13.92.79-19.44-3.81-18.8-18.15.87-19.68.48-20.05,19.15-20.08Z"/>
  <path class="cls-1" d="M1511.4,929.66c-.18,19.84-1.05,19.84-20.74,20.6-15.29.59-17.84-7.21-17.32-19.86.7-17.15,1.83-17.51,21.44-18.59,15.89-.88,18.34,6.99,16.62,17.85Z"/>
  <path class="cls-1" d="M1872.48,1813.81c18.38,0,19.27.87,19.27,18.71,0,18.11-1.13,19.27-18.91,19.31-18.36.04-19-.59-19.03-18.88-.03-18.53.56-19.14,18.68-19.14Z"/>
  <path class="cls-1" d="M257.55,1092.59c-12.8,2.44-17.95-3.67-17.4-17.83.45-11.59-.37-21.16,16.35-20.26,21.08,1.13,21.63.56,21.81,17.73.21,19.41-.5,20.16-20.76,20.36Z"/>
  <path class="cls-1" d="M1607.09,1074.19c1.6,12.96-2.6,19.47-16.68,18.78-20.93-1.03-20.06-.91-21.38-21.59-1.17-18.21,9.78-16.15,21.31-16.79,15.26-.85,18.79,6.99,16.75,19.6Z"/>
  <path class="cls-1" d="M240.36,1120.3c.11-17.91.54-17.45,20.88-18.38,15.41-.71,17.85,6.99,17.31,19.71-.72,17-2.3,18.81-21.45,18.61-15.23-.16-16.85-2.09-16.74-19.94Z"/>
  <path class="cls-1" d="M1396.06,1102.21c20.01-.02,21.14,1.05,21.23,18.49.09,17.48-1.77,19.39-18.85,19.43-18.52.04-18.33-.61-19.33-20.35-.73-14.49,4.71-19.94,16.95-17.57Z"/>
  <path class="cls-1" d="M1683,1102.21c17.82.02,18.07.89,18.75,19.1.5,13.37-3.56,19.76-18.09,19.04-18.37-.91-20.12-1.9-20.06-19.87.07-17.67.74-18.3,19.39-18.28Z"/>
  <path class="cls-1" d="M477.6,1165.58c-2.44-12.77,4.29-17.18,18.16-16.54,18.71.85,19.84,1.27,19.8,19.97-.03,16.77-1.66,18.25-19.99,18.19-16.97-.06-17.99-1.17-17.97-21.61Z"/>
  <path class="cls-1" d="M752.82,1166.42c-.16,19.73-1.32,20.84-20.27,20.76-16.91-.07-17.89-1.18-17.72-20.06.16-17.52.69-17.4,19.85-18.06,13.92-.48,20.28,4.54,18.14,17.36Z"/>
  <path class="cls-1" d="M1871.69,1187.19c-17.24-.06-17.97-.87-17.93-19.93.04-16.82,1.48-18.12,19.94-18.04,17.28.08,18.16,1.05,18.05,19.89-.1,17.23-1.11,18.14-20.06,18.07Z"/>
  <path class="cls-1" d="M255.79,1234.28c-15.72,3.37-15.82-7.79-15.44-20.21.53-17.29.99-17.98,20.12-17.78,16.41.18,17.9,1.9,17.82,20.5-.08,16.48-1.45,17.65-22.5,17.49Z"/>
  <path class="cls-1" d="M1654.49,1217.62c2.95,13.66-4.92,17.19-18.23,16.83-18.77-.51-19.22-.77-19.84-18.2-.44-12.23.95-20.93,16.78-20.26,19.92.84,21.14,1.21,21.29,21.63Z"/>
  <path class="cls-1" d="M1701.55,1216c-.05,17.51-1.01,18.41-19.44,18.35-17.7-.06-17.9-.99-18.72-19.44-.61-13.77,4.03-19.51,18.33-18.81,19.01.92,19.89,1.09,19.84,19.9Z"/>
  <path class="cls-1" d="M1822.17,1234.25c-15.9,3.5-15.24-7.82-15.85-20.18-.72-14.64,5.2-18.76,18.98-17.99,18.1,1.02,19.34,1.57,19.28,20.76-.05,16.64-1.03,17.47-22.41,17.41Z"/>
  <path class="cls-1" d="M524.71,1594.48c.06-17.31.79-17.96,19.88-17.87,17.21.08,18.11,1.07,18.06,19.81-.05,17.1-1.35,18.29-19.88,18.14-16.91-.13-18.13-1.49-18.06-20.08Z"/>
  <path class="cls-1" d="M1874.4,1234.26c-20.08-.16-20.73-.81-20.61-18.78.12-17.8,1.56-19.26,18.99-19.16,17.8.09,18.22,1.51,19.23,20.79.8,15.2-6.18,18.98-17.61,17.15Z"/>
  <path class="cls-1" d="M942.88,1595.39c-.03,18.16-1.31,18.39-20.56,19.48-15.29.87-18.12-6.22-17.61-19.27.72-18.66.5-19.02,18.8-18.99,18.55.03,19.4.86,19.37,18.79Z"/>
  <path class="cls-1" d="M430.38,1263.13c-.01-18.62.77-19.46,18.37-19.51,17-.05,19.76,2.6,19.76,18.93,0,17.31-1.72,19-19.27,18.98q-18.83-.02-18.85-18.41Z"/>
  <path class="cls-1" d="M1274.26,1597.28c1.74,11.74-2.72,18.27-17.6,17.55-19.36-.93-19.83-1.13-20.63-19.54-.59-13.55,3.62-19.61,18.16-18.92,19.63.93,20,.5,20.07,20.9Z"/>
  <path class="cls-1" d="M1347.33,1281.5c-13.82,3-16.02-5.76-15.46-18.59.8-18.3,1.32-19.37,18.83-19.38,17.64,0,19.53,2.02,19.37,20.77-.14,15.92-1.82,17.3-22.74,17.2Z"/>
  <path class="cls-1" d="M1511.38,1594.01c-.05,19.87-.74,19.94-18.98,20.72-13.46.58-19.79-3.5-19.1-18.07.93-19.69.77-19.26,21.16-20.36,15.57-.84,18.73,6.47,16.92,17.71Z"/>
  <path class="cls-1" d="M1824.15,1614.57c-16.89-.01-16.75-.84-17.77-20.27-.77-14.55,4.9-18.73,18.68-17.94,18.13,1.05,19.54,1.62,19.51,18.91-.03,18.37-1.04,19.31-20.42,19.3Z"/>
  <path class="cls-1" d="M1084.12,123.87c-.05,18.69-.09,17.91-20.21,18.83-14.84.68-18.46-5.93-17.85-19.18.76-16.63,2.65-19.04,19.78-19.03,17.73.01,18.34.66,18.28,19.38Z"/>
  <path class="cls-1" d="M165.55,1292.41c16.45-3.7,17.52,6.7,17.06,19.56-.61,16.93-1.49,18.09-20.14,17.96-16.65-.12-17.45-2.03-18.21-21.65-.63-16.25,8.71-17.17,21.29-15.86Z"/>
  <path class="cls-1" d="M752.8,1642.97c.04,17.6-1.04,18.63-19.45,18.63s-18.46-.12-18.51-19.04c-.04-18.24.65-18.93,19.02-18.89,17.66.03,18.89,1.29,18.94,19.3Z"/>
  <path class="cls-1" d="M827.66,1661.59c-17.52-.04-18.26-1.63-18.99-20.95-.57-15.32,7.47-17.62,20.06-17.15,17.64.65,18.25.81,18.2,19.7-.05,18.09-.42,18.44-19.27,18.4Z"/>
  <path class="cls-1" d="M922.6,1661.58c-17.55,0-17.74-.22-17.7-19.83.03-17.61.73-17.55,19.62-18.37,14.17-.61,19.13,5,18.55,18.8-.77,18.35-1.27,19.4-20.46,19.4Z"/>
  <path class="cls-1" d="M1017.54,1661.61c-17.39-.03-18.6-1.3-18.51-19.52.08-16.71,1.93-18.44,19.76-18.5,17.12-.06,18.36,1.27,18.25,19.69-.11,17.38-1.15,18.35-19.5,18.32Z"/>
  <path class="cls-1" d="M240.42,1309.64c.18-17.64.27-16.87,21.35-17.83,15.96-.73,17.25,7.7,16.68,20.05-.77,16.69-2.26,18.33-21.87,18.14-15.17-.15-16.35-1.64-16.16-20.36Z"/>
  <path class="cls-1" d="M1349.31,153.11c20.01.05,20.1.9,20.88,20.83.6,15.4-7.86,17.57-20.17,17.27-16.9-.42-16.95-1.26-18.14-20.13-.99-15.65,5.6-20.18,17.43-17.97Z"/>
  <path class="cls-1" d="M1493.82,153.02c17.59.34,17.25.97,17.89,21.33.5,15.8-7.95,17.4-20.26,16.82-16.29-.78-17.3-2.87-18.26-22.25-.83-16.88,9.17-16.59,20.63-15.89Z"/>
  <path class="cls-1" d="M846.93,1307.67c.14,21.04-1.07,22.37-18.86,22.43-17.56.06-18.21-1.34-19.21-19.25-.76-13.66,3.21-19.75,17.9-19,12.26.63,23.7-.27,20.17,15.81Z"/>
  <path class="cls-1" d="M1490.82,1661.59c-12.44,1.93-18.23-3.72-17.58-17.98.86-18.78,1.53-20.08,19.89-20.02,17.37.06,18.45,1.21,18.36,19.57-.09,17.7-.92,18.5-20.68,18.42Z"/>
  <path class="cls-1" d="M1541.61,1661.62c-20.17-.17-20.9-.91-20.76-19.01.14-18.34,1.2-18.19,21.61-19.32,17.94-.99,15.72,10.25,16.52,21.53,1.06,14.96-6.02,19.07-17.37,16.8Z"/>
  <path class="cls-1" d="M1016.78,1292.09c20.36.26,19.93.62,20.49,22.49.44,17.17-10.85,15.36-21.54,15.41-14.7.08-16.13-3.04-16.97-21.67-.73-16.16,8.05-17.63,18.02-16.24Z"/>
  <path class="cls-1" d="M1872.77,1623.61c17.82,0,18.99,1.19,18.98,19.16,0,18.33-.48,18.8-19.1,18.83-18.15.03-18.93-.75-18.95-18.93-.03-17.85,1.19-19.07,19.07-19.06Z"/>
  <path class="cls-1" d="M846.96,219.46c-.08,17.94-1.07,18.92-19.18,18.9-17.28-.02-18.9-1.84-18.8-21.02.08-15.75,1.75-17.09,21.08-16.93,16.5.14,16.98.68,16.9,19.06Z"/>
  <path class="cls-1" d="M590.34,1708.76c-17.56-.04-18.64-1.17-18.62-19.35.02-17.47,1.38-18.02,19.65-18.88,14.06-.66,19.23,4.51,18.61,18.54-.86,19.28-.65,19.74-19.64,19.69Z"/>
  <path class="cls-1" d="M667.69,1692.05c.05-20.77.72-21.43,19.92-21.32,16.98.1,17.9,1.15,17.83,20.32-.06,16.83-1.14,16.9-20.38,17.94-14.71.79-19.95-4.73-17.37-16.93Z"/>
  <path class="cls-1" d="M730.12,1708.71c-15.38,3.89-15.72-7.1-15.39-19.62.46-17.15,1.46-18.42,19.53-18.37,17.12.04,18.59,1.58,18.54,19.43-.05,18.11-.64,18.64-22.68,18.56Z"/>
  <path class="cls-1" d="M1111.21,1708.72c-13.04,2.76-17.21-4.09-16.6-17.97.84-19.06.97-19.93,19.8-19.92,16.57,0,18.21,1.79,18.26,19.86.05,17.26-.74,17.98-21.46,18.04Z"/>
  <path class="cls-1" d="M1019.18,200.5c17.69.03,17.94.31,17.85,19.61-.08,16.76-1.76,18.29-19.95,18.19-16.64-.09-18.17-1.8-18.07-20.21.1-17.16.64-17.64,20.17-17.6Z"/>
  <path class="cls-1" d="M1189.17,1689.98c-.02-17.44,1.85-19.32,19.05-19.24,17.64.09,18.07,1.59,19.23,20.79.94,15.5-6.73,17.75-19.41,17.35-18.46-.59-18.86-.49-18.87-18.9Z"/>
  <path class="cls-1" d="M1083.8,220.16c2.99,14.94-4.1,19.02-17.88,18.35-18.4-.9-19.8-1.66-19.64-20.39.15-17.05,1.11-16.86,20.37-18.06,16.3-1.01,19.6,6.63,17.16,20.1Z"/>
  <path class="cls-1" d="M1180.06,218.03c-.24,19.45-1.46,20.55-20.91,20.33-16.12-.18-17.18-1.5-16.98-20.98.17-16.51,1.12-16.65,20.56-17.24,14.47-.44,19.72,5.51,17.33,17.89Z"/>
  <path class="cls-1" d="M1511.45,218.27c.05,18.49-1.27,19.97-18.07,20.08-17.98.12-19.34-1.83-20.12-19.99-.55-12.86,3.33-18.72,17.23-18.19,20.78.79,20.92.21,20.97,18.1Z"/>
  <path class="cls-1" d="M1538.15,1708.69c-12.27,1.89-18.34-3.06-17.49-17.74,1.1-19.04,1.44-19.19,21.33-20.27,14.67-.8,17.27,6.28,16.96,18.41-.49,19.4-.45,19.69-20.8,19.6Z"/>
  <path class="cls-1" d="M1569.25,1691.95c.15-20.23,1.4-20.63,20.72-21.37,15.05-.58,17.97,6.79,17.41,19.68-.78,17.92-1.06,17.66-21.13,18.78-15.52.87-18.91-6.23-17-17.09Z"/>
  <path class="cls-1" d="M543.45,294.54c18.21-.03,19.19.95,19.21,19.07.01,18.27-.65,18.93-18.86,18.94-18.77,0-19.1-.31-19.1-18.48,0-17.96,1.48-19.5,18.76-19.53Z"/>
  <path class="cls-1" d="M594.1,1766.66c13.95-2.88,16.43,5.68,15.85,18.73-.81,18.32-1.26,19.29-20.53,19.16-16.61-.11-17.86-1.56-17.69-20.58.14-16.6,1.13-17.43,22.37-17.31Z"/>
  <path class="cls-1" d="M1274.19,317.28c4.12,15.89-7.55,15.6-19.89,15.34-17.04-.37-17.46-1.35-18.29-20.05-.64-14.49,5.66-18.78,19.13-18.24,18.28.73,19.06,1.02,19.05,22.96Z"/>
  <path class="cls-1" d="M182.45,1356.45c-.15,20.68-.48,20.99-20.47,20.86-16.14-.1-17.59-1.83-17.47-20.88.09-15.96,1.65-16.3,21.02-17.31,15.29-.79,19.16,5.94,16.92,17.33Z"/>
  <path class="cls-1" d="M1332.1,363.03c.07-20.06,1.31-21.34,18.86-21.26,17.64.07,19.09,1.55,19.04,19.34-.05,18.14-.81,17.97-20.73,18.92-14.83.71-19.75-5.12-17.17-16.99Z"/>
  <path class="cls-1" d="M1379.36,1782.21c-4.24-15.7,7.36-15.21,19.7-15.78,13.97-.64,19.31,4.32,18.46,18.63-1.05,17.59-2.12,19.64-18.89,19.66-18.41.01-19.28-.9-19.27-22.5Z"/>
  <path class="cls-1" d="M353.52,1377.37c-17.8.06-18.91-1.08-18.96-19.38-.05-17.58.91-18.49,19.49-18.59q18.47-.09,18.5,18.93c.03,18.04-.91,18.98-19.03,19.04Z"/>
  <path class="cls-1" d="M1473.47,1784.62c.09-17.17,1.25-16.9,21.51-18.25,18.16-1.2,16.01,9.84,16.72,21.35.96,15.55-7.54,17.55-20.04,17.03-16.94-.7-18.29-1.72-18.19-20.14Z"/>
  <path class="cls-1" d="M780.69,437.62c18.71-.05,19.17.39,19.17,18.41,0,18.1-1.37,19.54-18.62,19.54-17.97,0-19.33-1.33-19.37-18.94-.04-18.11.79-18.95,18.82-19Z"/>
  <path class="cls-1" d="M846.96,456.86c-.05,18.16-.68,18.78-19.2,18.72-17.37-.05-18.74-1.48-18.71-19.57.03-17.3,1.21-18.4,19.66-18.38,18.11.02,18.29.21,18.24,19.23Z"/>
  <path class="cls-1" d="M1701.47,1783.83c.06,19.76-.75,20.65-18.75,20.72-18.4.08-18.29-.78-19.43-20.44-.88-15.26,6.52-18.1,19.29-17.71,17.8.55,18.85,1.09,18.89,17.42Z"/>
  <path class="cls-1" d="M904.89,455.53c.05-17.92.15-18.01,19.49-17.91,17.33.09,18.57,1.41,18.47,19.69-.09,16.64-2.01,18.39-20,18.3-16.98-.09-18.02-1.24-17.97-20.08Z"/>
  <path class="cls-1" d="M952.02,455.3c.08-17.23.69-17.77,19.9-17.65,17.44.11,18.19.93,18.08,19.81-.1,16.84-1.65,18.24-20.08,18.12-16.79-.11-17.98-1.46-17.89-20.27Z"/>
  <path class="cls-1" d="M846.93,1358.59c-.02,17.73-1.12,18.79-19.38,18.76-17.46-.03-17.57-1.29-18.73-21.14-.94-16.08,7.76-17.24,19.88-16.95,18.15.43,18.25.2,18.23,19.34Z"/>
  <path class="cls-1" d="M970.75,1813.82c18.02-.02,19.21,1.13,19.26,18.71.05,17.96-1.25,19.29-18.91,19.3-18.12,0-19.1-.96-19.08-18.93.01-18.09.96-19.05,18.73-19.08Z"/>
  <path class="cls-1" d="M990.02,1357.28c.08,18.75-1.29,19.52-19.64,20.33-13.97.62-19.18-4.55-18.54-18.64.86-19.09.46-19.46,18.18-19.59,18.83-.13,19.93.85,20.01,17.89Z"/>
  <path class="cls-1" d="M1112.97,1851.82c-17.78-.04-17.29-.47-18.4-20.83-.81-14.96,5.79-18,18.94-17.37,18.81.9,19.15.58,19.15,20.31,0,16.64-1.42,17.93-19.69,17.89Z"/>
  <path class="cls-1" d="M1227.18,457.11c-.06,17.08-1.64,18.56-19.68,18.45-16.99-.1-18.34-1.57-18.29-19.8.05-17.39,1.05-18.32,19.56-18.16,17.71.15,18.47.96,18.4,19.51Z"/>
  <path class="cls-1" d="M1258.37,437.56c13.35-2.72,16.69,4.94,16.05,18.45-.88,18.44-1.29,19.61-18.73,19.58-18.26-.03-19.53-1.37-19.47-20.46.05-16.68,1.12-17.61,22.15-17.57Z"/>
  <path class="cls-1" d="M1396.81,1851.82c-16.8-.07-17.64-1.04-17.48-20.31.14-17.3.87-17.27,19.98-17.97,14.27-.52,18.86,5.31,18.15,19.04-.95,18.39-1.24,19.32-20.66,19.24Z"/>
  <path class="cls-1" d="M1189.19,1356.79c.08-16.95.79-17.55,20.28-17.42,17.2.12,17.13.92,17.96,20.1.63,14.6-5.75,18.69-19.12,18.15-17.82-.73-19.21-1.68-19.12-20.83Z"/>
  <path class="cls-1" d="M1398.21,484.69c17.94-.04,18.54,1.15,19.31,19.04.58,13.36-3.28,19.82-17.98,19.15-19.8-.9-20.25-.55-20.24-19.3,0-18.22.63-18.85,18.91-18.89Z"/>
  <path class="cls-1" d="M1823.86,484.68c19.64.15,20.95,1.58,20.7,20.69-.21,15.9-2.19,16.39-20.95,17.63-17.44,1.15-16.67-8.93-17.28-21.04-.75-14.88,5.81-19.32,17.53-17.28Z"/>
  <path class="cls-1" d="M493.08,569.68c-15.78,3.5-15.99-7.59-15.56-20.13.58-17.23,1.06-17.95,20.28-17.78,16.69.14,17.98,1.62,17.82,20.56-.14,16.63-1.16,17.49-22.53,17.35Z"/>
  <path class="cls-1" d="M562.64,1642.87c0,17.76-1.02,18.75-19.2,18.74-18.16,0-18.71-.57-18.74-19.02-.03-17.91,1.02-18.96,19.1-18.96,17.82,0,18.84,1.04,18.84,19.24Z"/>
  <path class="cls-1" d="M1682.87,1576.61c18.13.04,18.74.67,18.7,19.05-.04,17.87-1.13,18.95-19.16,18.89-17.73-.06-18.92-1.28-18.86-19.25.06-17.56,1.26-18.73,19.32-18.69Z"/>
  <path class="cls-1" d="M1634.99,569.72c-17.77-.09-18.49-.83-18.45-19.21.04-17.79,1.27-18.26,20.79-19,15.06-.57,17.81,7.16,17.32,19.85-.67,17.44-1.26,18.46-19.66,18.36Z"/>
  <path class="cls-1" d="M1891.75,1595.71c-.01,17.57-1.34,18.88-19.27,18.88-17.23,0-18.85-1.66-18.79-19.33.06-18.09.68-18.69,19.25-18.6,18.14.08,18.82.77,18.8,19.06Z"/>
  <path class="cls-1" d="M1682.09,522.7c-17.32-.02-18.55-1.32-18.5-19.6.04-17.39,1.16-18.43,19.6-18.4,17.75.04,18.39.72,18.36,19.45-.03,17.56-1.09,18.57-19.46,18.55Z"/>
  <path class="cls-1" d="M1891.75,1358.45c-.04,17.46-1.56,18.94-19.45,18.92-17.3-.02-18.59-1.39-18.58-19.64,0-17.85.61-18.43,19.31-18.34,18.09.08,18.77.77,18.73,19.06Z"/>
  <path class="cls-1" d="M1464.34,1595.36c.03,18.35-.85,18.39-20.29,19.39-14.86.76-18.29-6.11-17.8-19.19.68-18.05.97-18.88,19.01-18.96,18.23-.08,19.04.72,19.07,18.76Z"/>
  <path class="cls-1" d="M1748.65,789.64c-.06,16.9-.87,16.97-20.07,17.68-14.35.53-18.76-5.48-18.08-19.15.89-17.86,1.49-19.18,19.3-19.15,18.21.04,18.92.82,18.85,20.61Z"/>
  <path class="cls-1" d="M1426.4,978c.04-17.81,1.21-18.98,19.13-18.95,17.91.03,18.15,1.21,19.08,20.75.72,15.12-6.39,18.07-19.41,17.47-18.09-.84-18.84-1.03-18.8-19.27Z"/>
  <path class="cls-1" d="M1683.42,997.03c-19.05-.17-20-1.2-19.82-19.62.17-17.04,2.03-18.64,21.29-18.36,15.63.23,15.99,1.84,16.88,21.43.71,15.82-7.56,17.97-18.35,16.55Z"/>
  <path class="cls-1" d="M1511.47,790.77c2.71,13-4.18,17.08-18.06,16.39-19.24-.97-20.03-1.02-19.95-19.78.07-17.02,1.63-18.46,19.9-18.38,17.06.08,18.16,1.3,18.11,21.77Z"/>
  <path class="cls-1" d="M1417.34,1358.81c-.11,17.57-1.49,17.89-21.17,18.82-15.86.75-17.36-7.76-16.94-20.04.6-17.85.69-18.29,19.47-18.18,17.74.1,18.76,1.17,18.65,19.4Z"/>
  <path class="cls-1" d="M1680.83,1623.58c19.72.03,20.7.98,20.73,18.8.03,18.6-.55,19.2-18.62,19.22-18.39.02-18.85-1.13-19.57-20.07-.54-14.2,5.11-19.89,17.46-17.95Z"/>
  <path class="cls-1" d="M1634.75,1661.58c-17.49-.01-18.25-.83-18.21-19.46.05-17.23,1.39-18.5,19.55-18.51,17.57,0,18.47.96,18.44,19.69-.03,17.25-1.15,18.29-19.79,18.28Z"/>
  <path class="cls-1" d="M1274.29,1644.47c1.85,11.83-2.81,18.13-17.59,17.38-19.32-.97-19.82-1.14-20.63-19.34-.59-13.41,3.49-19.76,18.06-19.1,19.35.87,20.08.83,20.16,21.06Z"/>
  <path class="cls-1" d="M657.01,601.17c3.68,14.67-6.06,16.4-19.33,15.9-18.06-.68-18.75-.88-18.62-19.18.12-16.67,2.41-18.84,19.9-18.79,17.28.05,18.09.94,18.04,22.07Z"/>
  <path class="cls-1" d="M1094.8,597.59c.06-16.93,2.13-18.2,20.98-18.79,15.25-.48,17.49,8.02,17.12,20.36-.52,17.09-1.01,17.84-20.15,17.76-17.77-.08-18.01-.34-17.95-19.33Z"/>
  <path class="cls-1" d="M1494.03,142.33c-20.11-.18-20.73-.84-20.53-20.4.17-16.25,1.84-17.66,20.8-17.44,15.96.18,16.61,1.9,17.42,20.94.63,14.87-5.6,19.54-17.69,16.9Z"/>
  <path class="cls-1" d="M1464.35,1833.26c0,17.49-1.18,18.61-19.49,18.56-17.44-.05-18.46-1.13-18.46-19.61,0-17.23,1.4-18.56,19.5-18.47,17.45.09,18.46,1.16,18.46,19.52Z"/>
  <path class="cls-1" d="M1332.18,1026.01c0-18.97.6-19.64,18.1-19.69,17.64-.05,18.86,1.82,19.79,18.77.73,13.24-2.35,20.1-17.44,19.4-20.41-.94-20.44-.17-20.45-18.48Z"/>
  <path class="cls-1" d="M182.49,790.77c2.75,13.07-4.39,17.1-18.06,16.48-18.54-.84-19.85-1.41-19.85-18.35,0-18.69,1.19-19.89,19.91-19.87,16.91.02,18.04,1.27,18,21.73Z"/>
  <path class="cls-1" d="M846.9,1451.65q-.14,19.99-20.45,19.79c-16.61-.17-17.62-1.36-17.49-20.64.11-16,1.88-16.64,21.03-17.53,15.46-.72,18.65,6.89,16.91,18.38Z"/>
  <path class="cls-1" d="M419.73,1075.01c2.09,12.04-2.42,18.65-17.22,18.06-17.87-.71-20.41-2.19-20.64-18.26-.27-18.54.86-19.8,17.93-19.97q19.69-.2,19.93,20.18Z"/>
  <path class="cls-1" d="M1445.53,1196.32c18.01.07,18.92,1.08,18.81,20.86-.09,16.47-1.09,16.59-20.58,17.38-14.68.59-18.41-5.72-17.61-19.27,1.06-18.01,1.32-19.05,19.38-18.98Z"/>
  <path class="cls-1" d="M592.68,332.52c-20.34-.04-20.15-.69-21.1-20.7-.73-15.36,7.01-17.9,19.73-17.42,17.5.66,17.52,1.36,18.68,21.26.91,15.6-6.23,18.87-17.31,16.86Z"/>
  <path class="cls-1" d="M781.68,1813.81c17.53.05,18.22.79,18.11,19.62-.1,17.66-.94,18.46-19.57,18.39-17.16-.06-18.37-1.36-18.27-19.76.09-17.48.99-18.31,19.73-18.26Z"/>
  <path class="cls-1" d="M1037.04,457.66c1.68,11.43-2.03,18.82-17.14,18.2-19.18-.79-20.83-1.59-20.86-19.17-.04-18.19.82-19.06,18.86-19.04,18.69.02,19.13.45,19.14,20.01Z"/>
  <path class="cls-1" d="M1379.33,453.12c-3.49-15.86,7.82-15.88,20.18-15.57,16.94.42,17.31,1.39,18.07,20.33.59,14.74-6.17,18.44-19.41,17.86-18.32-.8-18.96-.94-18.85-22.62Z"/>
  <path class="cls-1" d="M1891.74,1405.82c-.04,17.68-.99,18.6-19.42,18.59-17.42,0-18.69-1.33-18.65-19.42.04-17.82.91-18.66,19.38-18.57,17.58.09,18.73,1.29,18.69,19.39Z"/>
  <path class="cls-1" d="M562.64,504.82c-.08,17.13-.97,17.93-19.91,17.81-17.41-.11-18.12-.9-18.03-20.02.09-17.16,1.08-18.05,20.07-17.94,16.94.1,17.95,1.24,17.87,20.14Z"/>
  <path class="cls-1" d="M1616.5,1167.42c.04-17.31,1.02-17.51,19.7-18.36,13.95-.63,19.22,4.43,18.55,18.46-.88,18.33-1.63,19.77-20.07,19.71-16.86-.05-18.24-1.55-18.19-19.81Z"/>
  <path class="cls-1" d="M779.71,1614.55c-16.32-.09-18.06-2.05-17.89-20.22.15-16.81,1.34-17.84,20.31-17.75,16.84.08,17.88,1.26,17.74,20.06-.12,16.72-1.56,18-20.16,17.9Z"/>
  <path class="cls-1" d="M1446.36,1149.26c17.1,0,17.43,1.16,18.28,19.82.65,14.16-4.76,19.04-18.66,18.38-18.45-.87-19.53-1.19-19.59-18.77-.06-19.07.31-19.43,19.97-19.44Z"/>
  <path class="cls-1" d="M799.86,1407.36c2.42,12.51-3.45,17.82-17.73,17.26-19.19-.76-19.64-1.08-20.49-19.47-.63-13.61,3.83-19.54,18.18-18.93,18.99.81,19.93,1,20.04,21.14Z"/>
  <path class="cls-1" d="M733.88,1386.45c17.98.03,18.97,1.03,18.98,19.21.02,17.84-.92,18.75-19.47,18.75-18.04,0-18.59-.58-18.53-19.23.06-18.39.44-18.76,19.01-18.73Z"/>
  <path class="cls-1" d="M325.45,1405.78c-.06,17.76-1.23,18.8-20.86,18.64-15.96-.13-16.4-1.71-17.34-20.88-.76-15.39,6.88-17.78,19.62-17.24,17.84.76,18.65,1.09,18.59,19.48Z"/>
  <path class="cls-1" d="M1444.31,1661.62c-16.92-.07-18.04-1.31-17.91-19.9.12-16.89,1.53-18.16,20.02-18.11,17.23.05,17.99.9,17.9,20.13-.08,17.16-.98,17.96-20.01,17.89Z"/>
  <path class="cls-1" d="M1872.33,522.63c-17.47-.02-18.61-1.21-18.59-19.45.02-17.97.63-18.55,19.27-18.5,17.77.05,18.78,1.1,18.74,19.4-.03,17.54-1.11,18.57-19.42,18.55Z"/>
  <path class="cls-1" d="M1891.75,979.49c1.93,11.74-2.55,18.38-17.33,17.82-19.86-.76-20.73-.85-20.7-18.84.03-17.98,1.37-19.37,18.71-19.37,18.13,0,19.3,1.14,19.32,20.39Z"/>
  <path class="cls-1" d="M761.9,266.51c.06-17.9,1.15-19,19.06-19,17.98,0,18.91.93,18.92,18.89,0,17.97-1.07,19.06-18.91,19.04-18-.02-19.13-1.15-19.08-18.93Z"/>
  <path class="cls-1" d="M1464.34,503.1c.04,18.35-1.05,19.5-18.43,19.53-18.31.03-19.47-1.07-19.51-18.49-.04-18.39.97-19.46,18.49-19.42,18.57.04,19.42.85,19.46,18.38Z"/>
  <path class="cls-1" d="M970.39,285.46c-17.37-.09-17.74-1.48-18.66-21.04-.73-15.55,7.29-17.54,19.8-17.09,17.56.63,18.62,1.28,18.47,19.66-.14,17.13-1.66,18.55-19.61,18.47Z"/>
  <path class="cls-1" d="M524.7,1831.91c.04-17.65.62-18.18,19.71-18.1,17.15.08,18.36,1.38,18.27,19.73-.08,17.19-1.37,18.38-19.79,18.29-17.06-.08-18.24-1.38-18.19-19.92Z"/>
  <path class="cls-1" d="M1464.35,740.91c-.01,18.18-.97,18.3-20.49,19.2-14.83.68-18.24-6.08-17.64-19.26.81-17.78,1.36-18.95,19.2-18.99,17.81-.03,18.95,1.11,18.94,19.05Z"/>
  <path class="cls-1" d="M1682.73,721.85c17.94.05,18.83.96,18.8,19.17-.03,18.05-1.06,18.24-20.55,19.08-14.9.64-18.16-6.33-17.6-19.39.76-17.75,1.35-18.91,19.35-18.86Z"/>
  <path class="cls-1" d="M1654.47,1403.71c-.04,19.56-1.34,20.83-19.95,20.73-17.03-.09-18.03-1.21-17.94-19.95.09-17.23,1.05-17.46,19.83-18.24,14.03-.58,20.1,4.66,18.05,17.46Z"/>
  <path class="cls-1" d="M544.77,912.05c17.16.11,17.98,1.03,17.86,20.01-.11,16.94-1.38,18.07-20.16,17.93-16.86-.12-17.92-1.33-17.77-20.23.14-16.85,1.24-17.83,20.06-17.71Z"/>
  <path class="cls-1" d="M562.62,1167.79c.1,18.2-1.03,18.89-18.54,19.56-12.73.49-20.29-2.12-19.62-17.36.88-19.85.81-20.69,18.88-20.72,18.74-.04,19.18.39,19.28,18.53Z"/>
  <path class="cls-1" d="M1227.15,504.28c-.04,17.58-.87,18.36-19.56,18.37-17.15,0-18.41-1.34-18.37-19.56.04-17.39,1.12-18.41,19.5-18.38,17.15.03,18.47,1.43,18.43,19.58Z"/>
  <path class="cls-1" d="M1445.44,1424.39c-18.1-.03-18.33-1.18-19.33-20.38-.79-15.01,6.19-18.23,19.24-17.74,18.44.69,19.06.83,18.98,20.57-.07,16.61-1.1,17.58-18.88,17.55Z"/>
  <path class="cls-1" d="M305.4,522.62c-17.27-.1-17.96-.87-17.87-20.05.08-16.97,1.21-17.98,19.96-17.87,16.99.1,18.09,1.33,17.97,19.98-.11,17.3-.93,18.04-20.07,17.93Z"/>
  <path class="cls-1" d="M1795.91,1500.93c-.1,17.62-.73,17.2-19.46,18.25-16.61.94-17.08-7.76-17.42-20.61-.38-14.79,5.58-18.64,19.08-17.91,17.04.92,17.91,1.22,17.8,20.27Z"/>
  <path class="cls-1" d="M1569.69,835.52c-1.79-11.94.79-18.93,15.04-18.25,22.24,1.06,22.54.59,22.53,18.52-.01,17.84-.73,17.48-20.99,18.74-15.69.97-18.77-6.33-16.57-19.01Z"/>
  <path class="cls-1" d="M1680.96,1756.13c-11.37,1.92-18.43-1.58-17.68-16.81.94-19.24.46-19.44,17.79-19.87,12.03-.3,22.18-.83,20.83,16.87-1.49,19.46-.43,19.67-20.94,19.81Z"/>
  <path class="cls-1" d="M1759.26,596.22c-1.9-12.16,3.21-18.16,17.83-17.25,18.43,1.15,17.96.92,19.12,20.62.88,14.98-5.57,18.2-18.75,17.58-17.96-.85-18.28-.55-18.21-20.94Z"/>
  <path class="cls-1" d="M1748.63,838.58c3.78,15.1-6.59,16.15-19.57,15.72-17.56-.58-17.64-1.06-18.56-19.68-.69-14,5.17-17.78,18.05-17.24,20.1.83,20.12.31,20.08,21.21Z"/>
  <path class="cls-1" d="M542.04,853.95c-16.46,3.44-16.88-6.48-17.76-19.36-1.18-17.39,8.5-16.61,20.69-17.36,15.92-.98,17.62,6.62,18.13,20.02.65,16.97-8.06,18.49-21.07,16.7Z"/>
  <path class="cls-1" d="M591.98,854.4c-19.62-.1-19.17-.94-20.55-19.62-1.27-17.21,8.37-16.64,20.59-17.47,15.88-1.08,17.75,6.32,18.16,19.77.49,16.33-7.12,19.24-18.2,17.32Z"/>
  <path class="cls-1" d="M1778.87,1767.09c16.41-4.3,17.68,6.04,17.26,19.07-.57,17.35-1.34,18.45-19.68,18.39-16.62-.06-16.56-1.03-17.45-22.15-.64-15.17,7.09-17.27,19.87-15.31Z"/>
  <path class="cls-1" d="M875.56,1471.11c-14.31,3.07-18.83-3.5-18.33-17.3.7-19.5.79-20.29,18.81-20.26,17.64.03,17.43.81,18.55,20.85.84,15.02-5.64,19.12-19.03,16.71Z"/>
  <path class="cls-1" d="M893.82,314.68c3.45,15.04-4.22,18.81-18.37,18.04-17.57-.95-17.04-.82-18.15-20.99-.91-16.56,7.72-17.08,20.47-17.56,15.94-.6,17.78,7.66,16.05,20.51Z"/>
  <path class="cls-1" d="M894.14,1260.96c-.15,20.64-.21,19.62-19.62,20.88-15.76,1.02-17.77-6.81-17.24-19.38.74-17.96,1.4-18.28,19.31-19.11,14.52-.67,19.9,5.18,17.55,17.6Z"/>
  <path class="cls-1" d="M878.91,674.85c15.12-3.83,15.93,6.77,15.54,19.5-.56,17.9-.81,18.5-19.22,18.46-16.87-.04-17.67-.94-17.64-19.9.03-17.74.46-18.15,21.33-18.06Z"/>
  <path class="cls-1" d="M1759.3,1452.56c.19-18.28,1.3-19.32,20.39-19.1,15.31.17,15.89,2.15,16.75,21.64.7,16.01-8.03,17.03-20.13,16.59-16.53-.6-17.21-.96-17.02-19.13Z"/>
  <path class="cls-1" d="M731.88,817.59c20.64.02,20.93.29,20.92,18.45-.01,17.68-.64,18.28-19.19,18.32-18.65.04-17.95-.15-19.03-18.53-.88-15.07,4.65-20.88,17.3-18.24Z"/>
  <path class="cls-1" d="M1301.16,854.34c-11.53,1.58-18.42-2.31-18.01-17.41.35-12.76,2.27-20.32,17.53-19.67,20.27.86,20.81.56,20.83,18.36.02,18.29-.33,18.64-20.34,18.72Z"/>
  <path class="cls-1" d="M1494.49,854.33c-20.6-.28-21.25-.98-21-20.71.2-15.82.92-15.43,23.08-16.31,17.97-.71,14.02,11.12,15.05,21.44,1.59,15.81-7.96,16.5-17.14,15.57Z"/>
  <path class="cls-1" d="M1537.93,854.43c-13.14,2.42-17.45-4.42-17.32-18.21.11-12.16,1.9-19.35,16.62-18.79,21.31.81,21.34.04,21.46,17.5q.13,19.29-20.75,19.49Z"/>
  <path class="cls-1" d="M1616.53,837.86c.07-19.54.95-20.32,19.93-20.27,17.5.05,16.92.78,18.34,19.66,1.34,17.77-9.04,16.66-21.05,17.28-14.72.76-20.08-5.04-17.23-16.67Z"/>
  <path class="cls-1" d="M1778.01,627.98c14.67-3.22,18.78,3.63,18.13,17.49-.89,19.05-1.27,20.31-18.04,20.23-17.83-.08-18.13-1.32-19.08-20.8-.72-14.73,5.13-19.72,18.98-16.93Z"/>
  <path class="cls-1" d="M1776.41,522.2c-18.16,4.08-16.46-7.98-17.4-19.79-1.26-15.92,6.6-17.56,19.92-18.19,17.15-.81,16.79,8.5,17.39,20.8.77,15.63-6.01,20.07-19.91,17.18Z"/>
  <path class="cls-1" d="M1871.55,854.25c-17.45-.04-16.93-.63-18.15-19.5-1-15.48,6.36-17.75,19.12-17.28,19.18.7,19.32.33,19.22,19.65-.09,16.79-.53,17.17-20.2,17.13Z"/>
  <path class="cls-1" d="M1759.2,1355.86c-2.19-11.9,2.87-17.52,17.46-16.72,19.21,1.05,18.6.22,19.52,19.41.63,13.29-2.82,19.84-17.55,19.14-18.1-.87-19.35-1.36-19.43-21.83Z"/>
  <path class="cls-1" d="M1796,1214.09c-.1,19.98-.45,19.32-19.29,20.45-14.99.9-18.36-5.43-17.66-18.84.98-18.72,1.14-18.6,20.24-19.65,16.02-.87,18,7.63,16.71,18.03Z"/>
  <path class="cls-1" d="M894.12,1358.17c.03,18.41-.72,19.18-18.69,19.16-17.26-.02-16.96-.69-18.1-19.91-.85-14.3,3.99-19.08,18.23-18.26,18.49,1.07,18.54.24,18.57,19.02Z"/>
  <path class="cls-1" d="M1796.03,786.95c-.09,19.65-.56,20.08-19.58,20.1-16.85.02-17.32-.55-17.16-20.35.14-16.6,1.76-17.25,20.29-18.03,15.88-.67,17.88,7.99,16.45,18.29Z"/>
  <path class="cls-1" d="M1826.81,854.37c-19.69-.09-19.14-.78-20.53-19.36-1.27-16.97,7.71-17.99,20.46-17.52,16.99.63,17.24,1.41,18.13,20.14.75,15.78-7.56,18.11-18.06,16.74Z"/>
  <path class="cls-1" d="M1795.88,1835.2c2.8,13.56-4.62,17.64-18.87,16.85-17.45-.97-16.88-.6-17.96-21.35-.73-14.1,4.89-17.67,17.75-17.13,18.98.81,19.16.41,19.08,21.63Z"/>
  <path class="cls-1" d="M182.44,835.06c.06,19.07.02,18.31-19.68,19.46-14.49.85-18.68-4.95-18.53-18.64.13-12.27,2.1-19.25,16.77-18.54,21.34,1.03,21.38.25,21.44,17.72Z"/>
  <path class="cls-1" d="M1795.94,1119.53c-.12,19.74-1.18,20.8-18.91,20.66-16.69-.13-17.76-1.35-17.65-20.29.1-17.44.74-17.03,19.68-18.09,15.6-.87,18.57,6.67,16.89,17.72Z"/>
  <path class="cls-1" d="M1779.13,1708.67c-19.54-.04-19.41-.52-20.05-19.4-.46-13.45,3.43-19.78,18.22-18.78,17.66,1.2,18.19,1.66,19.03,21.04.63,14.61-5.15,19.8-17.21,17.13Z"/>
  <path class="cls-1" d="M1795.68,932.63c3.61,16.58-6.66,16.9-19.34,17.78-17.25,1.21-16.5-8.66-17.35-20.78-1.12-16.06,6.76-17.49,19.96-18.05,16.88-.71,18.49,8.03,16.73,21.05Z"/>
  <path class="cls-1" d="M1891.39,1738.92c3.83,17.67-7.71,17.4-19.85,17.16-17.51-.34-17.07-.78-18.15-20.96-.99-18.48,11.14-14.85,21.92-15.84,15.56-1.43,18.33,6.86,16.08,19.64Z"/>
  <path class="cls-1" d="M682.89,1755.99c-14.41,3.2-15.88-6.36-15.46-18.81.59-17.62.56-17.97,19.72-17.89,17.31.07,18.31,1.15,18.3,19.72,0,16.12-1.25,17.13-22.56,16.99Z"/>
  <path class="cls-1" d="M990.04,1736.73c-.14,18.91-.94,18.59-21.53,19.6-15.77.77-17.14-7.37-16.64-19.61.7-16.97.88-16.79,21.53-17.63,15.19-.62,18.68,6.62,16.64,17.64Z"/>
  <path class="cls-1" d="M1162.36,1719.49c11.29-1.9,18.51,1.2,17.96,15.92-.72,19.29-.94,20.4-17.4,20.66-19.79.31-20.67-.4-20.85-16.78-.21-19.35-.05-19.52,20.28-19.8Z"/>
  <path class="cls-1" d="M1207.64,1719.42c19.56.18,18.48.43,19.85,19.82,1.27,17.98-9.22,17.11-21.15,16.82-16.76-.4-16.38-1.05-17.46-20.58-.94-17.03,9.11-16.64,18.76-16.06Z"/>
  <path class="cls-1" d="M1795.98,1408.1c2.43,12.39-3.77,16.9-17.8,16.66-12.65-.21-19.98-1.87-19.16-17.21,1.09-20.4.72-21.08,17.97-21.1,18.84-.02,18.89.03,18.99,21.66Z"/>
  <path class="cls-1" d="M1748.67,1739.66c2.73,12.63-3.6,17.29-17.71,16.63-19.59-.93-20.29-.87-20.24-19.36.05-16.66,1.13-17.59,20.34-17.52,17.21.07,17.59.46,17.6,20.25Z"/>
  <path class="cls-1" d="M1824.89,1756.02c-18.08.03-17.58-.22-18.52-19.08-.66-13.2,3.4-18.51,17.21-17.87,19.96.93,20.88.99,20.96,18.66.07,17.15-1.13,18.26-19.64,18.29Z"/>
  <path class="cls-1" d="M857.64,1782.2c-3.51-16.11,8.06-14.88,20.21-15.84,16.52-1.31,16.2,7.93,16.67,19.83.55,13.93-3.94,19.49-18.33,18.68-18.12-1.01-18.59-.75-18.55-22.67Z"/>
  <path class="cls-1" d="M494.05,854.27c-13.9,3.18-16.32-5.08-16.86-18.85-.63-15.88,6.31-18.72,19.86-18.06,17.99.88,18.62.87,18.55,19.03-.07,17.32-.73,17.92-21.54,17.87Z"/>
  <path class="cls-1" d="M1759.32,880.2c-3.49-16.07,8.17-14.62,20.28-15.6,16.66-1.35,16.25,8.15,16.75,19.92.58,13.84-3.88,19.59-18.4,18.62-17.98-1.2-18.76-1.26-18.63-22.94Z"/>
  <path class="cls-1" d="M1795.61,1310.02c1.85,13.22-1,21.1-16.61,20.24-18.39-1.02-19.74-1.4-19.76-18.53-.02-19.4.03-18.55,19.24-19.75,14.69-.92,19.92,4.53,17.13,18.04Z"/>
  <path class="cls-1" d="M878.54,1529.46c13.47-2.7,16.68,4.91,15.92,18.43-1.06,18.88-1.05,18.54-20.15,19.65-16.2.94-17.08-7.98-16.75-19.96.49-17.99.46-18.24,20.98-18.12Z"/>
  <path class="cls-1" d="M656.98,838.08c3,13.07-4.08,17.01-17.85,16.41-18.86-.82-19.91-1.09-19.93-18.26-.02-18.06.61-18.67,19.09-18.66,18.57.01,18.62.07,18.69,20.51Z"/>
  <path class="cls-1" d="M1540.73,1719.54c17.69.08,18.38.81,18.18,19.23-.19,17.05-.81,16.86-21.63,17.55-14.46.48-17.11-6.57-16.57-18.87.76-17.38.91-17.99,20.02-17.9Z"/>
  <path class="cls-1" d="M874.84,153.06c19.04.09,18.9.87,19.79,20.07.68,14.73-5.72,18.61-19.11,17.96-17.13-.82-17.41-1.49-18.34-21.44-.72-15.55,6.88-18.56,17.66-16.59Z"/>
  <path class="cls-1" d="M230.84,834.57c-.06,19.37-.67,18.89-21.41,20.08-16.38.94-15.79-8.16-16.71-19.97-1.34-17.28,8.38-16.92,20.74-17.41,14.73-.59,19.66,5.43,17.38,17.3Z"/>
  <path class="cls-1" d="M400.57,854.24c-17.82-.03-17.79-1.04-18.99-19.26-1.01-15.47,6.45-18.03,19.33-17.56,18.85.69,18.87.21,18.83,18.69q-.04,18.17-19.18,18.13Z"/>
  <path class="cls-1" d="M894.34,598.54c-.05,18.32-.28,17.61-19.02,18.73-14.53.86-18.71-4.61-17.98-18.45,1-19,1.07-19.85,20.01-19.72,16.24.11,17.05,1.04,17,19.44Z"/>
  <path class="cls-1" d="M639.76,1755.99c-19.78-.09-20.91-1.27-20.73-19.37.16-16.12,1.76-16.5,20.75-17.56,15.08-.84,17.3,6.07,17.61,19,.37,15.21-5.34,20.59-17.64,17.93Z"/>
  <path class="cls-1" d="M1321.41,1739.95c2.91,13.12-4.24,17.01-17.93,16.38-18.95-.88-20.06-1.32-19.96-19.78.09-15.95,1.81-17.38,20.85-17.23,16.63.14,17.14.71,17.04,20.63Z"/>
  <path class="cls-1" d="M1780.31,1719.5c12.9-2.78,15.83,4.45,16.09,17.29.28,13.92-2.96,20.37-18.54,19.79-13.1-.49-19.72-2.85-18.83-17.89,1.13-19.03.16-19.09,21.28-19.19Z"/>
  <path class="cls-1" d="M1759.31,833.18c-3-13.91,5.55-16.34,18.56-15.75,17.83.8,17.19.59,18.34,19.53.92,15.04-5.51,18.31-18.87,17.6-17.74-.95-18.12-.64-18.04-21.38Z"/>
  <path class="cls-1" d="M938.89,897.77c5.8,7.81,12.63,13.35,11.67,16.58-1.48,4.98-7.88,10.67-12.99,11.58-3.06.54-10.41-7.26-10.72-11.68-.3-4.17,6.09-8.82,12.04-16.48Z"/>
  <path class="cls-1" d="M1009.97,897.26c4.86,8.68,10.05,13.76,9.36,17.83-.75,4.41-7,7.87-10.84,11.75-4.01-4.4-10.33-8.38-11.23-13.34-.63-3.47,6.16-8.28,12.72-16.24Z"/>
  <path class="cls-1" d="M1058.45,986.23c-7.73,4.88-12.24,9.84-16.78,9.87-3.26.03-6.57-6.54-9.85-10.16,3.86-3.27,7.47-8.66,11.67-9.17,3.61-.44,7.89,4.7,14.97,9.46Z"/>
  <path class="cls-1" d="M1115.52,986.14c-7.28,5.28-12.09,10.96-14.56,10.08-4.46-1.59-7.52-7.1-11.17-10.97,3.76-3.02,7.29-7.96,11.37-8.47,3.31-.41,7.29,4.48,14.36,9.37Z"/>
  <path class="cls-1" d="M231.17,261.23c-.02-17.53.36-35.07-.14-52.58-.35-12.33,4.56-17.84,17.13-17.72,35.54.34,71.08.48,106.62.08,13.4-.15,18.03,5.74,17.88,18.55-.39,35.05-.29,70.11-.04,105.17.08,12.11-4.84,17.95-17.32,17.88-35.54-.22-71.08-.22-106.62.04-12.14.09-17.92-4.75-17.6-17.36.46-18,.12-36.03.1-54.04Z"/>
  <path class="cls-1" d="M1795.96,260.69c.01,18.01-.29,36.02.12,54.02.3,13.2-5.68,18.1-18.6,17.93-34.55-.44-69.1-.45-103.65-.02-13.47.17-19.6-4.86-19.43-18.81.44-35.03.34-70.08.06-105.12-.1-12.22,4.88-17.79,17.36-17.69,35.52.28,71.05.33,106.57-.04,13.32-.14,18.18,5.71,17.71,18.63-.62,17.01-.15,34.06-.14,51.09Z"/>
  <path class="cls-1" d="M372.52,1685.04c-.02,18.01-.25,36.03.07,54.03.21,11.55-4.66,17.07-16.44,17.01-36.51-.17-73.01-.11-109.52-.02-11.04.03-15.74-5.25-15.68-16.19.21-36.02.25-72.05.02-108.07-.08-12.4,5.48-17.44,17.75-17.33,35.04.31,70.1.39,105.14-.02,13.93-.16,19.21,6,18.81,19.47-.51,17.02-.12,34.07-.14,51.11Z"/>
</svg>