<?xml version="1.0" encoding="UTF-8"?>
<svg id="Layer_1" data-name="Layer 1" xmlns="http://www.w3.org/2000/svg" viewBox="0 0 558.19 558.28">
  <defs>
    <style>
      .cls-1 {
        stroke-width: 0px;
      }
    </style>
  </defs>
  <path class="cls-1" d="M211.16,278.69c0-17.04-.02-34.08,0-51.12.01-10.01,6.45-16.39,16.53-16.39,34.23-.01,68.46-.01,102.69,0,10.04,0,16.5,6.43,16.5,16.41.01,34.23,0,68.47,0,102.7,0,10.32-6.35,16.62-16.75,16.62-34.08,0-68.15,0-102.23,0-10.34,0-16.74-6.37-16.75-16.64-.01-17.19,0-34.39,0-51.58ZM243.66,301.27c7.36-8.17,16.08-3.49,24.24-4.34-2.34-9.45.27-17.19,6.87-23.46,6.52-6.19,14.65-8.66,24.49-8.67-1.66-3.62-2.57-6.78-4.36-9.31-12.22-17.19-38.9-19.31-53.93-4.42-9.45,9.36-10.68,24.08-2.41,33.64,3.96,4.57,9.97,8.03,5.1,16.56ZM316.26,316.8c-3.26-6.88,1.48-9.99,4.68-14.01,5.47-6.86,5.5-16.51.69-23.85-8.91-13.6-31.6-15.88-44.35-4.45-9.94,8.91-10.2,22.14-.59,31.38,5.25,5.04,11.61,7.4,18.84,7.72,6.83.31,14.14-3.18,20.72,3.21Z"/>
  <path class="cls-1" d="M52.53,0c13.63,0,27.27-.01,40.9,0,7.66,0,12.31,4.3,12.34,11.87.1,27.58.09,55.16.02,82.73-.02,6.37-4.82,11.14-11.19,11.15-27.73.07-55.46.09-83.19.01-6.86-.02-11.37-4.91-11.38-11.91C0,66.45,0,39.03.02,11.6.03,4.79,4.81.03,11.63.02,25.26-.01,38.89,0,52.53,0ZM90.4,53.15c0-10.39.02-20.77,0-31.16-.02-5.4-1.57-6.98-6.78-6.99-20.46-.02-40.92-.02-61.38,0-5.33,0-7.23,1.93-7.23,7.24-.02,20.46-.02,40.92,0,61.39,0,5,1.62,6.74,6.55,6.75,20.93.05,41.85-.03,62.78.06,4.35.02,6.17-1.79,6.12-6.13-.12-10.38-.04-20.77-.03-31.16Z"/>
  <path class="cls-1" d="M558.05,53.01c0,13.48.01,26.96,0,40.44,0,7.77-4.63,12.4-12.32,12.4-26.8-.02-53.61-.04-80.41-.07-8.78,0-13.06-4.3-13.06-13.09,0-26.65-.01-53.3,0-79.95,0-8.35,4.45-12.73,12.91-12.73,26.8,0,53.61,0,80.41,0,8.03,0,12.48,4.48,12.48,12.56,0,13.48,0,26.96,0,40.44ZM543.08,53.41h-.03c0-10.23,0-20.46,0-30.69,0-5.9-1.77-7.7-7.68-7.71-20.31-.02-40.61-.03-60.92-.03-4.98,0-6.75,1.62-6.77,6.55-.05,20.93,0,41.85-.08,62.78-.02,4.34,1.81,6.13,6.14,6.11,20.93-.08,41.85-.01,62.78-.05,4.94,0,6.54-1.73,6.55-6.74,0-10.08,0-20.15,0-30.23Z"/>
  <path class="cls-1" d="M52.74,558.09c-13.63,0-27.27.02-40.9,0-7.15-.01-11.82-4.68-11.82-11.84-.02-27.27-.02-54.54,0-81.81,0-7.5,4.54-12.14,12.09-12.15,27.27-.04,54.53-.02,81.8.04,7.26.01,11.87,4.65,11.88,11.88.04,27.11.05,54.23.02,81.34,0,8.16-4.49,12.54-12.64,12.55-13.48,0-26.96,0-40.44,0ZM90.4,505.55h-.02c0-10.54.03-21.08-.01-31.62-.02-5.1-1.18-6.22-6.38-6.23-20.61-.03-41.23-.04-61.84-.03-5.55,0-7.14,1.63-7.14,7.14,0,20.15-.01,40.3,0,60.45,0,6.2,1.66,7.82,8.04,7.82,20.15.02,40.3.02,60.44.02,5.26,0,6.89-1.57,6.91-6.87.04-10.23.01-20.46.01-30.69Z"/>
  <path class="cls-1" d="M159.94,376.89c-5.98,0-6.22-.23-6.2-5.78.02-5.79.55-6.03,6.44-6.34,4.76-.25,5.81,1.92,5.65,6.11-.24,6.01-.06,6.02-5.89,6.01Z"/>
  <path class="cls-1" d="M310.91,376.89c-6.01.04-5.78.03-6.12-6.24-.25-4.5,1.33-6.12,5.83-5.9,5.57.28,6.28.7,6.3,6.06.03,5.71-.3,6.03-6.01,6.07Z"/>
  <path class="cls-1" d="M90.36,176.14c1,4.75-2.15,5.24-6.27,5.08-5.2-.2-5.55-.85-5.87-6.88-.3-5.6,3.1-5.32,6.83-5.24,5.32.11,5.36.1,5.31,7.04Z"/>
  <path class="cls-1" d="M376.82,310.95c0,5.83-.15,5.98-6.04,5.99-5.37,0-5.73-.63-6.05-6.29-.26-4.5,1.33-6.09,5.85-5.85,6.23.33,6.24.09,6.24,6.15Z"/>
  <path class="cls-1" d="M385.13,75.36c-4.93,1.21-5.04-2.27-4.92-6.26.17-5.62.26-5.82,6.16-5.8,5.58.02,5.94.42,5.91,6.65-.02,5.25-.25,5.45-7.16,5.42Z"/>
  <path class="cls-1" d="M23.87,304.86c6.3.06,6.32.35,6.57,6.22.19,4.53-1.58,6.08-5.97,5.87-6.01-.28-5.8-.28-6.2-6.92-.32-5.29,2.56-5.48,5.6-5.17Z"/>
  <path class="cls-1" d="M356.06,165.59c-4.56.89-6.63-.6-6.35-5.54.35-6.12.28-6.04,6.75-6.41,4.94-.28,5.37,2.24,5.5,6.17.14,4.51-1.01,6.93-5.9,5.79Z"/>
  <path class="cls-1" d="M75.36,159.92q0,5.85-6.06,5.85c-5.8-.01-6.01-.22-6-6.04,0-5.39.66-6.03,6.22-6.04,5.55,0,5.85.3,5.84,6.23Z"/>
  <path class="cls-1" d="M251.04,90.34q-6.6-.05-6.53-6.33c.06-5.46.38-5.75,6.3-5.69,5.55.06,5.49.35,5.83,6.79.26,5.03-2.26,5.75-5.6,5.23Z"/>
  <path class="cls-1" d="M355.73,14.99c-5.79-.05-6.02-.3-5.95-6.57.06-5,.74-5.33,6.7-5.6,4.93-.22,5.6,2.38,5.43,6.37-.24,5.74-.22,5.86-6.18,5.81Z"/>
  <path class="cls-1" d="M90.35,160.89c1.03,4.58-1.99,5.05-5.97,4.91-5.81-.21-6.07-.32-6.06-6.06.01-5.72.4-6.08,6.61-6.03,5.19.04,5.45.37,5.42,7.18Z"/>
  <path class="cls-1" d="M304.86,98.88c-.84-4.02,1.15-5.45,5.67-5.18,6.25.38,6.38.24,6.36,6.23-.02,5.27-.74,5.94-6.32,5.9-5.41-.03-5.74-.4-5.71-6.95Z"/>
  <path class="cls-1" d="M165.72,249.72c0,6.58-.26,6.85-5.9,6.85-5.69,0-6.12-.43-6.11-6.07,0-5.73.26-5.76,6.08-6.04,4.5-.21,7.05.9,5.93,5.26Z"/>
  <path class="cls-1" d="M174.04,361.86c-4.84,1.27-5.06-2.1-4.94-6.17.18-5.83.12-5.9,6.05-5.89,5.66.01,6.03.38,6.02,6.06,0,5.86-.18,6.02-7.13,6Z"/>
  <path class="cls-1" d="M244.51,70.12c-.02-6.54.21-6.78,5.74-6.82,5.71-.03,6.3.51,6.34,5.78.05,5.89-.33,6.04-6.18,6.35-4.53.23-6.91-1-5.9-5.32Z"/>
  <path class="cls-1" d="M165.75,356.65c.71,3.63-.72,5.56-5.45,5.31-6.4-.34-6.61-.25-6.64-6.35-.02-5.2.64-5.8,6.35-5.79,5.46.01,5.72.29,5.73,6.83Z"/>
  <path class="cls-1" d="M301.48,70.43c1.17,4.68-1.96,5.14-6.13,4.99-5.71-.21-5.93-.28-5.92-6.07.01-5.49.66-6.09,6.54-6.05,5.3.04,5.53.31,5.51,7.13Z"/>
  <path class="cls-1" d="M220.14,169.14q5.96-.01,5.96,5.92c0,5.85-.25,6.1-5.97,6.11-5.68,0-6.08-.39-6.08-6.12,0-5.75.16-5.9,6.08-5.91Z"/>
  <path class="cls-1" d="M250.34,181.17c-5.58,0-5.82-.27-5.82-6.24q0-5.77,6.1-5.77c5.78,0,5.97.2,5.95,6.08-.02,5.47-.51,5.93-6.23,5.92Z"/>
  <path class="cls-1" d="M531,175.44c0-6.29.08-6.07,6.58-6.4,4.92-.25,5.69,2.14,5.51,6.23-.24,5.5-.57,5.72-6.79,6.01-4.97.23-5.77-2.4-5.31-5.84Z"/>
  <path class="cls-1" d="M452.23,249.85c-.03,6.42-.36,6.55-6.45,6.78-4.31.16-5.76-1.67-5.62-5.78.2-6.06.32-6.07,6.21-6.39,4.65-.25,6.84,1.17,5.85,5.39Z"/>
  <path class="cls-1" d="M455.63,249.44c-1.01-4.54,1.92-5.11,5.95-4.97,5.88.21,6.08.27,6.08,6.49,0,5.3-.37,5.62-6.55,5.6-5.17-.02-5.52-.44-5.49-7.11Z"/>
  <path class="cls-1" d="M165.59,296.1c1.45,5.3-1.9,5.58-5.98,5.44-5.66-.18-5.91-.33-5.89-6.61.01-5.16.49-5.25,6.56-5.59,5.24-.29,6.04,2.36,5.31,6.75Z"/>
  <path class="cls-1" d="M380.25,220.07c0-5.81.19-6,6.02-6,5.65,0,5.74.36,6.09,6.15.26,4.45-1.25,6.17-5.76,6-6.21-.25-6.35-.17-6.34-6.15Z"/>
  <path class="cls-1" d="M84.47,301.51c-6.02-.01-6.15-.14-6.13-6.25.02-5.3.57-5.81,6.28-5.83,5.48-.02,5.74.26,5.73,6.21q0,5.87-5.88,5.86Z"/>
  <path class="cls-1" d="M437.23,385.54c0,6.57-.23,6.81-6.37,6.8-5.19-.01-5.73-.62-5.72-6.52.01-5.16.51-5.36,6.5-5.64,4.58-.22,6.37,1.51,5.59,5.37Z"/>
  <path class="cls-1" d="M455.59,385.72c.06-5.47.08-5.19,6.9-5.52,5.27-.25,5.15,2.77,5.23,6.49.09,4.17-1.39,5.89-5.71,5.66-6.26-.34-6.49-.36-6.42-6.63Z"/>
  <path class="cls-1" d="M181.17,400.97c0,5.83-.46,6.34-5.8,6.37-5.99.03-5.96-.23-6.31-6.3-.26-4.49,1.19-6.1,5.75-5.85,6.1.33,6.35.28,6.36,5.78Z"/>
  <path class="cls-1" d="M380.28,431.94c-.02-6.48.24-6.76,5.75-6.76,5.77,0,6.3.49,6.3,5.8,0,5.98-.28,6.04-6.17,6.34-4.54.23-6.89-1.05-5.88-5.38Z"/>
  <path class="cls-1" d="M455.64,431.25c-.03-5.82.19-5.86,5.96-6.11,4.21-.18,6.34.94,6.12,5.67-.3,6.23-.25,6.45-6.17,6.45-5.78,0-5.88-.1-5.91-6.01Z"/>
  <path class="cls-1" d="M316.85,446.39c-.06,5.72-.39,5.65-7.1,6-5.56.29-4.71-3.1-4.96-6.56-.33-4.7,1.79-5.91,6.07-5.68,5.41.29,6.05.74,5.99,6.24Z"/>
  <path class="cls-1" d="M301.45,24.78c.6,3.6-.46,5.93-5.39,5.67-6.38-.34-6.63-.28-6.65-6.04-.02-5.69.31-6.02,6.03-6.05,5.85-.03,5.98.1,6.01,6.42Z"/>
  <path class="cls-1" d="M407.31,461.41c.01,5.97-.26,6.26-5.86,6.27-5.85,0-6.16-.29-6.18-5.88-.02-6.05.14-6.22,6.2-6.2,5.31.01,5.83.52,5.84,5.82Z"/>
  <path class="cls-1" d="M432.13,455.65c4.37-.98,5.31,1.59,5.16,5.81-.21,5.79-.42,6.21-5.94,6.24-5.62.03-6.19-.52-6.19-5.99,0-5.84.2-6.03,6.97-6.06Z"/>
  <path class="cls-1" d="M319.9,371.18c.05-6.11.41-6.41,6.75-6.34,4.75.05,5.36.83,5.32,6.85-.03,4.79-.73,5.06-6.89,5.3-5,.19-5.79-2.36-5.18-5.8Z"/>
  <path class="cls-1" d="M244.52,160.44c0-6.46.26-6.73,5.91-6.72,5.69,0,6.12.42,6.13,6.05.02,5.85-.18,5.75-6.5,6.09-4.69.25-6.28-1.61-5.55-5.42Z"/>
  <path class="cls-1" d="M380.26,507.2c.04-6.34.38-6.69,5.99-6.67,5.75.02,5.92.48,6.14,7.1.18,5.35-3.22,4.78-6.73,5.07-4.83.4-6.16-1.78-5.39-5.5Z"/>
  <path class="cls-1" d="M174.57,543.07c-3.87.72-5.73-.98-5.52-5.6.29-6.44.08-6.45,5.97-6.44,5.83,0,6.13.3,6.13,5.96,0,5.79-.3,6.09-6.59,6.09Z"/>
  <path class="cls-1" d="M281.02,18.4c3.25-.43,5.92.07,5.53,4.99-.29,3.65.4,7.25-5.18,7.1-6.12-.17-6.92-.6-6.96-5.76-.04-6.08.13-6.26,6.6-6.33Z"/>
  <path class="cls-1" d="M341.33,18.38c5.59.12,5.7.26,5.57,6.8-.1,4.77-.97,5.43-6.92,5.25-4.73-.15-5.3-1-5.12-7.51.12-4.3.64-4.67,6.48-4.54Z"/>
  <path class="cls-1" d="M361.84,23.77c-.02,6.22-.45,6.65-6.08,6.63-5.43-.02-5.99-.61-5.96-6.2.03-5.58.28-5.56,6.19-5.86,4.65-.23,6.85,1.2,5.85,5.43Z"/>
  <path class="cls-1" d="M370.66,18.41c6.29.08,6.04.09,6.26,7.09.16,5.02-2.79,4.99-6.29,4.91-5.2-.12-5.7-.92-5.96-6.89-.22-5.1,2.61-5.6,5.98-5.11Z"/>
  <path class="cls-1" d="M558.05,220.42c-.02,5.43-.35,5.73-6.31,5.7-5.59-.03-5.78-.23-5.76-6.21.02-5.42.52-5.88,6.27-5.86,5.34.02,5.82.55,5.8,6.37Z"/>
  <path class="cls-1" d="M123.72,39.05c.03-5.51.23-5.69,6.31-5.66,5.59.02,5.75.2,5.74,6.24-.01,5.35-.57,5.87-6.33,5.83-5.39-.04-5.75-.45-5.72-6.41Z"/>
  <path class="cls-1" d="M175.01,33.39c5.81,0,6.19.37,6.18,5.94,0,5.51-.6,6.11-6.12,6.11-5.76,0-5.98-.22-5.96-6.06q.02-6,5.9-5.99Z"/>
  <path class="cls-1" d="M485.56,310.58c.03-5.57.26-5.44,6.75-5.8,5.07-.28,5.34,2.35,5.41,6.26.07,4.34-1.27,6.22-5.86,5.93-5.94-.37-6.32-.51-6.29-6.4Z"/>
  <path class="cls-1" d="M476.13,304.9c6.44.04,6.6.21,6.55,6.41-.04,5.27-.58,5.47-6.97,5.67-5.17.16-4.97-2.94-5.19-6.61-.29-4.79,1.86-6.12,5.61-5.47Z"/>
  <path class="cls-1" d="M452.24,310.07c-.08,6.75-.34,6.81-7.15,6.88-4.85.05-4.99-2.88-4.89-6.43.15-5.44.41-5.46,6.88-5.75,4.61-.21,5.8,1.81,5.15,5.3Z"/>
  <path class="cls-1" d="M437.23,310.94c-.02,5.72-.36,6.04-6.6,5.99-5.04-.04-5.55-.65-5.51-6.66.03-5.07.5-5.45,6.69-5.41,5.2.03,5.43.3,5.42,6.08Z"/>
  <path class="cls-1" d="M346.9,39.43c0,5.68-.33,6.02-6.11,6.01-5.46,0-5.68-.52-6.03-6.19-.27-4.45,1.2-6.15,5.73-5.94,6.25.29,6.4.21,6.41,6.11Z"/>
  <path class="cls-1" d="M361.86,39.5c0,5.66-.36,5.77-6.6,6.03-4.84.2-5.44-2.34-5.58-6.33-.16-4.52,1.5-6.08,5.93-5.9,6.16.25,6.25.13,6.25,6.2Z"/>
  <path class="cls-1" d="M380.24,39.75c.02-6.3.12-6.24,6.08-6.42,4.2-.13,6.32.98,6,5.75-.4,5.95-.62,6.19-6.82,6.46-4.98.22-5.81-2.35-5.26-5.79Z"/>
  <path class="cls-1" d="M422.26,38.8c0,6.13-.55,6.68-6.05,6.66-5.49-.02-6-.54-6.01-6.14,0-5.74.24-5.74,6.54-6,4.63-.19,6.28,1.66,5.52,5.48Z"/>
  <path class="cls-1" d="M422.27,310.43c-.03,6.09-.61,6.4-7.26,6.57-5.42.14-4.52-3.53-4.87-6.9-.6-5.76,3.19-5.03,6.81-5.29,4.91-.35,5.92,2.16,5.32,5.62Z"/>
  <path class="cls-1" d="M165.75,54.08c-.1,6.33-.19,6.41-6.66,6.33-4.76-.06-5.3-1.06-5.51-6.79-.21-5.49,3.19-5.13,6.95-5.35,5.04-.29,5.77,2.37,5.21,5.81Z"/>
  <path class="cls-1" d="M189.57,48.36c6.33,0,6.63.3,6.64,6.01,0,5.67-.37,6.04-6.1,6.04-5.91,0-5.77-.1-6.05-6.47-.2-4.65,1.64-6.31,5.51-5.58Z"/>
  <path class="cls-1" d="M452.24,356.8c.82,3.98-1.19,5.31-5.43,5.15-6.29-.24-6.58-.3-6.59-6.02,0-5.61.48-6.11,6.07-6.13,5.72-.03,5.93.21,5.95,7Z"/>
  <path class="cls-1" d="M244.5,54.85c.05-6.42.16-6.53,6.11-6.49,5.59.03,6.03.49,5.98,6.2-.05,5.49-.56,5.63-6.78,5.96-5.05.27-5.81-2.29-5.32-5.66Z"/>
  <path class="cls-1" d="M431.77,361.89c-6.43-.07-6.65-.31-6.6-6.57.04-5.15.52-5.55,6.66-5.51,5.19.03,5.17.36,5.47,6.67.23,4.84-1.91,6.1-5.53,5.42Z"/>
  <path class="cls-1" d="M319.9,54.31c.02-5.83.14-5.95,6-5.95,5.55,0,6.08.54,6.04,6.14-.04,5.42-.58,5.93-6.21,5.93-5.72,0-5.85-.14-5.83-6.11Z"/>
  <path class="cls-1" d="M356.49,48.35c3.81-.72,5.62.99,5.43,5.59-.27,6.32-.19,6.48-6.02,6.47-5.78,0-6.11-.33-6.11-6.01,0-5.58.46-6.04,6.7-6.05Z"/>
  <path class="cls-1" d="M385.74,60.44c-3.53.61-5.82-.47-5.58-5.38.31-6.52.14-6.53,5.81-6.73,3.93-.14,6.64.39,6.41,5.39-.28,6.25-.43,6.68-6.63,6.72Z"/>
  <path class="cls-1" d="M395.25,53.69c-.69-3.88,1.04-5.64,5.65-5.41,6.17.31,6.23.31,6.49,6.26.19,4.39-1.37,6.15-5.86,5.96-6.01-.25-6.25-.27-6.27-6.81Z"/>
  <path class="cls-1" d="M401.6,304.87c5.42.02,5.69.32,5.69,6.33,0,5.28-.58,5.5-6.87,5.78-5.2.24-5.29-2.78-5.2-6.51.13-5.4.31-5.63,6.37-5.61Z"/>
  <path class="cls-1" d="M386.78,349.82c4.13-.7,5.74,1.39,5.6,5.79-.19,5.8-.47,6.28-5.93,6.27-6.18,0-6.24-.05-6.23-6.17,0-5.6.31-5.89,6.56-5.89Z"/>
  <path class="cls-1" d="M174.89,75.38c-5.78,0-5.58-.05-5.86-6.45-.2-4.59,1.66-5.89,5.97-5.68,5.83.28,6.21.41,6.19,5.93-.03,5.92-.33,6.21-6.3,6.2Z"/>
  <path class="cls-1" d="M190.3,63.31c5.48.02,5.89.45,5.89,6.18,0,5.77-.16,5.56-6.51,5.97-5.18.33-5.82-2.15-5.6-6.35.28-5.58.34-5.82,6.23-5.8Z"/>
  <path class="cls-1" d="M226.11,69.78c-.02,5.54-.12,5.62-6.31,5.58-5.43-.04-5.76-.39-5.76-6.33,0-5.31.51-5.76,6.46-5.72,5.39.03,5.63.31,5.61,6.48Z"/>
  <path class="cls-1" d="M324.84,75.36c-4.39.93-5.2-1.73-5.02-5.91.26-5.94.31-5.92,6.46-6.22,4.71-.23,5.89,1.92,5.73,6.11-.21,5.67-.44,6.02-7.18,6.01Z"/>
  <path class="cls-1" d="M340.33,75.36c-3.78.7-5.81-.7-5.58-5.47.3-6.03.45-6.54,5.66-6.58,5.87-.05,6.48.49,6.5,5.69q.02,6.3-6.58,6.35Z"/>
  <path class="cls-1" d="M407.31,69.13c-.06,6.17-.27,6.02-7.21,6.34-5.61.26-4.9-3.24-4.85-6.67.08-5.23.5-5.35,6.62-5.57,4.87-.18,5.91,2.29,5.44,5.9Z"/>
  <path class="cls-1" d="M430.74,75.37c-3.79.65-5.87-.87-5.68-5.54.24-5.82.64-6.51,5.76-6.53,6.08-.03,6.37.26,6.39,6.17q.02,5.89-6.48,5.9Z"/>
  <path class="cls-1" d="M205.09,90.24c-4.66.95-6.39-.91-6.1-5.67.36-5.85.47-6.25,6.38-6.23,5.46.02,5.54.4,5.87,6.27.27,4.78-1.54,6.58-6.14,5.63Z"/>
  <path class="cls-1" d="M226.1,84.65c0,5.71-.04,5.51-6.14,5.79-4.32.19-6.27-1.04-6.01-5.72.34-5.95.49-6.37,6.38-6.35,5.6.02,5.77.21,5.77,6.29Z"/>
  <path class="cls-1" d="M310.09,90.36c-3.94.88-5.63-.91-5.32-5.48.24-3.53-.25-6.82,5.01-6.66,6.39.2,7.07.55,7.1,6.03.03,5.97-.07,6.07-6.79,6.11Z"/>
  <path class="cls-1" d="M346.9,84.95c-.02,5.29-.32,5.26-6.84,5.57-5,.23-5.42-2.41-5.26-6.3.22-5.34.68-5.93,6.22-5.92,5.58.01,5.9.38,5.88,6.65Z"/>
  <path class="cls-1" d="M355.28,90.36c-3.97.77-5.77-.98-5.56-5.59.27-5.79.64-6.48,5.8-6.49,5.7-.02,6.3.54,6.33,5.85q.04,6.18-6.57,6.23Z"/>
  <path class="cls-1" d="M169.12,309.79c-.97-4.39,1.78-5.14,5.9-4.98,5.79.22,6.19.44,6.18,5.97-.02,5.7-.46,6.14-6.04,6.14-5.72,0-6.04-.35-6.03-7.13Z"/>
  <path class="cls-1" d="M407.32,85.28c.75,3.76-.97,5.34-5.31,5.17-6.75-.27-6.76-.06-6.76-6.04,0-5.52.56-6.1,5.99-6.12,5.71-.02,6.08.37,6.08,6.99Z"/>
  <path class="cls-1" d="M129.79,93.78c5.85,0,5.98.14,5.98,5.99,0,5.57-.5,6.06-6.1,6.03-5.47-.02-5.96-.52-5.95-6.19,0-5.78.07-5.84,6.08-5.83Z"/>
  <path class="cls-1" d="M160.94,93.76c5.03-1.24,4.96,2.42,4.85,6.36-.15,5.5-.32,5.51-6.35,5.75-4.59.18-5.95-1.8-5.77-6.08.25-5.74.41-6.07,7.27-6.03Z"/>
  <path class="cls-1" d="M196.2,99.99c-.02,5.36-.54,5.83-6.37,5.81-5.49-.02-5.71-.27-5.7-6.37.01-5.62.14-5.74,6.21-5.69,5.51.04,5.88.44,5.86,6.25Z"/>
  <path class="cls-1" d="M226.11,99.21c-.03,6.39-.27,6.63-6.13,6.59-5.6-.04-5.96-.42-5.93-6.25.03-5.67.23-5.56,6.74-5.89,4.95-.26,5.97,2.05,5.32,5.55Z"/>
  <path class="cls-1" d="M251.01,93.76c3.79-.72,5.81.79,5.64,5.49-.23,6.1-.42,6.37-6.15,6.62-4.25.19-6.27-1.05-6.06-5.72.28-6.33.05-6.35,6.58-6.39Z"/>
  <path class="cls-1" d="M281.41,93.79c4.95-1.12,5.28,2.19,5.12,6.29-.2,5.3-.53,5.71-6.44,5.69-5.42-.02-5.7-.33-5.66-6.47.03-5.44.17-5.56,6.98-5.5Z"/>
  <path class="cls-1" d="M346.81,99.74c.69,4.49-1.04,6.36-5.57,6.14-6.09-.3-6.42-.45-6.39-6.64.03-5.46.09-5.26,6.81-5.57,4.89-.22,5.88,2.13,5.15,6.07Z"/>
  <path class="cls-1" d="M376.87,99.17c0,6.32-.4,6.45-6.58,6.72-4.89.22-5.63-2.33-5.49-6.32.19-5.64.27-5.49,6.75-5.89,5.05-.32,5.86,2.11,5.32,5.49Z"/>
  <path class="cls-1" d="M400.59,93.79c6.67.03,6.74.1,6.73,6.13-.02,5.46-.51,5.93-6.19,5.91-5.51-.03-5.64-.49-5.96-6.62-.24-4.68,1.58-6.24,5.42-5.42Z"/>
  <path class="cls-1" d="M437.21,99.24c-.02,6.3-.37,6.43-6.61,6.63-4.77.16-5.67-2.28-5.5-6.35.24-5.65.19-5.42,6.78-5.81,5.04-.3,5.88,2.1,5.33,5.53Z"/>
  <path class="cls-1" d="M150.73,114.71c0,5.91-.22,6.13-5.95,6.13-5.7,0-6.1-.4-6.11-6.09-.01-5.79.17-5.98,6.08-5.98q5.99,0,5.98,5.94Z"/>
  <path class="cls-1" d="M160.85,108.77c4.52-.97,5.13,1.87,4.96,5.96-.25,5.94-.27,6.13-6.5,6.08-5.29-.04-5.68-.49-5.61-6.55.05-5.28.35-5.53,7.16-5.49Z"/>
  <path class="cls-1" d="M150.74,310.27c-.02,6.41-.33,6.69-6.51,6.65-5.19-.03-5.56-.48-5.53-6.61.02-5.22.36-5.22,6.55-5.53,4.77-.24,6.16,1.8,5.5,5.49Z"/>
  <path class="cls-1" d="M114.73,304.89c5.82,0,6.05.22,6.07,5.94.02,5.61-.45,6.08-6.04,6.09-5.65.01-5.97-.32-5.98-6.08q0-5.93,5.95-5.94Z"/>
  <path class="cls-1" d="M93.75,309.96c-1.04-4.41,1.54-5.3,5.77-5.12,6.04.26,6.08.28,6.36,6.3.21,4.51-1.67,6.04-6.01,5.86-5.86-.24-6.11-.31-6.12-7.04Z"/>
  <path class="cls-1" d="M75.37,311.41c.74,4.04-1.22,5.72-5.68,5.6-5.73-.16-6.19-.53-6.42-5.88-.17-3.95.31-6.57,5.37-6.32,6.66.33,6.67.04,6.74,6.61Z"/>
  <path class="cls-1" d="M310.92,108.77c5.75,0,5.82.27,6.04,6.1.16,4.29-1.17,6.26-5.81,6.02-6.11-.32-6.3-.25-6.29-6.26.02-5.81.07-5.86,6.06-5.86Z"/>
  <path class="cls-1" d="M48.37,309.95c-.96-4.41,1.75-5.29,5.88-5.16,6.01.2,5.96.24,6.24,6.29.22,4.55-1.56,6.05-5.95,5.85-5.87-.27-6.2-.4-6.17-6.98Z"/>
  <path class="cls-1" d="M376.85,114.29c-.02,6.28-.31,6.55-6.17,6.54-5.4-.01-5.91-.55-5.88-6.31.02-5.45.37-5.44,6.36-5.82,5.01-.32,6.44,1.77,5.7,5.59Z"/>
  <path class="cls-1" d="M114.35,361.86c-5.57-.03-5.61-.07-5.59-6.33.02-5.46.35-5.76,6.32-5.72,5.32.03,5.79.56,5.73,6.44-.05,5.44-.28,5.64-6.47,5.61Z"/>
  <path class="cls-1" d="M15.01,129.74c0,5.9-.14,6.04-5.93,6.03-5.78-.01-6.13-.35-6.13-5.98,0-5.68.39-6.07,6.06-6.06,5.85.01,6,.17,6,6.01Z"/>
  <path class="cls-1" d="M90.23,356.31c1.32,5.13-1.66,5.77-5.91,5.6-5.79-.24-6.03-.33-6.01-6.5.02-5.19.55-5.33,6.5-5.7,5.16-.32,6.17,2.17,5.43,6.6Z"/>
  <path class="cls-1" d="M69.43,123.73c5.9,0,5.94.05,5.93,6.02,0,5.95-.07,6.02-5.95,6.02-5.77,0-6.12-.33-6.12-6.02,0-5.65.39-6.03,6.14-6.03Z"/>
  <path class="cls-1" d="M90.23,129.84c1,4.75-1.05,6.29-5.73,6.02-5.86-.34-6.2-.42-6.18-6.43.02-5.41.36-5.41,6.32-5.79,4.91-.31,6.48,1.66,5.59,6.2Z"/>
  <path class="cls-1" d="M98.76,135.78c-4.67,1.19-5.21-1.93-5.07-6.11.19-5.83.16-5.94,5.98-5.94,5.75,0,6.14.37,6.14,5.87,0,5.89-.31,6.19-7.05,6.18Z"/>
  <path class="cls-1" d="M114.49,123.72c5.85-.02,6.34.43,6.36,5.8.03,5.82-.37,6.25-5.88,6.27-5.92.02-6.18-.22-6.2-5.8-.02-6.02.18-6.25,5.71-6.26Z"/>
  <path class="cls-1" d="M506.65,346.92c-5.62-.02-6.15-.54-6.15-6.01,0-5.58.55-5.76,6.58-6.13,4.88-.3,5.73,1.99,5.57,6.1-.23,5.83-.28,6.06-6.01,6.04Z"/>
  <path class="cls-1" d="M150.72,129.81c-.01,5.77-.23,5.98-6.06,5.98-5.62,0-6.01-.41-6-6.15.01-5.46.49-5.92,6.23-5.91,5.77,0,5.85.08,5.84,6.09Z"/>
  <path class="cls-1" d="M190.04,135.77c-5.85,0-5.92-.08-5.92-6.07,0-5.82.17-5.99,6.02-5.98,5.73,0,6.06.34,6.06,6.07,0,5.62-.37,5.98-6.16,5.97Z"/>
  <path class="cls-1" d="M301.48,130.1c-.02,5.57-.19,5.72-6.27,5.68-5.4-.03-5.83-.51-5.8-6.37.03-5.36.43-5.71,6.48-5.69,5.51.02,5.61.14,5.58,6.37Z"/>
  <path class="cls-1" d="M319.88,128.87c-.79-4.2,1.49-5.43,5.85-5.21,5.69.3,6.19.54,6.21,6,.01,5.74-.34,6.1-6,6.11-5.89.01-6.06-.16-6.05-6.91Z"/>
  <path class="cls-1" d="M437.21,341.01c-.02,5.76-.21,5.95-6.08,5.92-5.58-.03-6.02-.48-6-6.18.02-5.42.51-5.88,6.26-5.87,5.73,0,5.83.11,5.81,6.14Z"/>
  <path class="cls-1" d="M380.23,129.48c.02-5.68.11-5.76,6.18-5.74,5.49.01,5.9.45,5.87,6.26-.03,5.42-.46,5.81-6.38,5.78-5.52-.02-5.7-.22-5.68-6.3Z"/>
  <path class="cls-1" d="M551.52,301.48c-5.52-.05-5.38-.21-5.62-6.85-.19-5.22,2.91-5.3,6.59-5.22,5.11.12,5.32.78,5.66,7.1.29,5.54-3.12,5.06-6.63,4.97Z"/>
  <path class="cls-1" d="M386.83,334.86c3.86-.6,5.75,1.11,5.56,5.65-.25,6.04-.48,6.11-6.63,6.52-5.25.35-5.73-2.35-5.58-6.44.21-5.58.23-5.75,6.65-5.73Z"/>
  <path class="cls-1" d="M431.66,123.72c5.37.02,5.6.29,5.57,6.42-.03,5.52-.2,5.67-6.35,5.62-5.39-.04-5.76-.45-5.72-6.41.04-5.3.44-5.65,6.5-5.63Z"/>
  <path class="cls-1" d="M452.25,129.43c-.03,6.27-.17,6.39-6.26,6.35-5.36-.04-5.85-.58-5.81-6.38.04-5.45.4-5.44,6.93-5.76,5.24-.26,5.5,2.66,5.15,5.79Z"/>
  <path class="cls-1" d="M160.09,334.87c5.58.01,5.45.19,5.76,7.13.22,4.92-2.45,5.06-6.06,4.96-5.66-.16-6.11-.52-6.11-6.44,0-5.12.62-5.66,6.41-5.65Z"/>
  <path class="cls-1" d="M105.77,341.17c-.04,5.47-.45,5.42-6.69,5.86-5.57.39-5.17-2.8-5.43-6.6-.35-5.15,2.2-5.84,6.41-5.61,5.34.28,5.75.54,5.71,6.36Z"/>
  <path class="cls-1" d="M497.61,295.41c.02,5.96-.05,6.04-5.83,6.09-5.98.05-6.2-.16-6.23-5.76-.02-5.82.39-6.26,5.88-6.28,5.87-.02,6.14.24,6.17,5.95Z"/>
  <path class="cls-1" d="M90.33,341.13c-.04,5.83-.05,5.6-6.44,5.87-4.69.2-5.81-1.97-5.64-6.11.23-5.67.56-6.09,7.02-6.02,4.98.05,5.11.2,5.06,6.26Z"/>
  <path class="cls-1" d="M53.52,150.74c-4.18.8-5.44-1.45-5.22-5.81.28-5.66.63-6.27,5.96-6.27,5.63,0,6.15.52,6.16,6.01.01,5.95-.09,6.05-6.9,6.06Z"/>
  <path class="cls-1" d="M90.38,145.32c.63,3.51-.38,5.8-5.35,5.51-6.39-.37-6.69-.31-6.7-5.96,0-5.75.4-6.17,6.01-6.19,5.83-.02,6.02.18,6.05,6.65Z"/>
  <path class="cls-1" d="M470.61,295.41c.02-5.56.43-5.96,6.19-5.97,5.27,0,5.91.68,5.89,6.32-.02,5.48-.32,5.75-6.26,5.75-5.64,0-5.84-.21-5.82-6.1Z"/>
  <path class="cls-1" d="M129.63,301.49q-5.91-.02-5.92-6.02c0-5.63.44-6.05,6.17-6.04,5.45.01,5.9.49,5.91,6.26,0,5.71-.1,5.81-6.15,5.8Z"/>
  <path class="cls-1" d="M69.76,244.52c5.58.03,5.65.11,5.61,6.3-.03,5.42-.47,5.82-6.35,5.77-5.37-.04-5.77-.49-5.71-6.47.05-5.41.31-5.63,6.45-5.6Z"/>
  <path class="cls-1" d="M93.77,249.23c-1.15-5,2.57-4.84,6.43-4.74,5.35.14,5.64.4,5.58,6.45-.04,5.05-.8,5.69-6.59,5.61-5.18-.07-5.49-.44-5.43-7.33Z"/>
  <path class="cls-1" d="M376.85,145.77c1.18,4.65-1.88,5.18-6.1,5-5.71-.25-5.93-.29-5.93-6.07,0-5.64.38-6.02,6.03-6.02,5.9,0,6.01.12,6,7.08Z"/>
  <path class="cls-1" d="M384.99,150.74c-5.13,1.11-4.89-2.63-4.8-6.44.13-5.42.33-5.66,6.34-5.62,5.41.03,5.8.46,5.77,6.32-.03,5.54-.34,5.81-7.32,5.75Z"/>
  <path class="cls-1" d="M135.77,250.62c0,5.6-.39,5.97-6.19,5.96-5.45-.01-5.85-.44-5.84-6.29,0-5.71.07-5.78,6.17-5.76,5.76.01,5.88.14,5.87,6.09Z"/>
  <path class="cls-1" d="M460.54,150.73c-4.5.98-5.14-1.85-4.98-5.93.23-5.91.3-5.91,6.47-6.19,4.68-.22,5.89,1.88,5.71,6.12-.25,5.7-.41,6.02-7.2,6Z"/>
  <path class="cls-1" d="M39.1,346.93c-5.42,0-5.48-.31-5.77-6.31-.21-4.4,1.23-6.13,5.81-5.85,5.89.36,6.31.48,6.29,6.38-.02,5.34-.49,5.78-6.34,5.78Z"/>
  <path class="cls-1" d="M90.36,281.49c1,4.46-1.69,5.25-5.87,5.07-5.95-.25-5.95-.31-6.23-6.5-.21-4.74,2-5.84,6.19-5.67,5.9.24,5.91.06,5.9,7.11Z"/>
  <path class="cls-1" d="M14.98,159.16c.02,6.49-.08,6.36-6.21,6.68-4.49.23-6.1-1.39-5.9-5.85.27-5.86.46-6.04,6.41-6.33,4.55-.22,6.34,1.53,5.71,5.5Z"/>
  <path class="cls-1" d="M189.5,244.53c6.57,0,6.69.12,6.68,5.82,0,5.86-.41,6.26-6.3,6.23-5.41-.03-5.51-.43-5.85-6.28-.27-4.73,1.41-6.66,5.46-5.77Z"/>
  <path class="cls-1" d="M99.4,165.75c-5.6,0-5.68-.1-5.66-6.19.02-5.46.45-5.86,6.22-5.86,5.29,0,5.85.6,5.82,6.36-.03,5.42-.34,5.7-6.38,5.69Z"/>
  <path class="cls-1" d="M114.46,165.78c-5.65-.02-5.72-.09-5.69-6.22.02-5.59.37-5.91,6.24-5.87,5.43.04,5.86.51,5.83,6.38-.03,5.46-.33,5.73-6.37,5.71Z"/>
  <path class="cls-1" d="M129.75,165.75c-5.97,0-6.03-.05-6.04-5.9,0-5.58.52-6.11,6.03-6.12,5.55-.01,6.02.47,6.03,6.11,0,5.86-.03,5.9-6.02,5.9Z"/>
  <path class="cls-1" d="M150.73,159.91q0,5.86-6.04,5.86c-5.81,0-6.04-.24-6.03-6,.01-5.63.41-6.03,6.15-6.01,5.61.01,5.92.34,5.92,6.15Z"/>
  <path class="cls-1" d="M14.96,340.91c.01,5.93-.07,6.01-5.95,6.02-5.6,0-6.1-.5-6.1-6.06,0-5.45.54-5.98,6.15-5.99,5.82,0,5.9.08,5.91,6.03Z"/>
  <path class="cls-1" d="M552.32,319.89c5.57.02,5.77.23,5.73,6.24-.03,5.29-.62,5.84-6.36,5.82-5.38-.01-5.73-.4-5.72-6.42.01-5.43.27-5.67,6.34-5.64Z"/>
  <path class="cls-1" d="M286.49,159.92c0,5.75-.16,5.63-6.55,5.94-4.77.23-5.67-1.92-5.63-6.12.04-4.22,1.11-6.32,5.79-6.08,6.01.3,6.39.43,6.39,6.26Z"/>
  <path class="cls-1" d="M376.86,250.56c0,5.64-.4,5.87-6.04,6.09-4.26.17-6.27-1.25-6.07-5.83.27-6.01.36-6.33,6.29-6.31,5.78.02,5.83.07,5.82,6.04Z"/>
  <path class="cls-1" d="M537.01,319.9c5.84,0,6.04.21,6.05,5.98,0,5.61-.44,6.06-6.11,6.07-5.67,0-5.96-.28-5.96-6.11,0-5.81.13-5.94,6.02-5.93Z"/>
  <path class="cls-1" d="M331.94,160.48c.72,4.15-1.39,5.57-5.84,5.33-6.22-.33-6.24-.13-6.22-6.22.02-5.61.3-5.85,6.69-5.86,4.96,0,5.39.49,5.36,6.75Z"/>
  <path class="cls-1" d="M380.25,160.64c0-6.7.2-6.62,6.33-6.95,4.68-.25,5.94,1.76,5.76,6.03-.24,5.69-.4,5.83-6.09,6.1-4.43.21-7.12-.74-6-5.18Z"/>
  <path class="cls-1" d="M461,165.71c-3.81.76-5.74-.7-5.47-5.46.34-6.03.4-6.45,5.65-6.47,6.15-.03,6.46.23,6.49,5.6.04,6.14-.11,6.3-6.67,6.33Z"/>
  <path class="cls-1" d="M452.22,325.59c.03,6.11-.17,6.34-5.68,6.36-5.99.02-6.11-.23-6.34-5.8-.17-3.97.38-6.56,5.38-6.33,6.59.3,6.61.05,6.64,5.77Z"/>
  <path class="cls-1" d="M558.05,159.73c0,5.87-.12,6.01-5.94,5.99-6.07-.01-5.98-.08-6.19-5.77-.15-4.04.61-6.54,5.5-6.31,6,.29,6.62.61,6.63,6.09Z"/>
  <path class="cls-1" d="M39.47,169.14c5.76,0,5.99.23,5.98,6.04,0,5.51-.59,6.08-6.17,6.06-5.38-.01-5.88-.55-5.88-6.29q0-5.82,6.07-5.82Z"/>
  <path class="cls-1" d="M75.36,175.27c-.02,5.61-.36,5.94-6.08,5.95-5.49.01-5.74-.58-6.06-6.62-.25-4.76,1.85-5.73,6.05-5.53,6.1.29,6.11.09,6.09,6.2Z"/>
  <path class="cls-1" d="M497.62,371.21c0,5.57-.14,5.45-6.25,5.77-4.46.24-6.15-1.22-5.9-5.79.32-5.95.43-6.32,6.38-6.34,5.42-.02,5.77.36,5.77,6.36Z"/>
  <path class="cls-1" d="M115.01,169.15c5.6.02,5.86.3,5.82,6.2-.03,5.46-.48,5.87-6.38,5.84-5.53-.03-5.7-.22-5.69-6.41q.01-5.65,6.24-5.63Z"/>
  <path class="cls-1" d="M144.97,169.15q5.76.01,5.75,6.11c-.01,5.71-.26,5.95-6.15,5.93-5.38-.02-5.9-.57-5.89-6.33.01-5.62.12-5.72,6.29-5.71Z"/>
  <path class="cls-1" d="M169.14,173.88c-1.29-5.14,2.55-4.6,6.38-4.83,4.69-.27,5.93,1.73,5.72,6.05-.28,5.71-.53,6.14-6.66,6.08-5.26-.05-5.47-.31-5.44-7.3Z"/>
  <path class="cls-1" d="M205.57,169.14c5.59.02,5.62.06,5.57,6.32-.04,5.33-.54,5.79-6.42,5.73-5.26-.05-5.68-.54-5.65-6.53.03-5.38.23-5.55,6.49-5.52Z"/>
  <path class="cls-1" d="M475.69,376.86c-4.38.95-5.34-1.59-5.13-5.83.28-5.63.75-6.28,6.5-6.21,5.19.07,5.68.68,5.62,7.04-.05,4.87-.27,5.05-6.99,5Z"/>
  <path class="cls-1" d="M437.21,371.36c-.03,5.54-.04,5.26-6.7,5.6-4.95.25-5.56-2.24-5.4-6.2.22-5.39.65-5.97,6.2-5.95,5.59.02,5.94.41,5.91,6.55Z"/>
  <path class="cls-1" d="M259.49,174.04c-1.07-5.05,2.49-5.04,6.44-4.92,5.57.18,5.42.18,5.7,6.35.21,4.67-1.89,5.92-6.1,5.77-5.57-.2-6.07-.6-6.04-7.2Z"/>
  <path class="cls-1" d="M280.9,169.16q5.63.02,5.59,6.3c-.03,5.29-.6,5.8-6.38,5.79-4.98-.01-5.7-.84-5.66-6.58.03-5.48.09-5.53,6.46-5.5Z"/>
  <path class="cls-1" d="M98.68,286.51c-4.82,1.28-5.09-2.1-4.97-6.16.17-5.76.21-5.75,6.03-5.96,4.11-.15,6.36.86,6.13,5.6-.31,6.45-.17,6.54-7.19,6.52Z"/>
  <path class="cls-1" d="M425.17,250.15c0-5.5.21-5.39,6.83-5.72,4.68-.24,5.43,1.94,5.29,5.86-.22,6-.31,6.29-5.88,6.28-5.85,0-6.24-.42-6.24-6.42Z"/>
  <path class="cls-1" d="M346.9,175.04c0,5.57-.72,6.06-6.48,6.26-4.65.16-5.83-2-5.64-6.23.26-5.85.11-5.91,6.09-5.91q6.03,0,6.03,5.88Z"/>
  <path class="cls-1" d="M355.76,169.3c4.52-.96,6.5.58,6.2,5.5-.37,6-.49,6.44-6.24,6.41-5.39-.03-5.71-.61-6-6.18-.24-4.59,1.17-6.84,6.04-5.73Z"/>
  <path class="cls-1" d="M376.87,174.3c-.01,6.56-.36,6.92-5.9,6.9-5.5-.02-6.14-.66-6.14-6.1,0-5.68.3-5.78,6.07-6,4.4-.17,7.14.75,5.98,5.21Z"/>
  <path class="cls-1" d="M422.26,174.55c-.02,6.28-.48,6.48-6.58,6.73-4.81.2-5.68-2.22-5.53-6.29.22-5.79.13-5.58,6.65-5.91,4.78-.24,6.17,1.77,5.46,5.46Z"/>
  <path class="cls-1" d="M455.63,174.4c-.54-3.34.32-5.6,5.1-5.35,6.92.37,6.94.1,6.93,6.09,0,5.69-.31,5.99-6.14,6-5.58,0-5.9-.33-5.9-6.74Z"/>
  <path class="cls-1" d="M470.62,174.88c.01-5.6.15-5.73,6.2-5.74,5.65,0,5.88.23,5.86,6.11-.01,5.47-.51,5.94-6.23,5.92-5.51-.02-5.84-.38-5.83-6.29Z"/>
  <path class="cls-1" d="M497.62,174.52c-.01,6.39-.32,6.41-6.55,6.72-4.85.24-5.7-2.15-5.55-6.22.21-5.76.2-5.64,6.62-5.94,4.69-.22,6.25,1.67,5.49,5.44Z"/>
  <path class="cls-1" d="M512.58,175.16c-.01,5.72-.39,6.1-6.05,6.06-5.63-.04-6.02-.44-6.01-6.18.01-5.65.33-5.92,7.13-5.87,4.81.04,4.94.2,4.93,5.99Z"/>
  <path class="cls-1" d="M422.25,326.02c0,5.63-.38,6-6.17,5.97-5.33-.02-5.88-.61-5.88-6.3,0-5.64.17-5.8,6.2-5.78,5.74.01,5.85.14,5.85,6.11Z"/>
  <path class="cls-1" d="M422.25,371.16c0,5.59-.18,5.76-6.19,5.76-5.6,0-5.88-.3-5.87-6.16.02-5.55.41-5.91,6.24-5.89,5.52.02,5.81.35,5.82,6.3Z"/>
  <path class="cls-1" d="M551.76,169.27c4.51-.83,6.72.49,6.38,5.52-.38,5.77-.61,6.39-5.78,6.4-5.88.02-6.16-.48-6.46-6.13-.24-4.53,1.01-6.91,5.86-5.79Z"/>
  <path class="cls-1" d="M9.88,184.15c4.14-.88,5.39,1.35,5.2,5.69-.27,6.12-.28,6.36-6.1,6.36-5.68,0-6.05-.37-6.05-6.01,0-5.89.16-6.04,6.94-6.04Z"/>
  <path class="cls-1" d="M39.05,196.2c-5.42,0-5.37-.29-5.75-6.26-.31-4.81,1.54-6.16,6.09-5.88,5.78.35,6.07.37,6.07,6.01,0,5.75-.41,6.15-6.41,6.14Z"/>
  <path class="cls-1" d="M334.84,371.59c.05-6.35.52-6.79,6.24-6.75,5.48.04,5.53.52,5.92,6.79.35,5.7-3.11,5.14-6.81,5.32-4.7.23-6.24-1.81-5.36-5.37Z"/>
  <path class="cls-1" d="M93.77,189.77c.01-5.59.1-5.67,6.24-5.64,5.46.02,5.81.41,5.77,6.32-.04,5.44-.41,5.77-6.39,5.75-5.42-.02-5.63-.26-5.62-6.43Z"/>
  <path class="cls-1" d="M264.47,376.86c-4.9,1.11-5.17-2.22-5.01-6.29.2-5.19.66-5.74,6.46-5.74,5.21,0,5.66.53,5.64,6.53-.02,5.34-.25,5.53-7.08,5.51Z"/>
  <path class="cls-1" d="M190.16,184.14c5.82,0,6.04.23,6.04,6.05,0,5.81-.23,6.03-6.14,6.02-5.69,0-5.92-.25-5.92-6.16q0-5.91,6.02-5.9Z"/>
  <path class="cls-1" d="M470.62,249.48c-1.02-4.6,2-5.15,5.99-5.04,5.88.17,6.11.3,6.06,6.5-.04,5.19-.62,5.69-6.54,5.65-5.31-.04-5.56-.33-5.52-7.11Z"/>
  <path class="cls-1" d="M380.25,325.27c-.53-3.4.4-5.8,5.11-5.45,3.62.27,7.26-.45,7.03,5.22-.26,6.3-.49,6.89-5.83,6.93-6.04.04-6.26-.17-6.31-6.71Z"/>
  <path class="cls-1" d="M150.72,281.4c.89,4.29-1.52,5.38-5.82,5.17-5.71-.28-6.25-.57-6.24-5.98,0-5.73.48-6.19,6.52-6.15,5.44.03,5.56.17,5.54,6.96Z"/>
  <path class="cls-1" d="M189,301.49c-5.03,1.27-4.75-2.41-4.95-6.34-.24-4.65,1.7-5.98,6.03-5.78,5.72.27,6.13.5,6.12,6.61,0,5.35-.22,5.53-7.21,5.51Z"/>
  <path class="cls-1" d="M437.22,190.29c-.02,5.78-.21,5.68-6.61,5.97-4.92.22-5.65-2.27-5.49-6.29.22-5.55.38-5.84,6.3-5.82,5.71.02,5.82.13,5.8,6.15Z"/>
  <path class="cls-1" d="M447.12,184.12c4.23-.88,5.39,1.47,5.2,5.8-.27,6.09-.25,6.29-6.29,6.27-5.48-.02-5.86-.44-5.83-6.33.03-5.51.31-5.75,6.92-5.74Z"/>
  <path class="cls-1" d="M455.77,189.63c-1.35-5.22,1.82-5.7,5.96-5.55,5.55.2,5.94.46,5.94,6.14,0,5.64-.43,5.73-6.54,6.07-5.19.29-6.09-2.28-5.36-6.66Z"/>
  <path class="cls-1" d="M530.99,250.22c.02-5.64.1-5.71,6.21-5.7,5.52.02,5.87.39,5.86,6.21-.01,5.43-.46,5.85-6.36,5.85-5.45,0-5.74-.31-5.72-6.36Z"/>
  <path class="cls-1" d="M8.66,211.14c-5.36-.05-5.77-.51-5.71-6.4.05-5.3.53-5.71,6.51-5.68,5.41.03,5.65.34,5.55,6.95-.08,5-.29,5.18-6.35,5.12Z"/>
  <path class="cls-1" d="M33.4,205.03c.01-5.72.26-5.96,6.08-5.95,5.61.02,6,.42,5.98,6.16-.02,5.45-.48,5.89-6.26,5.89-5.73,0-5.81-.08-5.8-6.11Z"/>
  <path class="cls-1" d="M84.82,199.09c5.51.03,5.58.11,5.56,6.38-.02,5.66-.07,5.7-6.24,5.67-5.39-.02-5.83-.51-5.8-6.37.03-5.36.44-5.72,6.48-5.69Z"/>
  <path class="cls-1" d="M169.14,295.57c0-5.93.19-6.14,5.9-6.13,5.63,0,5.92.59,6.24,6.56.27,4.86-2.08,5.72-6.21,5.55-5.91-.24-5.92-.06-5.93-5.98Z"/>
  <path class="cls-1" d="M160.81,211.14c-6.62.03-6.91-.42-7.15-6.1-.19-4.3,1.18-6.24,5.79-6.03,6.11.28,6.16.16,6.32,5.72.12,3.96.07,7.5-4.95,6.41Z"/>
  <path class="cls-1" d="M386.16,211.15c-5.81,0-5.9-.1-5.91-6.05,0-5.86.15-6.02,5.97-6.02,5.69,0,6.05.37,6.06,6.09.01,5.62-.35,5.98-6.13,5.97Z"/>
  <path class="cls-1" d="M220.06,376.77c-4.3.77-6.36-.58-6.08-5.4.36-6.19.4-6.54,6.21-6.54,5.58,0,5.7.45,6.04,6.65.27,4.9-2.02,6.01-6.17,5.29Z"/>
  <path class="cls-1" d="M169.15,325.96q.02-6.07,6.17-6.05c5.52.02,5.9.42,5.9,6.13,0,5.4-.55,5.92-6.17,5.92-5.75,0-5.91-.17-5.9-5.99Z"/>
  <path class="cls-1" d="M165.77,281.26c.56,3.41-.51,5.54-5.18,5.33-6.53-.29-6.68-.33-6.97-6.28-.22-4.45,1.47-6.12,5.92-5.94,6,.25,6.17.2,6.22,6.89Z"/>
  <path class="cls-1" d="M165.7,326.44c.87,3.99-.86,5.75-5.44,5.58-6.2-.23-6.56-.34-6.58-6.01-.02-5.8.25-6.08,5.9-6.1q6.08-.02,6.12,6.53Z"/>
  <path class="cls-1" d="M145.3,301.49c-6.43-.02-6.63-.22-6.64-5.99,0-5.7.45-6.13,6.48-6.08,5.28.04,5.3.43,5.66,6.43.3,4.92-1.68,6.44-5.51,5.63Z"/>
  <path class="cls-1" d="M535.99,211.14c-4.53,1-5.18-1.88-5.05-5.93.19-5.83.33-6.13,5.98-6.14,5.69,0,6.11.4,6.12,6.04,0,5.75-.28,6.02-7.06,6.03Z"/>
  <path class="cls-1" d="M90.36,325.35c-.05,6.6-.16,6.47-6.83,6.69-5,.17-5.37-2.63-5.24-6.45.19-5.42.47-5.44,6.8-5.78,4.98-.27,5.84,2.12,5.27,5.54Z"/>
  <path class="cls-1" d="M30.4,220.19c0,5.59-.35,5.93-6.16,5.93-5.75,0-5.68-.12-5.92-6.01-.16-4.12.71-6.42,5.54-6.16,5.97.33,6.54.6,6.54,6.24Z"/>
  <path class="cls-1" d="M90.35,220.31c0,5.79-.05,5.66-6.05,5.88-4.21.15-6.33-.98-6.05-5.73.35-5.92.52-6.39,6.33-6.4,5.59,0,5.78.21,5.77,6.24Z"/>
  <path class="cls-1" d="M93.75,220.12c.01-5.85.23-6.07,5.98-6.06,5.79,0,5.79.33,6.13,6.6.27,4.94-2.2,5.64-6.23,5.5-5.89-.2-5.89-.05-5.88-6.04Z"/>
  <path class="cls-1" d="M371.26,274.44c5.49.02,5.35.16,5.65,6.38.22,4.52-1.32,6.04-5.83,5.76-6.05-.37-6.3-.34-6.27-6.39.02-5.29.56-5.77,6.45-5.75Z"/>
  <path class="cls-1" d="M165.75,220.83c.99,4.21-1.21,5.63-5.83,5.38-5.8-.31-6.21-.44-6.22-5.9-.01-5.81.39-6.24,5.81-6.25,6.16-.02,6.23.05,6.24,6.77Z"/>
  <path class="cls-1" d="M400.78,286.5c-5.33-.04-5.56-.3-5.52-6.45.03-5.35.35-5.63,6.41-5.61,5.19.02,5.74.7,5.66,6.96-.07,4.76-.56,5.14-6.55,5.1Z"/>
  <path class="cls-1" d="M205.08,376.88c-5.93,0-6.01-.08-6.01-5.93,0-5.58.51-6.09,6.08-6.1,5.52,0,5.99.47,5.99,6.16,0,5.83-.04,5.87-6.06,5.87Z"/>
  <path class="cls-1" d="M189.49,376.88c-4.08.86-5.73-1.07-5.44-5.82.35-5.84.39-6.2,5.86-6.22,5.94-.02,6.3.33,6.29,6.24,0,5.65-.15,5.79-6.71,5.79Z"/>
  <path class="cls-1" d="M54.74,319.91c5.52.02,5.47.22,5.76,6.27.21,4.55-1.6,6.03-5.98,5.82-5.8-.27-6.18-.46-6.16-6.51.02-5.41.23-5.6,6.38-5.58Z"/>
  <path class="cls-1" d="M39.41,301.49c-5.91.01-6.05-.13-6.04-5.87,0-5.6.57-6.18,6-6.19,5.5-.02,6.07.57,6.08,6.15,0,5.75-.15,5.9-6.04,5.91Z"/>
  <path class="cls-1" d="M455.62,264.64c-.9-4.18,1.35-5.42,5.74-5.2,5.77.29,6.3.53,6.31,5.92.02,5.81-.35,6.19-5.95,6.19-6.03,0-6.1-.07-6.11-6.91Z"/>
  <path class="cls-1" d="M558.05,371.2c0,5.55-.12,5.43-6.28,5.72-4.38.21-6.17-1.09-5.87-5.74.38-5.98.42-6.36,5.86-6.36,5.81,0,6.29.49,6.29,6.38Z"/>
  <path class="cls-1" d="M135.77,386.44c-.02,5.48-.51,5.94-6.28,5.88-5.33-.05-5.78-.54-5.77-6.39.01-5.55.16-5.68,6.26-5.67,5.61.02,5.81.23,5.79,6.18Z"/>
  <path class="cls-1" d="M150.74,386.22c.03,5.68-.38,6.1-5.93,6.11-5.8.01-5.92-.34-6.23-6.39-.23-4.47,1.41-5.99,5.86-5.76,6.25.31,6.27.06,6.29,6.04Z"/>
  <path class="cls-1" d="M296.43,380.28c3.6-.66,5.27.79,5.13,5.03-.22,6.64-.22,6.91-5.61,6.94-5.86.03-6.48-.52-6.53-5.66-.06-6.2,0-6.25,7.01-6.3Z"/>
  <path class="cls-1" d="M341.83,380.28c3.86-.72,5.35,1.16,5.15,5.45-.28,6.13-.53,6.38-6.6,6.67-4.79.23-5.73-2.14-5.58-6.24.21-5.82.12-5.88,7.03-5.88Z"/>
  <path class="cls-1" d="M372.11,380.25c5.1-1.24,4.86,2.54,4.77,6.39-.12,5.31-.51,5.53-6.43,5.73-4.65.16-5.88-2.05-5.7-6.22.24-5.66.4-5.93,7.36-5.9Z"/>
  <path class="cls-1" d="M407.31,385.84c-.05,6.11-.48,6.54-6.16,6.5-5.64-.04-5.55-.39-6-6.71-.4-5.62,2.83-5.28,6.66-5.47,4.74-.24,6.18,1.87,5.5,5.69Z"/>
  <path class="cls-1" d="M135.77,371.28c-.02,5.52-.16,5.43-6.34,5.67-4.42.17-6.11-1.26-5.8-5.85.39-5.89.52-6.32,6.45-6.28,5.44.04,5.72.36,5.7,6.45Z"/>
  <path class="cls-1" d="M60.4,371.19c-.03,5.56-.2,5.72-6.25,5.69-5.77-.03-5.84-.1-5.8-6.09.03-5.39.69-6.03,6.23-5.98,5.27.04,5.85.68,5.82,6.39Z"/>
  <path class="cls-1" d="M506.94,380.27c5.69.07,5.73.1,5.67,6.23-.05,5.56-.41,5.87-6.77,5.8-4.85-.06-5.44-.87-5.32-7.33.08-4.4.58-4.76,6.41-4.7Z"/>
  <path class="cls-1" d="M24.53,395.28c5.48.02,5.89.45,5.87,6.21-.02,5.2-.75,5.87-6.39,5.86-5.36,0-5.73-.42-5.7-6.35.03-5.59.2-5.75,6.22-5.72Z"/>
  <path class="cls-1" d="M90.37,400.57c-.04,6.76-.06,6.78-6.16,6.76-5.41-.02-5.95-.58-5.91-6.16.05-5.57.45-5.64,6.61-5.98,4.7-.26,6.2,1.62,5.46,5.38Z"/>
  <path class="cls-1" d="M105.82,401.33c0,5.51-.5,6-6.07,6-5.88,0-5.67-.15-6.1-6.39-.36-5.09,1.97-5.94,6.26-5.73,5.6.28,5.92.39,5.91,6.12Z"/>
  <path class="cls-1" d="M108.79,401.32c.07-6.08.18-5.88,6.76-6.14,5.53-.22,5.42,3.07,5.28,6.89-.17,4.86-.76,5.12-6.9,5.34-5.15.19-5.5-2.75-5.14-6.1Z"/>
  <path class="cls-1" d="M135.77,9.32c-.01,5.52-.2,5.69-6.29,5.67-5.62-.02-5.77-.18-5.75-6.21.01-5.43.49-5.88,6.3-5.84,5.39.03,5.76.43,5.75,6.38Z"/>
  <path class="cls-1" d="M274.42,401.32c0-5.78.24-6.02,6-6.03,5.93,0,6.07.13,6.08,5.86,0,5.89-.32,6.21-6.39,6.18-5.08-.02-5.68-.66-5.69-6.01Z"/>
  <path class="cls-1" d="M319.88,400.26c-.9-4.47,1.85-5.21,5.97-5.03,5.78.25,6.11.4,6.1,6.04,0,5.55-.54,6.07-6.11,6.05-5.79-.03-6-.25-5.96-7.05Z"/>
  <path class="cls-1" d="M431.69,395.29c5.4.03,5.6.26,5.56,6.39-.04,5.44-.33,5.69-6.43,5.66-5.31-.02-5.68-.45-5.66-6.51.01-5.29.35-5.58,6.53-5.55Z"/>
  <path class="cls-1" d="M452.28,401.81c.6,3.81-.97,5.81-5.62,5.61-5.98-.25-6.45-.44-6.48-5.76-.04-5.96.3-6.34,5.73-6.38,6.2-.05,6.34.09,6.38,6.53Z"/>
  <path class="cls-1" d="M455.61,400.02c-1.21-5.03,2.5-4.88,6.41-4.76,5.42.15,5.65.33,5.63,6.48-.02,5.24-.49,5.64-6.56,5.6-5.21-.04-5.52-.4-5.48-7.31Z"/>
  <path class="cls-1" d="M497.61,400.89c-.04,6.21-.32,6.48-6.16,6.46-5.52-.01-5.93-.45-5.9-6.26.03-5.71.25-5.65,6.66-5.9,4.8-.19,6.07,1.99,5.4,5.69Z"/>
  <path class="cls-1" d="M8.84,422.28c-5.46-.01-5.88-.45-5.9-6.24-.01-5.38.46-5.82,6.27-5.83,5.53,0,5.78.26,5.78,6.24,0,5.63-.22,5.84-6.15,5.82Z"/>
  <path class="cls-1" d="M38.94,422.28c-5.46-.01-5.55-.12-5.53-6.41.02-5.48.24-5.68,6.34-5.64,5.4.04,5.75.43,5.7,6.43-.04,5.3-.44,5.65-6.51,5.63Z"/>
  <path class="cls-1" d="M70.09,422.29c-6.19-.02-6.85-.65-6.81-5.99.04-5.66.46-6.08,6.1-6.08,5.92,0,5.79.1,6.06,6.45.19,4.51-1.37,6.46-5.34,5.61Z"/>
  <path class="cls-1" d="M159.71,422.29c-5.72-.01-6.02-.32-6-6.01.02-5.79.33-5.72,6.46-6.14,5.19-.36,5.8,2.24,5.66,6.36-.18,5.52-.34,5.81-6.13,5.8Z"/>
  <path class="cls-1" d="M169.1,416.87c.03-6.57.14-6.68,6.37-6.64,5.25.03,5.77.6,5.75,6.32-.02,5.36-.54,5.49-6.82,5.83-4.99.27-5.82-2.18-5.3-5.5Z"/>
  <path class="cls-1" d="M250.12,422.29c-5.49,0-5.4-.17-5.7-6.35-.22-4.53,1.41-6.07,5.9-5.8,5.72.34,6.3.63,6.28,5.98-.03,5.92-.3,6.18-6.48,6.17Z"/>
  <path class="cls-1" d="M301.5,415.86c-.06,6.37-.15,6.45-6.35,6.43-5.36-.02-5.75-.46-5.71-6.43.03-5.36.51-5.45,6.96-5.73,5.27-.23,5.43,2.77,5.1,5.73Z"/>
  <path class="cls-1" d="M370.24,422.28c-4.02.64-5.7-1.27-5.5-5.73.28-6.16.31-5.99,6.69-6.43,5.42-.37,5.62,2.54,5.47,6.51-.21,5.55-.22,5.68-6.67,5.64Z"/>
  <path class="cls-1" d="M452.23,416.17c-.11,6.15-.19,6.21-6.75,6.12-4.87-.07-5.12-.74-5.36-6.86-.22-5.61,3.3-5.03,7-5.28,5.24-.35,5.48,2.69,5.11,6.02Z"/>
  <path class="cls-1" d="M169.12,491.65c-.02-5.87.15-6.05,5.82-6.06,5.75,0,6.29.49,6.28,5.8,0,5.65-.55,6.23-5.83,6.26q-6.24.03-6.27-6Z"/>
  <path class="cls-1" d="M15,431.96c.85,3.94-1.08,5.55-5.58,5.37-6.11-.24-6.45-.34-6.48-6.17-.03-5.38.55-5.94,6.18-5.99,5.41-.05,5.84.4,5.89,6.79Z"/>
  <path class="cls-1" d="M211.14,431.98c.84,4.02-1.21,5.51-5.68,5.34-6.2-.24-6.4-.21-6.4-6.15,0-5.58.43-6,6.17-6,5.46,0,5.88.45,5.9,6.81Z"/>
  <path class="cls-1" d="M250.2,437.24c-5.62,0-5.7-.1-5.69-6.21.01-5.52.42-5.9,6.19-5.86,5.36.04,5.86.58,5.84,6.33-.02,5.48-.31,5.75-6.35,5.74Z"/>
  <path class="cls-1" d="M301.47,432.18c.85,3.92-1.13,5.3-5.38,5.13-6.24-.24-6.47-.48-6.72-6.48-.19-4.63,1.9-5.89,6.14-5.72,5.71.23,5.97.31,5.97,7.08Z"/>
  <path class="cls-1" d="M304.85,431.18c.02-5.72.35-6.05,6.07-6,5.68.04,5.73.41,6.07,6.62.27,4.94-2.25,5.66-6.26,5.52-5.71-.2-5.91-.27-5.88-6.13Z"/>
  <path class="cls-1" d="M355.85,437.23c-5.82,0-6.06-.24-6.06-5.89,0-5.75.44-6.17,6.38-6.17,5.41,0,5.7.33,5.68,6.26-.02,5.72-.09,5.79-6,5.79Z"/>
  <path class="cls-1" d="M376.88,432.09c.92,4.2-1.36,5.4-5.73,5.24-3.83-.14-6.67-.25-6.41-5.38.32-6.36.44-6.79,6.43-6.78,5.42,0,5.7.33,5.71,6.92Z"/>
  <path class="cls-1" d="M196.2,9.37c-.02,5.36-.34,5.64-6.41,5.62-5.51-.02-5.67-.21-5.65-6.27.02-5.48.37-5.8,6.32-5.76,5.37.04,5.76.48,5.75,6.42Z"/>
  <path class="cls-1" d="M437.2,431.5c0,5.7-.03,5.73-6.14,5.74-5.57,0-5.67-.28-5.91-6.17-.16-4,.91-6.09,5.38-5.93,6.49.22,6.66.2,6.66,6.37Z"/>
  <path class="cls-1" d="M440.25,430.93c.02-5.32.57-5.81,6.35-5.76,5.46.04,5.32.32,5.74,6.41.35,5.18-2.07,5.94-6.35,5.72-5.48-.28-5.77-.4-5.75-6.37Z"/>
  <path class="cls-1" d="M311.32,14.99c-6.37,0-6.29-.1-6.53-5.95-.17-4.12.76-6.45,5.57-6.2,6.17.31,6.31.47,6.62,6.65.24,4.78-1.95,6.06-5.66,5.51Z"/>
  <path class="cls-1" d="M135.78,446.12c.03,5.98-.11,6.13-5.79,6.14-6.11.01-6.25-.12-6.27-5.68-.02-5.97.32-6.34,5.78-6.36,5.83-.03,6.24.37,6.27,5.91Z"/>
  <path class="cls-1" d="M226.08,445.95c-.03,6.34-.1,6.2-6.48,6.4-4.26.14-5.79-1.39-5.57-5.68.33-6.27.35-6.28,6.67-6.55,4.87-.21,5.95,2.17,5.38,5.83Z"/>
  <path class="cls-1" d="M281,452.28c-6.45-.06-6.62-.23-6.58-6.02.04-5.46.76-6.12,6.63-6.07,4.87.04,5.23.86,5.55,6.75.27,4.96-2.1,5.93-5.6,5.34Z"/>
  <path class="cls-1" d="M301.48,446.44c-.02,5.81-.06,5.85-6.04,5.84-5.77,0-6.01-.25-5.99-6.04.02-5.38.68-6.03,6.19-6.03,5.5,0,5.87.39,5.85,6.23Z"/>
  <path class="cls-1" d="M325.41,14.96c-5.5-.06-5.32-.21-5.59-6.84-.23-5.65,3.32-5.08,6.96-5.27,5.1-.27,5.29,2.91,5.2,6.62-.12,5.3-.36,5.55-6.57,5.49Z"/>
  <path class="cls-1" d="M331.86,446.32c.73,4.18-.63,6.27-5.42,6.03-6.5-.33-6.53-.09-6.54-5.93,0-5.9.26-5.96,6.36-6.24,4.57-.21,6.31,1.67,5.59,6.14Z"/>
  <path class="cls-1" d="M346.89,446.75c-.04,5.41-.24,5.58-6.4,5.52-5.51-.05-5.7-.26-5.65-6.34.05-5.22.65-5.75,6.45-5.72,5.33.03,5.64.38,5.59,6.54Z"/>
  <path class="cls-1" d="M361.85,446.6c-.01,5.56-.19,5.72-6.2,5.71-5.42-.01-5.9-.52-5.87-6.24.03-5.37.58-5.87,6.35-5.85,5.43.02,5.73.35,5.72,6.38Z"/>
  <path class="cls-1" d="M425.18,446.65c.06-6.13.55-6.31,7.18-6.51,5.46-.16,4.58,3.43,4.93,6.83.58,5.63-2.96,5.2-6.72,5.38-4.78.22-6.06-2.03-5.39-5.7Z"/>
  <path class="cls-1" d="M497.63,447c.84,3.97-1.16,5.53-5.63,5.36-6.18-.23-6.41-.23-6.43-6.09-.03-5.52.49-6.04,6.1-6.05,5.41,0,5.95.56,5.96,6.77Z"/>
  <path class="cls-1" d="M346.9,9.01c0,5.73-.26,5.98-6.01,5.97-5.85,0-6.06-.21-6.05-5.92.01-5.62.58-6.16,6.47-6.17,4.99,0,5.6.66,5.59,6.12Z"/>
  <path class="cls-1" d="M135.77,461.49c.03,5.77-.38,6.03-5.94,6.25-4.11.16-6.42-.8-6.2-5.62.29-6.37.1-6.46,6.05-6.47q6.06-.01,6.09,5.84Z"/>
  <path class="cls-1" d="M165.72,461.04c-.05,6.51-.24,6.69-6.4,6.65-5.27-.04-5.57-.39-5.54-6.57.02-5.26.33-5.23,6.52-5.56,4.78-.25,6.2,1.7,5.42,5.48Z"/>
  <path class="cls-1" d="M169.15,460.91c-.94-4.09,1.05-5.56,5.58-5.34,6.15.29,6.19.31,6.51,6.22.24,4.47-1.36,6.15-5.84,5.97-6.12-.24-6.2-.11-6.24-6.85Z"/>
  <path class="cls-1" d="M184.12,460.55c-1.22-4.84,2.18-5.05,6.21-4.93,5.81.17,5.65.14,5.94,6.51.21,4.69-1.97,5.77-6.11,5.6-5.79-.24-6.05-.34-6.03-7.19Z"/>
  <path class="cls-1" d="M250.48,455.65c5.81,0,6.08.27,6.06,5.98-.01,5.76-.36,6.11-6.07,6.08-5.61-.03-5.98-.41-5.97-6.17q0-5.89,5.98-5.89Z"/>
  <path class="cls-1" d="M265.81,455.78c5.04-1.14,5.99,1.57,5.79,5.92-.25,5.62-.42,5.98-6.11,5.98-5.56,0-5.68-.51-6.1-6.5-.36-5.2,2.12-6.13,6.41-5.4Z"/>
  <path class="cls-1" d="M274.44,461.22c.03-5.49.25-5.35,6.85-5.68,5.16-.26,5.2,2.54,5.31,6.35.13,4.47-1.53,6.12-5.98,5.88-5.78-.3-6.21-.54-6.17-6.55Z"/>
  <path class="cls-1" d="M295.69,455.64c5.8.01,5.58.06,5.88,6.56.23,4.86-2.08,5.75-6.21,5.56-5.37-.24-5.95-.67-5.92-6.35.02-5.59.23-5.78,6.25-5.77Z"/>
  <path class="cls-1" d="M304.87,460.78c-.83-3.97,1.07-5.45,5.58-5.22,6.31.32,6.42.17,6.45,6.52.02,5.06-.6,5.6-6.4,5.63-5.37.03-5.61-.24-5.63-6.93Z"/>
  <path class="cls-1" d="M355.57,467.7c-5.32-.01-5.81-.54-5.78-6.26.03-5.58.27-5.81,6.14-5.8,5.89,0,5.94.06,5.92,5.9-.02,5.87-.34,6.19-6.28,6.17Z"/>
  <path class="cls-1" d="M380.28,460.79c-1.03-4.34,1.41-5.38,5.71-5.21,6.05.24,6.14.34,6.38,6.78.19,4.95-2.6,5.5-6.47,5.39-5.36-.15-5.62-.34-5.63-6.96Z"/>
  <path class="cls-1" d="M385.73,14.96c-3.69.69-5.83-.58-5.59-5.39.32-6.26.39-6.65,5.97-6.67,5.68-.01,6.18.48,6.21,6.02.03,5.67-.31,6-6.59,6.04Z"/>
  <path class="cls-1" d="M422.25,9.88c.93,4.47-1.81,5.32-5.92,5.18-5.92-.2-6.18-.34-6.14-6.39.03-5.31.53-5.76,6.41-5.71,5.35.04,5.67.41,5.65,6.92Z"/>
  <path class="cls-1" d="M462.27,455.61c3.76-.62,5.69.97,5.49,5.58-.28,6.28-.28,6.25-6.54,6.58-4.66.24-5.87-1.74-5.69-5.99.26-6.11.11-6.16,6.74-6.17Z"/>
  <path class="cls-1" d="M491.91,455.64c5.62.04,5.75.18,5.72,6.24-.03,5.59-.31,5.85-6.32,5.81-5.43-.03-5.78-.42-5.74-6.4.03-5.46.29-5.68,6.35-5.64Z"/>
  <path class="cls-1" d="M551.58,455.64c6.38.05,6.53.22,6.47,6.53-.05,5.14-.51,5.52-6.53,5.5-5.06-.02-5.3-.66-5.65-6.49-.31-5.1,2.07-6.2,5.71-5.54Z"/>
  <path class="cls-1" d="M38.66,376.86c-3.83.78-5.61-.87-5.35-5.55.34-6.27.26-6.47,6.17-6.47,5.45,0,5.99.56,5.99,6.22,0,5.57-.22,5.79-6.8,5.79Z"/>
  <path class="cls-1" d="M160.54,470.64c3.99-.8,5.53,1.1,5.28,5.65-.36,6.39-.11,6.41-6.12,6.39-5.61-.01-5.95-.36-5.95-6.21,0-5.61.26-5.85,6.79-5.84Z"/>
  <path class="cls-1" d="M325.4,470.64c6.24.02,6.58.37,6.53,6.18-.04,5.33-.64,5.89-6.26,5.89-5.53,0-5.55-.36-5.87-6.71-.25-4.95,2.17-5.89,5.6-5.36Z"/>
  <path class="cls-1" d="M386.13,470.64c5.7-.02,6.16.42,6.19,5.95.04,5.74-.34,5.84-6.53,6.18-4.76.27-5.81-1.82-5.6-6.08.29-5.95.14-6.03,5.94-6.05Z"/>
  <path class="cls-1" d="M135.78,24.29c-.02,5.61-.51,6.1-6.04,6.11-5.78,0-6.05-.29-6.02-6.6.03-5.28.27-5.48,6.54-5.44,5.4.04,5.54.19,5.52,5.92Z"/>
  <path class="cls-1" d="M165.73,491.15c-.06,6.5-.15,6.58-6.56,6.51-5.13-.06-5.53-.54-5.47-6.68.05-5.01.6-5.15,6.77-5.46,5.07-.26,5.75,2.36,5.26,5.63Z"/>
  <path class="cls-1" d="M311.07,497.63c-6.14,0-5.96-.08-6.27-6.19-.22-4.39,1.1-6.2,5.74-5.94,6.08.34,6.22.43,6.44,7.28.16,4.99-2.86,5.08-5.91,4.84Z"/>
  <path class="cls-1" d="M325.73,497.63c-5.78,0-5.83-.05-5.83-6.1,0-5.86.1-5.95,6.04-5.93,5.68.02,5.99.34,5.99,6.14,0,5.6-.3,5.89-6.21,5.89Z"/>
  <path class="cls-1" d="M376.75,491.95c.89,4.56-1.08,6.03-5.54,5.78-5.94-.33-6.4-.51-6.42-6.16-.01-5.4.68-5.72,6.57-6.08,5.21-.32,6.07,2.29,5.39,6.46Z"/>
  <path class="cls-1" d="M385.95,497.64c-5.56,0-5.52-.19-5.79-6.23-.2-4.38,1.14-6.2,5.79-5.91,6.04.38,6.36.4,6.35,6.36-.01,5.44-.38,5.78-6.34,5.79Z"/>
  <path class="cls-1" d="M460.64,497.64c-4.37.91-5.28-1.76-5.11-5.92.24-5.88.4-6.19,6.43-6.16,5.23.03,5.75.61,5.71,6.45-.04,5.4-.33,5.66-7.02,5.62Z"/>
  <path class="cls-1" d="M135.77,506.82c0,5.56-.31,5.84-6.22,5.82-5.63-.02-5.84-.24-5.86-6.15-.01-5.53.43-5.96,6.2-5.95,5.43.02,5.88.49,5.87,6.28Z"/>
  <path class="cls-1" d="M325.49,512.6c-5.66-.07-5.39-.1-5.69-6.76-.25-5.56,3.09-5.15,6.86-5.33,5.06-.24,5.44,2.69,5.33,6.5-.16,5.33-.47,5.67-6.5,5.6Z"/>
  <path class="cls-1" d="M211.13,23.64c-.01,6.37-.37,6.74-5.89,6.74-5.76,0-5.84-.5-6.28-6.47-.39-5.41,2.47-5.52,6.51-5.62,4.44-.11,6.55,1.23,5.66,5.35Z"/>
  <path class="cls-1" d="M415.55,512.63c-3.79.64-5.67-.98-5.44-5.63.3-6.17.34-6.23,6.7-6.51,4.87-.21,5.64,2.29,5.5,6.3-.19,5.64-.24,5.83-6.76,5.84Z"/>
  <path class="cls-1" d="M430.65,512.63c-3.84.65-5.8-.94-5.57-5.61.29-6.05.44-6.45,6.27-6.45,5.61,0,5.92.33,5.88,6.19-.05,5.87-.07,5.89-6.57,5.87Z"/>
  <path class="cls-1" d="M536.6,512.62c-5.52,0-5.61-.12-5.61-6.31,0-5.41.38-5.51,6.36-5.8,4.64-.23,5.95,1.74,5.76,6.04-.27,5.96-.21,6.09-6.5,6.08Z"/>
  <path class="cls-1" d="M512.59,356.23c-.01,5.56-.15,5.48-6.26,5.73-4.42.18-6.15-1.34-5.86-5.9.36-5.79.53-6.26,5.99-6.25,5.92.01,6.15.25,6.14,6.42Z"/>
  <path class="cls-1" d="M259.49,536.57c.04-5.42.24-5.59,6.39-5.54,5.5.04,5.71.28,5.67,6.33-.03,5.28-.6,5.78-6.45,5.72-5.23-.05-5.66-.55-5.61-6.51Z"/>
  <path class="cls-1" d="M286.47,536.26c-.02,6.45-.45,6.84-6.52,6.79-5.16-.04-5.24-.56-5.63-6.6-.35-5.51,2.83-5.36,6.69-5.51,4.58-.17,6.42,1.54,5.45,5.32Z"/>
  <path class="cls-1" d="M417.03,531.01c3.93-.67,5.55,1.21,5.31,5.75-.32,5.95-.43,6.33-6.33,6.33-5.41,0-5.81-.44-5.81-6.32,0-5.47.33-5.77,6.83-5.77Z"/>
  <path class="cls-1" d="M446.94,531.06c4.57-1.15,5.43,1.62,5.42,5.98-.02,4.08-.76,6.43-5.63,6.13-6.02-.37-6.53-.55-6.52-6.26,0-5.55.29-5.82,6.74-5.85Z"/>
  <path class="cls-1" d="M460.91,531.08c6.46,0,6.77.31,6.77,6.32,0,5.16-.64,5.72-6.47,5.72-5.28,0-5.41-.41-5.68-6.48-.2-4.51,1.33-6.48,5.38-5.56Z"/>
  <path class="cls-1" d="M531,536.22c-.64-3.6.74-5.47,5.26-5.26,6.56.3,6.76.21,6.8,5.8.04,5.62-.62,6.32-5.89,6.34-5.85.02-6.15-.29-6.17-6.87Z"/>
  <path class="cls-1" d="M551.36,531.04c6.5,0,6.69.18,6.68,5.86,0,5.83-.37,6.18-6.45,6.16-5.2-.02-5.35-.52-5.7-6.51-.28-4.77,1.74-6.18,5.47-5.51Z"/>
  <path class="cls-1" d="M250.19,558.08c-5.48-.01-5.7-.26-5.68-6.33.02-5.71.1-5.78,6.18-5.75,5.45.03,5.91.53,5.89,6.28-.02,5.37-.51,5.81-6.39,5.79Z"/>
  <path class="cls-1" d="M301.48,551.6c-.04,6.31-.24,6.5-6.1,6.49-5.62-.01-5.99-.42-5.94-6.57.05-5.18.49-5.21,6.5-5.59,5.16-.33,6.16,2.1,5.54,5.68Z"/>
  <path class="cls-1" d="M324.96,558.08c-4.48.96-5.27-1.85-5.15-5.94.18-5.96.29-5.99,6.35-6.22,4.47-.17,6.07,1.53,5.83,5.97-.31,5.83-.47,6.21-7.04,6.19Z"/>
  <path class="cls-1" d="M376.88,552.82c.69,3.83-1.01,5.6-5.66,5.35-6.05-.33-6.43-.42-6.43-6.32,0-5.51.36-5.84,6.32-5.85,5.6,0,5.75.15,5.76,6.82Z"/>
  <path class="cls-1" d="M437.23,551.59c-.04,6.34-.21,6.51-6.08,6.49-5.63-.01-6.04-.47-6.01-6.64.02-4.91.75-5.22,6.7-5.53,4.92-.25,5.91,2.17,5.38,5.68Z"/>
  <path class="cls-1" d="M460.62,558.08c-4.9,1.1-4.84-2.35-5.1-6.29-.32-4.86,1.66-6.13,6.14-5.87,5.62.33,5.99.46,5.98,6.12-.02,5.92-.15,6.04-7.02,6.03Z"/>
  <path class="cls-1" d="M476.25,546c6.19.03,6.29.39,6.51,6.64.17,4.8-2.26,5.65-6.29,5.5-5.67-.22-5.64-.33-5.93-6.7-.22-4.87,2.14-5.94,5.71-5.44Z"/>
  <path class="cls-1" d="M512.59,552.33c-.02,5.62-.21,5.79-6.21,5.76-5.4-.03-5.66-.59-5.91-6.79-.21-5.03,2.63-5.46,6.48-5.33,5.5.18,5.67.26,5.65,6.37Z"/>
  <path class="cls-1" d="M470.6,401.06c.01-5.66.18-5.82,6.2-5.78,5.7.03,5.9.24,5.88,6.17-.02,5.57-.37,5.9-6.23,5.88-5.5-.02-5.85-.39-5.84-6.27Z"/>
  <path class="cls-1" d="M184.13,144.88c0-5.84.33-6.19,5.93-6.2,5.77,0,6.14.36,6.15,6.02,0,5.8-.23,6.03-6.06,6.04q-6.02,0-6.02-5.87Z"/>
  <path class="cls-1" d="M537.05,395.26c5.74.02,6,.28,6.01,6.11,0,5.58-.47,5.77-6.68,6.05-4.49.2-5.59-1.8-5.44-5.84.23-6.31.1-6.34,6.11-6.32Z"/>
  <path class="cls-1" d="M211.14,144.69c.01,5.88-.14,6.04-5.92,6.05-5.88,0-6.14-.25-6.15-5.88-.01-5.67.48-6.18,5.96-6.18,5.67,0,6.1.42,6.11,6.02Z"/>
  <path class="cls-1" d="M249.46,150.73c-4.5.96-5.17-1.86-5.01-5.96.23-5.86.3-6.11,6.02-6.09,5.77.02,6.11.35,6.1,6.06,0,5.77-.26,6-7.11,5.99Z"/>
  <path class="cls-1" d="M271.55,144.51c-.02,5.99-.35,5.97-6.76,6.31-5.01.27-5.52-2.31-5.36-6.26.22-5.39.72-5.75,6.79-5.96,4.89-.17,5.77,2.44,5.33,5.92Z"/>
  <path class="cls-1" d="M286.49,144.98c0,5.72-.06,5.77-6.14,5.76-5.8-.02-5.74-.17-5.99-6.09-.18-4.37,1.35-6.19,5.85-6.01,6.07.24,6.29.26,6.28,6.34Z"/>
  <path class="cls-1" d="M395.24,144.63c.01-5.68.38-5.8,6.59-6.05,4.8-.19,5.49,2.26,5.61,6.3.13,4.46-1.4,6.14-5.88,5.94-6.17-.27-6.34-.22-6.32-6.19Z"/>
  <path class="cls-1" d="M512.59,145.26c-.03,5.38-.22,5.54-6.44,5.49-5.36-.04-5.69-.43-5.64-6.48.05-5.19.56-5.62,6.6-5.57,5.31.04,5.5.27,5.47,6.56Z"/>
  <path class="cls-1" d="M286.49,415.95c-.04,6.11-.33,6.39-6.16,6.34-5.54-.05-5.94-.47-5.91-6.23.03-5.6.37-5.63,6.74-5.9,4.91-.21,5.87,2.21,5.33,5.79Z"/>
  <path class="cls-1" d="M536.76,150.73c-5.6,0-5.78-.2-5.75-6.18.02-5.53.39-5.88,6.18-5.89,5.35,0,5.88.57,5.86,6.31-.02,5.53-.27,5.76-6.29,5.76Z"/>
  <path class="cls-1" d="M23.41,165.77c-4.09.92-5.3-1.34-5.1-5.69.27-5.91.51-6.43,5.73-6.42,5.53,0,6.36.85,6.34,6.45-.02,5.39-.32,5.66-6.97,5.66Z"/>
  <path class="cls-1" d="M295.13,165.75c-3.57.6-5.97-.43-5.77-5.32.24-5.85.7-6.72,5.59-6.76,5.92-.05,6.49.43,6.53,5.56q.05,6.44-6.34,6.52Z"/>
  <path class="cls-1" d="M301.46,175.03c0,5.82-.32,6.15-5.92,6.16-5.5,0-5.93-.63-6.18-6.09-.2-4.24.91-6.34,5.68-6.06,6.42.37,6.43.11,6.43,6Z"/>
  <path class="cls-1" d="M310.84,169.13c5.79,0,6.06.28,6.05,5.99,0,5.46-.71,5.87-6.6,6.17-4.88.25-5.63-2.25-5.49-6.29.21-5.84.09-5.89,6.04-5.88Z"/>
  <path class="cls-1" d="M99.47,437.24c-5.72-.02-5.43-.04-5.79-6.63-.27-5,2.3-5.61,6.26-5.48,5.38.17,5.86.56,5.83,6.36-.03,5.5-.33,5.77-6.3,5.75Z"/>
  <path class="cls-1" d="M150.72,432.29c1.12,5.18-2.55,4.88-6.43,5.06-4.66.22-5.93-1.77-5.69-6.1.31-5.7.53-6.12,6.67-6.07,5.2.05,5.49.4,5.45,7.11Z"/>
  <path class="cls-1" d="M189.7,437.24c-5.56-.02-5.61-.08-5.57-6.34.04-5.42.43-5.77,6.38-5.72,5.32.05,5.69.48,5.67,6.52-.02,5.39-.22,5.56-6.49,5.54Z"/>
  <path class="cls-1" d="M75.37,190.1c0,5.85-.34,5.92-6.46,6.19-4.72.2-5.84-2-5.67-6.18.23-5.62.41-5.97,6.22-5.98q5.92,0,5.92,5.97Z"/>
  <path class="cls-1" d="M135.77,190.38c-.02,5.55-.35,5.85-6.28,5.83-5.57-.02-5.79-.26-5.77-6.34.02-5.52.28-5.76,6.29-5.74,5.61.02,5.78.21,5.76,6.25Z"/>
  <path class="cls-1" d="M271.54,431.64c-.04,5.4-.27,5.61-6.4,5.59-5.59-.02-5.67-.1-5.64-6.25.03-5.3.61-5.82,6.36-5.79,5.36.03,5.72.45,5.68,6.45Z"/>
  <path class="cls-1" d="M205.37,184.14c5.61.03,5.79.22,5.76,6.24-.02,5.39-.52,5.86-6.3,5.83-5.35-.03-5.78-.5-5.76-6.39.02-5.5.25-5.71,6.3-5.68Z"/>
  <path class="cls-1" d="M259.5,189.77c.02-5.51.2-5.68,6.31-5.64,5.55.03,5.56.28,5.81,6.3.18,4.48-1.5,6.06-5.95,5.83-5.9-.3-6.19-.37-6.17-6.49Z"/>
  <path class="cls-1" d="M356.92,184.12c4.24-.91,5.19,1.63,5,5.86-.27,6.01-.25,5.96-6.4,6.26-4.63.23-5.96-1.75-5.79-6.04.24-5.81.36-6.1,7.18-6.08Z"/>
  <path class="cls-1" d="M545.97,189.75c.01-5.52.11-5.6,6.32-5.6,5.56,0,5.55.27,5.83,6.24.22,4.57-1.64,6.04-5.98,5.88-5.84-.22-6.19-.41-6.17-6.53Z"/>
  <path class="cls-1" d="M114.4,211.14c-5.43-.03-5.67-.3-5.64-6.34.03-5.47.34-5.76,6.33-5.72,5.41.03,5.75.41,5.72,6.42-.03,5.46-.27,5.67-6.41,5.64Z"/>
  <path class="cls-1" d="M400.9,211.15c-5.47-.04-5.68-.27-5.65-6.34.03-5.53.27-5.75,6.3-5.72,5.5.02,5.8.36,5.77,6.36-.03,5.37-.46,5.75-6.42,5.7Z"/>
  <path class="cls-1" d="M437.21,206.01c.79,4.18-1.45,5.44-5.82,5.2-5.97-.33-6.27-.41-6.23-6.43.04-5.35.47-5.73,6.45-5.7,5.44.03,5.63.24,5.61,6.94Z"/>
  <path class="cls-1" d="M512.58,205.43c-.02,5.57-.2,5.74-6.23,5.72-5.37-.02-5.85-.54-5.83-6.32.03-5.37.47-5.78,6.39-5.75,5.39.03,5.7.37,5.67,6.34Z"/>
  <path class="cls-1" d="M482.67,431.19c-.04,5.88-.3,6.1-6.41,6.04-5.52-.05-5.69-.24-5.64-6.34.04-5.36.57-5.59,6.86-5.79,5.02-.15,5.57,2.69,5.2,6.08Z"/>
  <path class="cls-1" d="M492,425.21c4.09-.65,5.84,1.21,5.69,5.7-.22,6.18-.19,6.19-6.13,6.41-4.16.16-6.34-.85-6.08-5.64.33-6.12.34-6.45,6.53-6.47Z"/>
  <path class="cls-1" d="M536.06,437.24c-3.88.75-5.32-1.15-5.12-5.45.3-6.45.31-6.68,6.47-6.62,5.25.05,5.66.52,5.64,6.52-.02,5.36-.28,5.59-6.98,5.55Z"/>
  <path class="cls-1" d="M558.05,431.7c-.02,5.34-.3,5.32-6.44,5.62-4.61.22-5.97-1.6-5.72-5.98.32-5.62.63-6.19,6.04-6.16,5.8.03,6.13.39,6.11,6.53Z"/>
  <path class="cls-1" d="M150.72,220.61c-.03,5.46-.18,5.58-6.41,5.52-5.37-.05-5.7-.43-5.65-6.45.04-5.28.52-5.69,6.52-5.64,5.28.04,5.58.39,5.54,6.56Z"/>
  <path class="cls-1" d="M160.63,452.26c-6.57,0-6.91-.32-6.91-5.84,0-5.5.68-6.2,6.07-6.21,5.71,0,5.79.28,6.03,6.05.19,4.41-.79,7.08-5.19,6Z"/>
  <path class="cls-1" d="M196.18,220.16c0,5.72-.22,5.95-6.08,5.95-5.93,0-5.96-.02-5.96-5.94,0-5.88.23-6.11,5.98-6.11,5.57,0,6.06.49,6.06,6.1Z"/>
  <path class="cls-1" d="M271.54,446.48c.02,5.62-.17,5.8-6.16,5.8-5.8,0-5.63-.1-5.96-6.02-.25-4.42,1.2-6.25,5.73-6.09,5.9.21,6.37.48,6.38,6.31Z"/>
  <path class="cls-1" d="M422.26,220.35c-.01,5.46-.39,5.81-6.22,5.81-5.5,0-5.85-.38-5.83-6.21.02-5.5.45-5.91,6.24-5.9,5.43,0,5.83.43,5.81,6.3Z"/>
  <path class="cls-1" d="M460.55,226.12c-4.88,1.22-4.87-2.23-5.02-6.27-.17-4.51,1.49-6.09,5.93-5.85,5.81.31,6.23.53,6.2,6.48-.03,5.43-.29,5.67-7.11,5.63Z"/>
  <path class="cls-1" d="M485.56,219.57c-.65-3.97,1.19-5.76,5.7-5.57,5.92.24,6.35.47,6.35,6.31,0,5.66-.2,5.84-6.14,5.82-5.67-.02-5.93-.29-5.92-6.56Z"/>
  <path class="cls-1" d="M18.38,249.65c-.9-4.16,1.38-5.41,5.72-5.21,5.85.27,6.31.49,6.28,5.86-.03,5.77-.53,6.27-6.38,6.26-5.48,0-5.64-.18-5.63-6.91Z"/>
  <path class="cls-1" d="M45.43,250.75c-.02,5.39-.63,5.66-6.79,5.93-5.12.22-5.13-2.74-5.35-6.5-.27-4.58,1.45-5.99,5.88-5.75,6.07.33,6.28.29,6.26,6.32Z"/>
  <path class="cls-1" d="M144.91,244.52q5.82,0,5.82,6.05c-.02,5.77-.26,6.02-6.08,6.01-5.55,0-5.98-.45-5.97-6.23,0-5.55.32-5.84,6.24-5.83Z"/>
  <path class="cls-1" d="M407.31,250.36c0,5.62-.61,6.26-5.94,6.26-5.77,0-5.85-.43-6.22-6.52-.29-4.76,1.7-5.85,5.98-5.65,5.93.28,6.19.3,6.19,5.92Z"/>
  <path class="cls-1" d="M497.62,250.52c-.02,5.53-.62,6.13-6.09,6.09-5.39-.04-5.98-.65-5.96-6.25.02-5.74.13-5.84,6.13-5.84,5.87,0,5.95.09,5.93,5.99Z"/>
  <path class="cls-1" d="M108.78,265.85c.03-6.23.17-6.36,6.1-6.34,5.62.02,5.97.38,5.95,6.16-.02,5.6-.45,5.7-6.72,5.99-4.97.23-5.82-2.29-5.33-5.8Z"/>
  <path class="cls-1" d="M145.65,259.5c4.32-.91,5.32,1.61,5.15,5.85-.25,6.04-.27,6.03-6.36,6.28-4.54.19-6.01-1.65-5.8-6.01.28-5.93.29-6.14,7.02-6.12Z"/>
  <path class="cls-1" d="M189.93,271.55c-5.62-.01-5.51-.24-5.89-6.69-.3-5.04,2.23-5.57,6.21-5.41,5.54.22,5.95.49,5.95,6.23,0,5.55-.36,5.89-6.27,5.88Z"/>
  <path class="cls-1" d="M401.26,259.5c5.62,0,6.04.41,6.06,6.09.01,5.52-.46,5.73-6.17,6.06-4.42.25-6.18-1.21-5.97-5.77.28-6.25.15-6.37,6.09-6.38Z"/>
  <path class="cls-1" d="M437.21,265.1c-.06,6.3-.33,6.3-6.59,6.54-4.86.19-5.67-2.29-5.5-6.31.22-5.45.58-5.56,6.81-5.91,5.05-.28,5.83,2.22,5.28,5.67Z"/>
  <path class="cls-1" d="M551.93,546.01c5.84,0,6.12.28,6.12,5.94,0,5.75-.36,6.12-6.01,6.13-5.83.01-6.04-.19-6.05-6-.01-5.89.18-6.08,5.93-6.08Z"/>
  <path class="cls-1" d="M38.84,316.86c-4.07.77-5.7-1.17-5.53-5.66.14-3.68-.12-6.72,5.19-6.44,6.7.36,6.87.18,6.93,5.63.07,6.17-.16,6.4-6.6,6.47Z"/>
  <path class="cls-1" d="M467.61,311.02c.51,4.12-.83,6.19-5.3,5.97-6.65-.33-6.37-.29-6.79-6.86-.37-5.78,3.11-5.13,6.77-5.33,4.85-.27,5.97,2.22,5.32,6.23Z"/>
  <path class="cls-1" d="M33.38,325.67c.04-5.69.17-5.54,6.63-5.84,4.9-.22,5.67,2.22,5.5,6.26-.23,5.4-.73,5.98-6.81,5.91-4.84-.05-5.35-.66-5.32-6.33Z"/>
  <path class="cls-1" d="M400.56,319.92c6.36,0,6.72.33,6.75,5.87.03,5.55-.56,6.16-5.99,6.17-5.88.01-5.82-.2-6.14-6.47-.23-4.6,1.5-6.34,5.38-5.58Z"/>
  <path class="cls-1" d="M491.73,319.92c5.66,0,5.74.28,5.96,6.07.16,4.25-1.13,6.28-5.75,6.05-5.84-.29-6.39-.6-6.37-6.31.02-5.61.23-5.81,6.16-5.81Z"/>
  <path class="cls-1" d="M108.76,340.05c-.78-4.06,1.36-5.46,5.77-5.26,5.95.27,6.3.4,6.29,6.34-.01,5.33-.53,5.8-6.35,5.78-5.39-.02-5.71-.37-5.71-6.87Z"/>
  <path class="cls-1" d="M196.2,340.32c-.05,6.27-.42,6.62-6.44,6.6-5.37-.02-5.68-.37-5.63-6.37.05-5.57.22-5.53,6.31-5.74,4.42-.15,6.44,1.44,5.76,5.51Z"/>
  <path class="cls-1" d="M551.68,346.92c-5.48-.02-5.71-.28-5.7-6.33.01-5.34.47-5.76,6.34-5.73,5.49.02,5.77.33,5.73,6.32-.03,5.47-.35,5.76-6.37,5.74Z"/>
  <path class="cls-1" d="M38.28,361.88c-4.99,1.07-5.03-2.48-4.91-6.42.17-5.49.32-5.71,6.39-5.65,5.21.06,5.69.6,5.66,6.51-.02,5.23-.46,5.61-7.15,5.56Z"/>
  <path class="cls-1" d="M482.67,356.59c.94,4.34-1.56,5.46-5.79,5.35-5.96-.16-6.11-.24-6.3-5.78-.14-3.88.3-6.65,5.33-6.44,6.33.27,6.72.38,6.76,6.87Z"/>
  <path class="cls-1" d="M497.62,356.07c-.02,5.56-.32,5.85-6.18,5.83-5.62-.02-5.69-.31-5.95-6.18-.19-4.37,1.28-6.2,5.82-5.98,6.04.29,6.32.35,6.3,6.32Z"/>
  <path class="cls-1" d="M535.95,361.87c-5.05,1.11-4.84-2.48-5.04-6.41-.23-4.65,1.65-5.96,6.03-5.72,5.75.32,6.14.5,6.13,6.59-.02,5.29-.33,5.55-7.12,5.53Z"/>
  <path class="cls-1" d="M123.72,476.32c.02-5.5.25-5.71,6.32-5.68,5.47.03,5.75.34,5.74,6.3-.02,5.43-.43,5.81-6.32,5.76-5.37-.04-5.76-.47-5.74-6.38Z"/>
  <path class="cls-1" d="M552.54,361.87c-6.38-.05-6.59-.26-6.55-5.97.04-5.66.49-6.12,6.03-6.09,5.66.03,5.79.48,6.11,6.6.25,4.83-1.96,6.03-5.59,5.45Z"/>
  <path class="cls-1" d="M256.58,476.61c-.01,5.77-.42,5.84-6.53,6.19-4.86.28-5.76-1.98-5.59-6.12.23-5.93.16-6.04,5.97-6.03,5.89,0,6.17.27,6.15,5.97Z"/>
  <path class="cls-1" d="M93.75,371.05c0-5.92.25-6.18,5.84-6.2,5.4-.01,6.28.83,6.28,6.02,0,5.5-.55,6.04-6.12,6.03q-5.98,0-5.99-5.85Z"/>
  <path class="cls-1" d="M361.87,477.21c.55,3.73-.86,5.8-5.59,5.58-6.15-.3-6.3-.36-6.56-6.21-.19-4.3,1.15-6.23,5.77-6.01,6.24.3,6.36.16,6.38,6.64Z"/>
  <path class="cls-1" d="M385.08,376.88c-4.39.95-5.09-1.83-4.91-5.91.25-5.81.42-6.15,5.98-6.16,5.6,0,6.21.64,6.15,6.6-.04,5.06-.58,5.5-7.23,5.47Z"/>
  <path class="cls-1" d="M437.2,476.17c-.01,6.31-.24,6.33-6.03,6.58-4.28.18-6.29-1.11-6.07-5.74.3-6.26.25-6.12,6.72-6.47,4.95-.27,5.95,2.06,5.38,5.63Z"/>
  <path class="cls-1" d="M536.58,482.7c-5.37,0-5.32-.27-5.65-6.44-.24-4.62,1.56-5.95,5.94-5.7,5.76.33,6.21.52,6.2,6.01-.01,5.84-.33,6.14-6.49,6.13Z"/>
  <path class="cls-1" d="M301.45,9.08c-.02,5.94-.03,5.69-6.42,5.98-4.71.22-5.87-1.89-5.67-6.1.24-5.28.84-6.05,6.28-6.05,5.63,0,5.83.21,5.81,6.16Z"/>
  <path class="cls-1" d="M9.61,380.35c5.23-1.18,5.57,2.13,5.42,6.21-.19,5.38-.47,5.75-6.4,5.71-5.29-.04-5.54-.65-5.79-6.88-.2-5.16,2.77-5.45,6.76-5.04Z"/>
  <path class="cls-1" d="M196.19,491.73c.01,5.59-.33,5.92-6.18,5.92s-5.87-.04-5.88-6.05c-.01-5.8.21-6.01,6.04-6,5.61.01,6,.41,6.02,6.13Z"/>
  <path class="cls-1" d="M219.98,497.64c-5.57-.01-5.8-.52-6.03-6.66-.18-4.87,2.37-5.6,6.37-5.45,5.61.21,5.8.26,5.78,6.26-.01,5.75-.13,5.86-6.12,5.85Z"/>
  <path class="cls-1" d="M250.14,497.64c-5.57,0-5.64-.07-5.62-6.3.01-5.59.23-5.58,6.23-5.84,4.5-.19,6.08,1.59,5.89,5.97-.25,5.83-.4,6.16-6.5,6.16Z"/>
  <path class="cls-1" d="M280.3,497.65c-5.53,0-5.91-.41-5.88-6.2.03-5.31.61-5.86,6.28-5.88,5.44-.02,5.83.4,5.8,6.26-.03,5.52-.36,5.83-6.19,5.82Z"/>
  <path class="cls-1" d="M33.4,385.82c.06-5.61.09-5.36,6.78-5.67,5.07-.23,5.48,2.45,5.3,6.37-.25,5.3-.72,5.83-6.95,5.76-4.82-.05-5.2-.52-5.13-6.47Z"/>
  <path class="cls-1" d="M385.71,18.38c6.36.02,6.39.29,6.63,6.62.19,4.89-2.5,5.58-6.41,5.49-5.37-.13-5.38-.4-5.76-6.4-.32-4.97,1.78-6.41,5.54-5.71Z"/>
  <path class="cls-1" d="M431.62,18.35c5.59.11,5.48.31,5.68,6.78.16,5.02-2.53,5.53-6.44,5.34-5.18-.25-5.5-.91-5.8-7.07-.26-5.36,2.91-5.27,6.55-5.05Z"/>
  <path class="cls-1" d="M226.1,385.2c.05,6.68-.34,7.11-5.99,7.13-5.58.02-5.78-.43-6.1-6.12-.24-4.34,1.02-6.27,5.69-6.04,3.89.2,7.53-.09,6.41,5.02Z"/>
  <path class="cls-1" d="M430.67,497.64c-3.95.61-5.79-1.18-5.58-5.71.27-5.97.49-6.38,6.32-6.36,5.52.02,5.86.39,5.83,6.22-.03,5.62-.29,5.88-6.57,5.85Z"/>
  <path class="cls-1" d="M446.81,497.65c-6.41-.05-6.64-.29-6.6-6.04.04-5.83.38-5.78,6.87-6.14,5.7-.32,5,3.26,5.25,6.84.34,4.75-1.91,6.06-5.52,5.34Z"/>
  <path class="cls-1" d="M280.06,380.25c6.47.08,6.33.2,6.51,7.15.14,5.45-3.45,4.88-6.84,4.9-4.67.02-5.12-.97-5.39-6.88-.23-5.13,2.56-5.6,5.72-5.16Z"/>
  <path class="cls-1" d="M552.02,485.58c5.66,0,6.03.38,6.03,6.09,0,5.82-.15,5.97-6.07,5.98-5.77,0-6.01-.24-6.02-6.02,0-5.67.38-6.06,6.06-6.06Z"/>
  <path class="cls-1" d="M226.11,39.45c-.02,5.7-.34,6.01-6.09,6-5.49,0-6.01-.59-5.97-6.68.03-5,.56-5.43,6.7-5.38,5.24.04,5.4.21,5.37,6.05Z"/>
  <path class="cls-1" d="M144.57,512.63c-5.58-.01-5.92-.37-5.91-6.15,0-5.55.44-5.73,6.24-6,4.47-.21,6.11,1.43,5.91,5.89-.27,6.12-.21,6.27-6.24,6.26Z"/>
  <path class="cls-1" d="M169.15,507.32c.02-6.6.23-6.81,6.33-6.77,5.39.03,5.69.36,5.66,6.45-.02,5.35-.36,5.37-6.48,5.7-4.67.25-6.34-1.5-5.52-5.38Z"/>
  <path class="cls-1" d="M188.98,512.61c-4.89,1.24-5-2.26-4.89-6.23.15-5.45.46-5.85,6.21-5.84,5.44.01,5.91.5,5.89,6.17-.02,5.75-.2,5.92-7.2,5.9Z"/>
  <path class="cls-1" d="M310.06,512.62c-4.14.88-5.47-1.3-5.27-5.71.27-6.06.31-6.33,6.29-6.33,5.26,0,5.79.57,5.8,6.31.02,5.48-.24,5.71-6.82,5.73Z"/>
  <path class="cls-1" d="M280.82,33.43c5.62.01,5.7.1,5.67,6.23-.03,5.32-.56,5.81-6.34,5.78-5.29-.03-5.77-.57-5.74-6.42.03-5.45.2-5.6,6.41-5.59Z"/>
  <path class="cls-1" d="M334.83,506.66c0-5.54.59-6.14,6.05-6.11,5.6.03,5.74.51,6.11,6.6.3,4.92-2.14,5.64-6.17,5.51-5.86-.19-5.99-.16-6-6Z"/>
  <path class="cls-1" d="M301.35,39.68c.95,4.75-1.3,6.04-5.68,5.83-5.84-.29-6.29-.53-6.24-6.48.05-5.42.35-5.36,6.47-5.74,5.18-.32,6.23,2.11,5.45,6.39Z"/>
  <path class="cls-1" d="M331.94,39c-.08,6.18-.46,6.53-6.64,6.46-5.12-.06-5.46-.48-5.4-6.67.05-5.25.35-5.29,6.53-5.48,4.6-.14,6.27,1.75,5.51,5.68Z"/>
  <path class="cls-1" d="M437.23,39.08c.02,5.88-.4,6.34-5.74,6.38-5.71.04-6.14-.58-6.39-6.35-.18-4.09,1.06-5.95,5.47-5.78,6.6.25,6.65.07,6.66,5.75Z"/>
  <path class="cls-1" d="M445.71,512.61c-3.9.6-5.83-.97-5.56-5.64.35-6.05.46-6.1,6.78-6.44,4.66-.25,5.49,2,5.39,5.85-.16,6.16-.14,6.25-6.61,6.23Z"/>
  <path class="cls-1" d="M455.59,507.29c.05-6.43.45-6.55,6.58-6.79,4.78-.18,5.71,2.16,5.53,6.25-.25,5.69-.34,5.61-6.71,5.97-4.93.28-6.01-1.98-5.4-5.43Z"/>
  <path class="cls-1" d="M129.68,63.31c5.78,0,6.1.3,6.1,6.06,0,5.8-.21,6.02-5.99,6.02-5.96,0-6.07-.1-6.07-5.87,0-5.7.47-6.19,5.96-6.2Z"/>
  <path class="cls-1" d="M145.77,531.03c4.43-.92,5.22,1.8,5.04,5.95-.26,5.82-.4,6.13-6.52,6.09-5.28-.04-5.67-.5-5.62-6.54.04-5.28.36-5.54,7.11-5.5Z"/>
  <path class="cls-1" d="M361.85,70.53c1.31,5.05-2.4,4.96-6.32,4.87-5.42-.12-5.55-.43-5.81-6.37-.2-4.6,1.8-5.97,6.08-5.8,5.81.23,6.05.32,6.05,7.3Z"/>
  <path class="cls-1" d="M14.98,400.69c-.05,6.57-.15,6.67-6.5,6.63-5.13-.03-5.59-.58-5.55-6.63.03-5.07.52-5.18,6.68-5.5,4.86-.25,6.09,1.89,5.38,5.51Z"/>
  <path class="cls-1" d="M380.24,85.07c.02-6.37.42-6.78,5.99-6.76,5.6.02,6.07.49,6.05,6.14-.02,5.76-.26,5.71-6.59,6.01-4.71.22-6.28-1.63-5.46-5.4Z"/>
  <path class="cls-1" d="M395.26,535.96c-1.35-4.99,2.34-4.83,6.26-5.02,4.44-.2,6.14,1.37,5.86,5.92-.33,5.59-.67,6.24-6,6.25-5.85,0-6.13-.29-6.12-7.15Z"/>
  <path class="cls-1" d="M69.33,407.34c-5.65.02-6.01-.34-6.02-6.16-.02-5.59.29-5.88,6.19-5.91q5.87-.03,5.88,6.01c0,5.73-.29,6.03-6.05,6.05Z"/>
  <path class="cls-1" d="M425.16,536.73c.03-5.46.4-5.37,6.83-5.8,5.77-.38,5.09,3.12,5.31,6.78.31,4.94-2.39,5.58-6.37,5.41-5.38-.22-5.81-.55-5.78-6.4Z"/>
  <path class="cls-1" d="M205.05,108.77c5.94-.02,6.09.12,6.09,5.85,0,5.75-.44,6.21-5.92,6.21-5.71,0-6.14-.42-6.16-6.02-.01-5.75.25-6.02,5.98-6.04Z"/>
  <path class="cls-1" d="M226.11,114.88c-.01,5.77-.22,5.97-6.1,5.95-5.52-.02-5.95-.47-5.94-6.22,0-5.5.38-5.85,6.25-5.84,5.75,0,5.81.07,5.8,6.11Z"/>
  <path class="cls-1" d="M497.6,536.48c.02,6.28-.24,6.56-5.96,6.58-5.85.02-5.81-.25-6.17-6.49-.28-4.85,2.07-5.75,6.13-5.63,5.65.17,5.99.35,6,5.53Z"/>
  <path class="cls-1" d="M244.51,114.46c.01-5.69.05-5.72,6.19-5.69,5.51.03,5.9.45,5.87,6.26-.03,5.29-.64,5.84-6.35,5.81-5.4-.03-5.72-.4-5.71-6.38Z"/>
  <path class="cls-1" d="M259.49,114.38c.02-5.47.22-5.65,6.32-5.61,5.54.03,5.78.3,5.74,6.29-.03,5.35-.52,5.79-6.38,5.76-5.33-.03-5.71-.46-5.69-6.44Z"/>
  <path class="cls-1" d="M226.1,401.38c0,5.63-.36,5.97-6.16,5.96-5.55-.01-5.58-.41-5.95-6.72-.3-5.11,2.46-5.48,6.32-5.39,5.77.14,5.8.07,5.79,6.14Z"/>
  <path class="cls-1" d="M265.44,546.01c5.73,0,6.1.36,6.12,5.94.02,5.71-.4,6.13-6.01,6.13-5.76,0-6.07-.31-6.06-6.01,0-5.75.3-6.05,5.95-6.06Z"/>
  <path class="cls-1" d="M271.56,400.96c.03,5.96-.41,6.2-6.24,6.46-4.44.2-6.09-1.45-5.89-5.92.27-6.07.15-6.18,5.78-6.22,5.98-.04,6.33.27,6.36,5.69Z"/>
  <path class="cls-1" d="M310.62,558.08c-5.65-.01-5.49-.15-5.84-6.62-.26-4.75,1.84-5.72,6.02-5.52,5.97.29,6.08.18,6.08,6.45,0,5.29-.45,5.7-6.26,5.68Z"/>
  <path class="cls-1" d="M346.91,114.96c-.02,5.43-.52,5.9-6.25,5.86-5.4-.03-5.83-.5-5.81-6.29.02-5.53.33-5.82,6.22-5.77,5.63.05,5.87.3,5.85,6.2Z"/>
  <path class="cls-1" d="M356.82,108.75c4.24-.86,5.3,1.57,5.1,5.86-.28,5.86-.41,6.23-5.95,6.22-5.8,0-6.21-.43-6.19-6.5.02-5.3.36-5.59,7.04-5.58Z"/>
  <path class="cls-1" d="M400.8,558.08c-5.34-.02-5.6-.33-5.55-6.45.05-5.5.28-5.49,6.35-5.71,4.53-.16,5.99,1.69,5.77,6.05-.3,5.84-.39,6.14-6.56,6.11Z"/>
  <path class="cls-1" d="M334.84,400.8c.03-5.38.25-5.58,6.44-5.53,5.46.04,5.44.29,5.71,6.39.2,4.64-1.83,5.94-6.07,5.77-5.66-.23-6.1-.53-6.07-6.62Z"/>
  <path class="cls-1" d="M401.25,123.72c5.7-.01,5.89.37,6.14,6.05.18,4.25-1.04,6.3-5.71,6.09-6.29-.28-6.43-.17-6.43-6.13,0-5.79.2-5.99,6.01-6Z"/>
  <path class="cls-1" d="M536.48,123.72c6.24.05,6.66.5,6.58,6.57-.07,5.05-.7,5.21-6.66,5.6-5.54.37-5.3-2.84-5.49-6.69-.24-4.73,1.85-6.14,5.57-5.49Z"/>
  <path class="cls-1" d="M113.67,150.73c-5.01,1.11-5.08-2.41-4.94-6.39.18-5.47.34-5.7,6.44-5.65,5.3.05,5.71.52,5.66,6.53-.04,5.29-.37,5.56-7.16,5.51Z"/>
  <path class="cls-1" d="M135.77,491.7c0,5.64-.32,5.96-6.1,5.95-5.77,0-5.94-.18-5.95-6.04,0-5.69.33-6.02,6.07-6.02,5.66,0,5.98.33,5.99,6.11Z"/>
  <path class="cls-1" d="M491.69,470.65c5.76.01,5.96.21,5.94,6.05-.01,5.68-.36,6.02-6.09,6-5.63-.02-6.01-.41-5.99-6.12.02-5.58.4-5.95,6.14-5.94Z"/>
  <path class="cls-1" d="M476.48,150.74c-5.65-.03-5.87-.27-5.86-6.1.01-5.65.4-5.8,6.61-6.04,4.78-.18,5.66,2.27,5.5,6.31-.21,5.54-.4,5.86-6.25,5.83Z"/>
  <path class="cls-1" d="M558.05,476.71c0,5.58-.43,6-6.12,6-5.48,0-5.99-.53-5.97-6.14.02-5.75.21-5.94,6.12-5.91,5.76.03,5.98.25,5.97,6.06Z"/>
  <path class="cls-1" d="M491.44,135.8c-5.5,0-5.89-.42-5.88-6.23.01-5.52.37-5.86,6.23-5.84,5.64.01,5.84.23,5.83,6.18,0,5.58-.35,5.9-6.18,5.89Z"/>
  <path class="cls-1" d="M558.05,401.33c-.01,5.55-.5,6.02-6.18,6.01-5.5,0-5.91-.44-5.9-6.24,0-5.67.19-5.85,6.13-5.83,5.75.03,5.96.25,5.95,6.06Z"/>
  <path class="cls-1" d="M422.26,476.6c.01,5.83-.27,5.84-6.45,6.16-4.72.24-5.81-1.94-5.66-6.1.21-5.74.31-6,6.04-6.02,5.79-.03,6.05.23,6.06,5.96Z"/>
  <path class="cls-1" d="M512.59,220.61c-.02,5.37-.28,5.39-6.38,5.62-4.56.17-5.96-1.74-5.74-6.08.28-5.67.47-6.09,6.13-6.08,5.78.01,6.01.26,5.99,6.55Z"/>
  <path class="cls-1" d="M410.2,280.46c.01-5.66.39-6.03,6.08-6.02,5.69,0,5.77.39,6.06,6.59.23,4.81-2.03,5.74-6.17,5.55-5.75-.27-5.99-.33-5.97-6.12Z"/>
  <path class="cls-1" d="M491.86,286.5c-6.05-.05-6.36-.38-6.3-6.23.05-5.41.64-5.92,6.76-5.83,4.97.07,5.08.58,5.36,6.81.23,5.03-2.4,5.71-5.83,5.26Z"/>
  <path class="cls-1" d="M437.23,220.97c.86,4.13-1.33,5.43-5.74,5.21-6.11-.31-6.37-.32-6.34-6.28.02-5.41.52-5.87,6.32-5.84,5.42.03,5.77.41,5.75,6.92Z"/>
  <path class="cls-1" d="M407.32,401.44c-.03,5.58-.47,5.68-6.73,5.98-5.04.24-5.51-2.46-5.38-6.37.19-5.67.22-5.81,6.19-5.78,5.63.03,5.96.37,5.92,6.16Z"/>
  <path class="cls-1" d="M491.04,485.57c6.27,0,6.58.31,6.59,5.97.01,5.91-.18,6.1-5.91,6.11-5.84,0-5.99-.36-6.22-6.38-.17-4.51,1.62-6.32,5.55-5.7Z"/>
  <path class="cls-1" d="M476.4,497.64c-5.56,0-5.8-.26-5.78-6.18.01-5.47.44-5.88,6.21-5.88,5.58,0,5.87.3,5.86,6.26,0,5.48-.36,5.81-6.29,5.81Z"/>
  <path class="cls-1" d="M361.87,492.2c.59,3.76-.89,5.76-5.59,5.52-6.14-.31-6.3-.36-6.55-6.15-.19-4.26,1.11-6.28,5.74-6.07,6.15.28,6.38.26,6.4,6.69Z"/>
  <path class="cls-1" d="M165.76,160.73c1.17,4.66-1.93,5.21-6.14,5.05-5.74-.22-5.96-.28-5.91-6.09.04-5.3.77-5.99,6.32-5.97,5.49.01,5.75.3,5.73,7.01Z"/>
  <path class="cls-1" d="M304.85,159.59c.02-5.38.68-5.78,6.66-5.97,4.85-.15,5.56,2.55,5.44,6.47-.16,5.43-.32,5.67-6.4,5.64-5.65-.02-5.72-.11-5.7-6.14Z"/>
  <path class="cls-1" d="M431.69,14.95c-6.39-.06-6.59-.27-6.52-6.48.05-5.16.59-5.61,6.61-5.54,5.07.06,5.28.6,5.53,6.65.2,4.72-1.78,6.21-5.62,5.37Z"/>
  <path class="cls-1" d="M422.26,552.19c0,5.56-.37,5.91-6.19,5.9-5.54-.02-5.86-.36-5.87-6.23,0-5.47.44-5.9,6.19-5.87,5.54.03,5.87.37,5.87,6.2Z"/>
  <path class="cls-1" d="M380.27,295.71c0-6.03.19-6.24,5.75-6.26,5.6-.02,5.99.58,6.29,5.96.23,4.21-.75,6.38-5.54,6.16-6.48-.3-6.5-.05-6.5-5.87Z"/>
  <path class="cls-1" d="M14.99,220.97c.88,4.15-1.39,5.43-5.74,5.24-5.89-.27-6.31-.45-6.31-5.83,0-5.94.38-6.32,6.33-6.31,5.37,0,5.73.4,5.72,6.91Z"/>
  <path class="cls-1" d="M226.09,430.94q-.05,6.35-6.5,6.29c-5.28-.05-5.6-.43-5.56-6.56.03-5.08.6-5.29,6.68-5.57,4.91-.23,5.93,2.19,5.37,5.84Z"/>
  <path class="cls-1" d="M90.37,311.28c.66,3.83-.77,5.92-5.47,5.74-5.68-.23-6.48-.7-6.56-5.8-.09-5.89.27-6.29,5.7-6.35q6.25-.06,6.33,6.41Z"/>
  <path class="cls-1" d="M416.28,349.82c5.72.02,6.01.34,5.98,6.63-.03,5.23-.35,5.27-6.54,5.52-4.66.19-5.85-1.82-5.6-6.12.34-5.72.42-6.05,6.16-6.03Z"/>
  <path class="cls-1" d="M145.32,75.37c-6.46-.01-6.4-.22-6.7-6.58-.23-4.88,2.23-5.69,6.27-5.53,5.56.21,5.57.43,5.94,6.75.29,4.96-1.98,6-5.5,5.36Z"/>
  <path class="cls-1" d="M205.36,546.01c5.57.02,5.79.25,5.76,6.23-.03,5.61-.3,5.86-6.22,5.84-5.45-.02-5.84-.43-5.8-6.28.03-5.55.31-5.82,6.27-5.8Z"/>
  <path class="cls-1" d="M286.5,115.14c.53,3.63-.65,5.98-5.45,5.78-6.09-.25-6.62-.51-6.63-6.09-.01-5.78.26-6.06,5.99-6.05,5.94,0,6.08.14,6.08,6.36Z"/>
  <path class="cls-1" d="M395.25,113.69c-1.11-5.04,2.49-5.04,6.41-4.95,5.38.13,5.5.44,5.74,6.46.19,4.68-1.96,5.86-6.17,5.68-5.82-.25-6.02-.3-5.99-7.19Z"/>
  <path class="cls-1" d="M558.05,416.38c-.01,5.62-.32,5.91-6.17,5.91-5.54,0-5.94-.42-5.93-6.17.01-5.66.29-5.93,6.16-5.9,5.58.03,5.95.41,5.94,6.16Z"/>
  <path class="cls-1" d="M135.77,130.12c-.02,5.44-.31,5.7-6.33,5.66-5.53-.03-5.76-.28-5.73-6.36.03-5.45.34-5.74,6.38-5.7,5.38.03,5.7.39,5.68,6.4Z"/>
  <path class="cls-1" d="M470.6,340.64c.01-5.5.33-5.56,6.26-5.83,4.43-.2,6.11,1.41,5.89,5.86-.28,5.83-.52,6.28-6.37,6.26-5.36-.02-5.79-.49-5.78-6.29Z"/>
  <path class="cls-1" d="M204.74,482.7c-5.18-.03-5.74-.65-5.68-6.42.05-5.34.42-5.67,6.45-5.64,5.35.03,5.68.4,5.64,6.37-.04,5.31-.5,5.72-6.4,5.69Z"/>
  <path class="cls-1" d="M416.55,334.87c5.43,0,5.54.37,5.81,6.3.21,4.5-1.51,6.05-5.93,5.84-5.86-.28-6.21-.38-6.22-5.96-.02-6.06.1-6.17,6.34-6.18Z"/>
  <path class="cls-1" d="M211.14,416.87c.77,3.97-1.1,5.66-5.63,5.48-6.1-.24-6.24-.34-6.51-6.19-.2-4.32,1.22-6.21,5.78-6.01,6.03.26,6.33.32,6.37,6.72Z"/>
  <path class="cls-1" d="M190.18,410.23c5.71,0,6.03.33,6.03,6.1,0,5.67-.29,5.96-6.19,5.96-5.73,0-5.91-.18-5.89-6.11.02-5.84.14-5.96,6.04-5.95Z"/>
  <path class="cls-1" d="M60.41,416.37c-.02,5.64-.39,5.97-6.63,5.92-5.07-.04-5.21-.54-5.51-6.63-.24-4.89,2.19-5.65,6.23-5.48,5.67.24,5.93.35,5.91,6.19Z"/>
  <path class="cls-1" d="M415.89,497.65c-5.38-.02-5.73-.42-5.69-6.32.04-5.37.49-5.77,6.36-5.75,5.47.01,5.72.29,5.69,6.4-.03,5.45-.31,5.71-6.36,5.68Z"/>
  <path class="cls-1" d="M551.88,135.78c-5.55,0-5.91-.39-5.91-6.18,0-5.71.2-5.89,6.12-5.88,5.65.02,5.97.35,5.96,6.16-.01,5.57-.35,5.9-6.17,5.89Z"/>
  <path class="cls-1" d="M558.05,280.93c.61,3.73-.81,5.84-5.51,5.66-6.31-.24-6.59-.27-6.58-5.99,0-5.71.44-6.15,5.94-6.15,5.76,0,6.13.36,6.14,6.48Z"/>
  <path class="cls-1" d="M199.08,54.4c.02-5.69.37-6.04,6.06-6.04,5.71,0,6.01.3,6.01,6,0,5.71-.34,6.05-6.01,6.05-5.72,0-6.08-.37-6.06-6.01Z"/>
  <path class="cls-1" d="M422.26,129.57c.01,5.83-.33,6.2-5.86,6.21-5.82,0-6.19-.34-6.2-5.88-.01-5.84.31-6.18,5.87-6.17,5.9.01,6.17.27,6.18,5.84Z"/>
  <path class="cls-1" d="M265.32,60.43c-5.52-.03-5.64-.47-5.93-6.68-.23-4.94,2.32-5.57,6.29-5.43,5.58.2,5.92.41,5.87,6.25-.05,5.44-.53,5.89-6.23,5.87Z"/>
  <path class="cls-1" d="M123.72,551.76c.01-5.61.2-5.78,6.26-5.75,5.45.02,5.83.44,5.8,6.27-.03,5.46-.43,5.84-6.29,5.81-5.42-.03-5.79-.44-5.78-6.33Z"/>
  <path class="cls-1" d="M422.26,205.13c0,5.77-.31,5.81-6.51,6.1-4.71.22-5.8-1.93-5.6-6.12.26-5.65.43-6.02,6.1-6.03,5.66-.01,6.02.35,6.02,6.05Z"/>
  <path class="cls-1" d="M491.64,199.07c5.7.01,5.98.3,5.97,6.09,0,5.74-.34,5.8-6.53,6.06-4.73.2-5.77-2.01-5.59-6.16.24-5.64.43-6.01,6.15-5.99Z"/>
  <path class="cls-1" d="M482.67,415.71c-.01,6.21-.43,6.62-6.34,6.59-5.41-.03-5.73-.38-5.7-6.34.03-5.48.33-5.55,6.3-5.79,4.46-.18,6.39,1.48,5.73,5.55Z"/>
  <path class="cls-1" d="M130.09,259.5c5.45.03,5.71.33,5.67,6.36-.04,5.38-.44,5.74-6.4,5.7-5.36-.04-5.69-.42-5.64-6.43.04-5.36.4-5.66,6.37-5.63Z"/>
  <path class="cls-1" d="M135.77,340.76c.03,5.78-.33,6-5.89,6.21-4.05.15-6.45-.67-6.23-5.52.28-6.31.26-6.57,6-6.58,5.95-.01,6.09.12,6.13,5.89Z"/>
  <path class="cls-1" d="M346.9,129.95c-.01,5.59-.28,5.83-6.22,5.84-5.45,0-5.85-.43-5.84-6.21.01-5.53.36-5.85,6.2-5.84,5.45,0,5.87.45,5.85,6.22Z"/>
  <path class="cls-1" d="M416.25,422.28c-5.75,0-5.82-.37-6.14-6.48-.25-4.77,1.97-5.79,6.11-5.64,5.86.22,6.05.26,6.03,6.54-.02,5.28-.35,5.58-6,5.58Z"/>
  <path class="cls-1" d="M54.04,135.77c-5.49-.03-5.71-.28-5.68-6.37.03-5.39.39-5.71,6.34-5.68,5.4.03,5.75.42,5.71,6.35-.03,5.5-.3,5.73-6.38,5.7Z"/>
  <path class="cls-1" d="M527.6,446.6c-.03,5.6-.23,5.46-6.18,5.8-5.28.3-5.43-2.47-5.53-6.55-.12-4.7,1.77-5.92,6.06-5.69,5.41.29,5.69.39,5.65,6.44Z"/>
  <path class="cls-1" d="M455.73,235.19c-.57-3.79.25-6.01,4.78-5.8,7.07.34,7.16.19,7.16,5.88,0,5.67-.23,5.55-6.67,5.95-4.99.31-5.96-2.01-5.27-6.04Z"/>
  <path class="cls-1" d="M491.08,527.68c-3.61.61-5.85-.5-5.62-5.34.3-6.11.15-6.18,5.65-6.31,3.82-.1,7.05-.26,6.62,5.36-.47,6.18-.14,6.25-6.65,6.29Z"/>
  <path class="cls-1" d="M515.96,159.16c-.6-3.86,1.02-5.77,5.67-5.48,5.86.36,5.71.29,6.08,6.55.28,4.76-1.77,5.78-5.96,5.58-5.71-.27-5.81-.18-5.78-6.65Z"/>
  <path class="cls-1" d="M512.58,236.16c1.2,4.8-2.09,5.13-6.22,4.99-5.58-.18-5.6-.34-5.9-6.25-.22-4.45,1.64-5.65,5.74-5.48,6.39.26,6.39.1,6.38,6.74Z"/>
  <path class="cls-1" d="M129.23,241.04c-5.23,1.09-5.36-2.06-5.64-6.15-.38-5.53,2.7-5.28,6.57-5.52,5.06-.31,5.6,2.1,5.76,6.36.21,5.39-2.56,5.87-6.69,5.31Z"/>
  <path class="cls-1" d="M145.1,241.19c-6.23-.03-6.09-.3-6.53-6.23-.4-5.47,2.66-5.29,6.54-5.55,5.05-.34,5.64,2.01,5.77,6.28.16,5.19-2.26,6.11-5.78,5.5Z"/>
  <path class="cls-1" d="M522.19,531.16c5.21-1.37,5.62,1.92,5.48,6.06-.18,5.51-.42,5.86-6.25,5.84-5.28-.02-5.26-.33-5.54-7.04-.2-4.82,2.25-5.49,6.31-4.86Z"/>
  <path class="cls-1" d="M235.19,437.12c-4.55.98-5.98-1.11-5.82-5.5.22-6.2.25-6.45,5.98-6.44,5.6,0,5.54.26,5.89,6.63.27,4.77-1.79,6.08-6.05,5.31Z"/>
  <path class="cls-1" d="M240.99,69.71c1.1,4.78-1.34,5.98-5.84,5.73-5.58-.3-5.41-.26-5.77-6.67-.29-5.26,2.45-5.43,6.5-5.58,5.06-.19,5.65,2.43,5.1,6.52Z"/>
  <path class="cls-1" d="M241.09,370.36c-.05,6.56-.07,6.23-6.23,6.63-5.01.32-5.64-2.17-5.48-6.16.24-5.71.45-5.81,6.14-6.07,4.61-.21,6.32,1.65,5.58,5.59Z"/>
  <path class="cls-1" d="M236.26,184.14c4.8-1.22,5.06,2.15,4.94,6.2-.18,5.69-.26,5.88-6.11,5.86-5.36-.01-5.62-.3-5.61-6.32,0-5.64.15-5.77,6.78-5.74Z"/>
  <path class="cls-1" d="M515.97,431.23c.06-5.81.41-6.14,6.48-6.07,4.86.05,5.05.68,5.32,6.88.22,5.09-2.55,5.41-6.39,5.27-5.25-.19-5.47-.3-5.41-6.08Z"/>
  <path class="cls-1" d="M189.54,229.49c6.56,0,6.65.09,6.65,5.86,0,5.62-.2,5.81-6.1,5.82-5.93.01-5.7-.05-6.04-5.89-.28-4.79,1.48-6.63,5.5-5.8Z"/>
  <path class="cls-1" d="M370.41,241.17c-3.66.5-5.85-.73-5.72-5.53.11-4.05.72-6.46,5.57-6.25,6.44.27,6.61.18,6.62,5.83,0,5.81-.11,5.92-6.46,5.95Z"/>
  <path class="cls-1" d="M431.84,241.16c-6.55-.09-6.75-.31-6.67-6.58.06-5.03.29-4.9,7.33-5.18,5.71-.22,4.45,3.53,4.78,6.81.5,5.02-2.53,5.24-5.44,4.95Z"/>
  <path class="cls-1" d="M445.64,241.2c-4.18.77-5.54-1.4-5.5-5.79.03-3.86.61-6.15,5.28-5.97,6.77.26,6.78.01,6.82,5.56q.04,6.13-6.59,6.19Z"/>
  <path class="cls-1" d="M470.61,235.93c.02-6.21.3-6.46,6.33-6.44,5.56.02,5.38.25,5.83,6.25.43,5.65-2.87,5.29-6.69,5.49-4.68.24-6.38-1.6-5.47-5.3Z"/>
  <path class="cls-1" d="M521.92,169.25c4.66-1.02,5.97,1.15,5.76,5.56-.28,6.05-.4,6.45-5.73,6.43-5.67-.02-5.76-.42-6.06-6.61-.23-4.68,1.63-6.26,6.03-5.38Z"/>
  <path class="cls-1" d="M521.41,135.64c-5.77,1.3-5.23-2.54-5.53-6.29-.4-5.06,2.1-5.58,6.33-5.78,5.45-.26,5.33,2.7,5.53,6.61.24,4.96-1.91,6.38-6.32,5.46Z"/>
  <path class="cls-1" d="M551.64,241.14c-5.54-.01-5.38-.2-5.77-6.19-.32-4.92,2.02-5.64,6.08-5.49,6.09.22,6.14.1,6.11,6.24-.03,5.33-.17,5.46-6.42,5.44Z"/>
  <path class="cls-1" d="M515.94,400.51c-.7-3.78.91-5.57,5.55-5.31,6.1.33,5.91.07,6.2,6.17.2,4.22-.9,6.3-5.58,6.08-5.75-.28-6.15-.43-6.17-6.94Z"/>
  <path class="cls-1" d="M527.63,355.47c-.03,6.35-.14,6.14-6.13,6.5-4.76.29-5.83-1.72-5.61-5.99.31-5.95.36-5.91,6.43-6.24,5.09-.28,5.72,2.43,5.31,5.73Z"/>
  <path class="cls-1" d="M241.09,401.24c0,5.85-.23,6.09-5.94,6.09-5.48,0-5.39-.22-5.75-6.32-.27-4.54,1.27-6.06,5.79-5.8,5.87.34,5.89.08,5.9,6.04Z"/>
  <path class="cls-1" d="M527.64,219.76c-.03,6.24-.18,6.38-6.22,6.39-5.35,0-5.5-.17-5.45-6.47.05-5.27.56-5.48,6.45-5.73,5.05-.21,5.68,2.54,5.23,5.81Z"/>
  <path class="cls-1" d="M537.42,241.18c-6.26-.03-6.08-.25-6.52-6.15-.4-5.39,2.45-5.72,6.5-5.57,5.4.2,5.48.45,5.76,6.4.24,5.01-2.4,5.75-5.74,5.32Z"/>
  <path class="cls-1" d="M527.59,552.8c.89,4.31-1.47,5.6-5.99,5.35-5.54-.31-5.36-.19-5.71-6.78-.23-4.48,1.55-5.62,5.64-5.44,6.03.26,6.09.13,6.06,6.87Z"/>
  <path class="cls-1" d="M14.98,235.04c.02,6.06,0,5.82-6.25,6.18-4.6.27-5.93-1.57-5.89-5.92.04-3.9.67-6.12,5.33-5.89,6.78.33,6.79.08,6.81,5.63Z"/>
  <path class="cls-1" d="M527.61,325.42c-.04,6.27-.38,6.61-6.01,6.56-5.3-.04-5.64-.43-5.61-6.45.03-5.54.24-5.41,6.25-5.75,4.96-.28,5.9,2.12,5.37,5.63Z"/>
  <path class="cls-1" d="M522.27,512.6c-6.21-.01-6.17-.17-6.37-6.16-.14-4.27,1.09-6.28,5.79-5.97,5.61.38,5.78.53,6.05,6.69.2,4.64-1.64,6.29-5.47,5.44Z"/>
  <path class="cls-1" d="M527.53,266.04c1.15,5.27-2.12,5.37-6.14,5.65-5.48.38-5.24-2.75-5.51-6.6-.36-5.1,2.15-5.56,6.34-5.73,5.36-.23,5.87,2.55,5.31,6.69Z"/>
  <path class="cls-1" d="M557.94,522.21c1.22,5.61-2.45,5.53-6.31,5.45-5.56-.11-5.42-.25-5.77-6.66-.31-5.87,3.54-4.72,6.96-5.03,4.95-.45,5.82,2.18,5.11,6.24Z"/>
  <path class="cls-1" d="M173.98,527.64c-4.58,1.02-5.04-2.02-4.91-5.98.19-5.6.18-5.71,6.26-5.68,5.5.02,5.82.36,5.81,6.26,0,5.12-.4,5.44-7.17,5.4Z"/>
  <path class="cls-1" d="M271.57,521.52c-.05,6.01-.3,5.91-6.84,6.23-5.01.25-5.45-2.34-5.29-6.23.22-5.39.28-5.34,6.84-5.6,4.83-.2,5.93,2.1,5.29,5.6Z"/>
  <path class="cls-1" d="M326.31,516.04c3.59-.6,5.88.38,5.71,5.06-.23,6.13-.3,6.48-5.53,6.56-6.29.1-6.57-.13-6.62-5.33-.07-6.15-.02-6.2,6.44-6.29Z"/>
  <path class="cls-1" d="M340.7,516.02c6.21.06,5.87.14,6.31,6.3.4,5.71-2.93,5.44-6.72,5.34-5.32-.13-5.21-.33-5.55-6.54-.3-5.41,2.9-5.29,5.96-5.1Z"/>
  <path class="cls-1" d="M527.62,417.11c.77,3.94-1.2,5.37-5.66,5.29-4.02-.07-6.35-.59-6.09-5.47.35-6.48.23-6.7,5.71-6.71,5.99,0,6,0,6.03,6.88Z"/>
  <path class="cls-1" d="M512.59,522.45c.87,4.01-1.14,5.49-5.63,5.28-6.23-.29-6.45-.28-6.43-6.15.02-5.29.36-5.59,6.46-5.57,5.47.02,5.59.15,5.59,6.44Z"/>
  <path class="cls-1" d="M536.81,527.65c-5.75,0-5.59-.07-5.88-6.06-.21-4.19,1.08-5.88,5.47-5.68,6.34.29,6.63.31,6.66,5.93.02,5.45-.36,5.8-6.24,5.81Z"/>
  <path class="cls-1" d="M229.5,535.96c-1.12-5.12,2.56-4.73,6.42-5.03,5.25-.41,5.15,2.52,5.3,6.3.17,4.43-1.25,6.19-5.82,5.94-5.76-.32-5.91-.24-5.89-7.2Z"/>
  <path class="cls-1" d="M113.98,241.14c-4.42,1.01-5.18-1.61-5.36-5.99-.2-5.04,2.01-5.95,6.31-5.74,5.72.28,5.92.28,5.89,6.05-.02,5.5-.23,5.69-6.84,5.68Z"/>
  <path class="cls-1" d="M515.98,249.38c-1.11-5.11,2.6-4.64,6.44-4.96,5.29-.43,5.16,2.59,5.32,6.33.19,4.4-1.23,6.22-5.85,5.92-5.71-.38-5.96-.4-5.92-7.29Z"/>
  <path class="cls-1" d="M527.51,385.94c.59,4.2-.32,6.7-5.28,6.43-5.84-.32-6.27-.45-6.28-5.89,0-6.16.01-5.89,6.11-6.27,4.67-.29,6.33,1.44,5.44,5.73Z"/>
  <path class="cls-1" d="M236.14,455.66c4.28-.86,5.3,1.56,5.06,5.86-.34,6-.33,5.89-6.4,6.24-5.15.3-5.43-2.54-5.32-6.34.16-5.72.15-5.79,6.67-5.76Z"/>
  <path class="cls-1" d="M165.74,236c.95,4.15-1.3,5.41-5.67,5.22-5.99-.26-6.33-.35-6.33-5.8,0-5.74.19-5.93,6.07-5.93,5.9,0,5.92.02,5.94,6.52Z"/>
  <path class="cls-1" d="M446.53,516.05c5.62.02,5.84.26,5.78,6.11-.06,5.42-.26,5.36-6.87,5.58-4.59.15-5.44-2.09-5.26-6,.24-5.52.29-5.72,6.36-5.69Z"/>
  <path class="cls-1" d="M234.96,18.36c6.05.03,6,.28,6.29,6.38.22,4.68-1.82,5.91-6.07,5.71-5.44-.26-5.53-.47-5.83-6.81-.23-4.94,2.19-5.9,5.61-5.27Z"/>
  <path class="cls-1" d="M30.35,234.88c-.02,6.15-.21,6-6.8,6.38-5.2.3-5.02-2.59-5.31-6.34-.43-5.49,2.66-5.38,6.59-5.53,4.68-.19,6.25,1.72,5.52,5.5Z"/>
  <path class="cls-1" d="M84.28,241.13c-5.66-.01-5.65-.33-6.03-6.12-.32-4.92,2.05-5.73,6.14-5.58,5.99.22,6,.07,5.98,5.94q-.01,5.77-6.09,5.76Z"/>
  <path class="cls-1" d="M241.16,159.89c-.01,5.82-.09,5.6-6.04,5.95-4.62.27-5.95-1.46-5.71-5.86.32-6.04.34-6.31,6.36-6.26,5.16.04,5.42.33,5.4,6.18Z"/>
  <path class="cls-1" d="M160.28,527.64c-6.28-.03-6.64-.4-6.59-6.15.05-5.12.56-5.24,6.59-5.58,4.79-.27,5.5,1.93,5.6,6.04.12,4.83-1.7,6.54-5.6,5.7Z"/>
  <path class="cls-1" d="M376.85,522.54c.92,4.17-1.35,5.41-5.7,5.2-6.02-.28-6.37-.42-6.34-6.28.03-5.07.58-5.52,6.62-5.47,5.28.04,5.45.22,5.41,6.55Z"/>
  <path class="cls-1" d="M522.65,516.04c4.1-.88,5.03,1.41,5.11,5.49.09,4.42-.94,6.47-5.89,6.29-4.16-.15-6.26-.91-5.98-5.68.36-6.05.05-6.06,6.76-6.1Z"/>
  <path class="cls-1" d="M515.97,234.44c-.95-4.42,1.76-5.19,5.9-5,5.66.26,5.46.19,5.83,6.21.29,4.78-1.75,5.82-6,5.59-5.63-.3-5.76-.2-5.73-6.79Z"/>
  <path class="cls-1" d="M255.31,254.97c1.84,2.48,4.01,4.24,3.71,5.27-.47,1.58-2.5,3.39-4.13,3.68-.97.17-3.31-2.31-3.41-3.71-.09-1.32,1.93-2.8,3.82-5.24Z"/>
  <path class="cls-1" d="M277.9,254.8c1.55,2.76,3.19,4.37,2.97,5.66-.24,1.4-2.22,2.5-3.45,3.73-1.27-1.4-3.28-2.66-3.57-4.24-.2-1.1,1.96-2.63,4.04-5.16Z"/>
  <path class="cls-1" d="M293.3,283.07c-2.46,1.55-3.89,3.12-5.33,3.14-1.04,0-2.09-2.08-3.13-3.23,1.23-1.04,2.37-2.75,3.71-2.91,1.15-.14,2.51,1.49,4.76,3.01Z"/>
  <path class="cls-1" d="M311.43,283.04c-2.31,1.68-3.84,3.48-4.63,3.2-1.42-.5-2.39-2.26-3.55-3.49,1.2-.96,2.32-2.53,3.61-2.69,1.05-.13,2.32,1.42,4.56,2.98Z"/>
  <path class="cls-1" d="M30.46,52.73c0-5.57.11-11.14-.05-16.71-.11-3.92,1.45-5.67,5.44-5.63,11.29.11,22.58.15,33.87.02,4.26-.05,5.73,1.82,5.68,5.89-.13,11.14-.09,22.28-.01,33.41.03,3.85-1.54,5.7-5.5,5.68-11.29-.07-22.58-.07-33.88.01-3.86.03-5.69-1.51-5.59-5.52.15-5.72.04-11.45.03-17.17Z"/>
  <path class="cls-1" d="M527.62,52.55c0,5.72-.09,11.44.04,17.16.1,4.2-1.8,5.75-5.91,5.7-10.98-.14-21.96-.14-32.93,0-4.28.05-6.23-1.55-6.17-5.98.14-11.13.11-22.27.02-33.4-.03-3.88,1.55-5.65,5.51-5.62,11.29.09,22.57.11,33.86-.01,4.23-.04,5.78,1.81,5.63,5.92-.2,5.4-.05,10.82-.04,16.23Z"/>
  <path class="cls-1" d="M75.37,505.09c0,5.72-.08,11.45.02,17.17.07,3.67-1.48,5.42-5.22,5.41-11.6-.05-23.2-.04-34.8,0-3.51,0-5-1.67-4.98-5.15.07-11.44.08-22.89,0-34.34-.02-3.94,1.74-5.54,5.64-5.51,11.13.1,22.27.12,33.4,0,4.43-.05,6.1,1.91,5.98,6.19-.16,5.41-.04,10.83-.05,16.24Z"/>
</svg>